<?xml version="1.0" encoding="utf-8"?>
<!-- Generator: Adobe Illustrator 24.1.0, SVG Export Plug-In . SVG Version: 6.00 Build 0)  -->
<svg version="1.1" id="Laag_1" xmlns="http://www.w3.org/2000/svg" xmlns:xlink="http://www.w3.org/1999/xlink" x="0px" y="0px"
	 viewBox="0 0 143.8 124.6" style="enable-background:new 0 0 143.8 124.6;" xml:space="preserve">
<style type="text/css">
	.st0{fill-rule:evenodd;clip-rule:evenodd;fill:#0C0C0B;}
	.st1{fill:#F9D134;}
	.st2{fill:#DBAD1D;}
	.st3{fill:#F7DE72;}
	.st4{fill:#C6C6C6;}
	.st5{fill:#F4F4ED;}
	.st6{font-family:'Helsinki';}
	.st7{font-size:43.5242px;}
	.st8{font-size:41.1231px;}
	.st9{font-size:41.133px;}
	.st10{font-size:52.54px;}
	.st11{fill:#FF0000;}
	.st12{fill:none;stroke:#000000;stroke-width:0.9998;stroke-miterlimit:9.9982;}
	.st13{fill:none;stroke:#000000;stroke-width:0.9998;stroke-miterlimit:9.9976;}
	.st14{fill:none;stroke:#000000;stroke-miterlimit:10;}
</style>
<g transform="translate(-20.819 -324.944)">
	<path class="st0" d="M91.1,324.9c0.6,0.4,0.9,0.6,0.4,1.2C90.7,327.1,89.8,325.3,91.1,324.9 M102.5,325.7
		C105.1,326.9,101.3,327.8,102.5,325.7 M114.3,326.6C116.6,327.9,112.2,328.3,114.3,326.6 M84.9,330.2
		C87.7,332.1,82.2,332.1,84.9,330.2 M96.1,331c1,0.1,2,1.1,0.7,1.7C95.4,333.1,95.5,331.7,96.1,331 M107.7,331.8
		C111.6,332.2,105.5,335.2,107.7,331.8 M119.5,332.7c0.3,0.1,1.2,0.3,1.1,0.7C119.8,335.2,118.5,334.1,119.5,332.7 M73.3,329.5
		c0.6,0.3,1,0.7,0.4,1.2C72.6,331.5,72.2,329.8,73.3,329.5 M131.4,333.6C134.1,335.6,128.7,334.7,131.4,333.6 M90.3,336.2
		c1.2,0.3,1.2,1.4,0.5,2.2C89.2,338.6,88.5,336.5,90.3,336.2 M101.6,337c1,0.1,2.2,0.9,1.2,1.9C101.5,340.3,100.2,338.2,101.6,337
		 M113.3,337.8c1.3,0.2,1.6,1.3,0.7,2.3C112.4,340.2,111.7,338.5,113.3,337.8 M78.6,335.5c0.9,0.3,1.7,2.1,0.2,1.9
		C77.5,337.3,77.5,335.9,78.6,335.5 M124.9,338.8c0.8,0.1,1.7,0.9,1,1.7C124.7,341.6,123.8,339.9,124.9,338.8 M136.8,339.7
		C139.5,341.5,134.2,341.4,136.8,339.7 M66.8,334.9C69.4,336.1,65.6,337,66.8,334.9 M95.4,342.1c1.5,0.3,2.8,2.5,0.6,2.8
		C94,345.2,93.9,342.8,95.4,342.1 M107,343c1.4,0.3,2.9,2.3,0.8,2.8C105.8,346.2,105.5,343.7,107,343 M83.9,341.5
		c1.9,0.4,1.9,2.2-0.1,2.6C82.5,343.3,82.8,342.3,83.9,341.5 M118.4,343.9c1.2,0.1,2.5,0.9,1.4,2.1
		C118.6,347.5,116.9,345.4,118.4,343.9 M130.6,344.9c1.3,0.4,1.2,1.4,0.4,2.2C129.5,347,128.7,345.2,130.6,344.9 M72.1,340.9
		c1.1,0,1.9,0.7,1.1,1.8C72.3,343.8,71.1,342,72.1,340.9 M142.2,346c1.1,0.6,0.9,0.9,0.1,1.7C140.9,347.6,141.4,346.5,142.2,346
		 M60.6,340.3C63.5,341,59,343,60.6,340.3 M89.5,347.3c1.8,0.6,2.2,3.4-0.2,3.3C86.9,350.6,88.1,347.9,89.5,347.3 M100.6,348.1
		c1.6,0.3,3.4,2.1,1.2,3.2S98.6,349.2,100.6,348.1 M112.5,348.9c1.7,0.5,2.9,3.2,0.2,3.3C110.3,352.3,111.1,349.8,112.5,348.9
		 M77.6,346.7c1.8,0.4,1.9,1.5,0.8,2.8c-0.8,0.3-1.6-0.1-1.8-0.9c-0.3-0.8,0.1-1.6,0.9-1.8C77.6,346.8,77.6,346.7,77.6,346.7
		 M66.3,346.2c0.6,0.1,1,0.6,0.9,1.2c0,0.3-0.2,0.5-0.4,0.7C65.5,349.1,64.7,347.2,66.3,346.2 M135.6,351.1c0.9,0.1,1.9,0.8,1.3,1.8
		C135.8,354.5,133.7,352.4,135.6,351.1 M147.6,352.2c1.1,0.6,0.9,0.9,0.1,1.7C146.3,353.8,146.8,352.7,147.6,352.2 M54.4,345.7
		c0.5,0,0.9,0.4,1.1,0.9C54.6,347.8,53.7,346.9,54.4,345.7 M94.6,353.3c2.2,0.2,3.4,3.4,0.8,3.9c-1.2,0.2-1.6-0.5-2.4-1.3
		C93,354.4,93.4,354.1,94.6,353.3 M106.1,354.1c2.3,0.1,3.6,3.5,0.8,3.8C104,358.2,104.1,355.3,106.1,354.1 M83.2,352.6
		c1.8,0.3,2.8,3,0.5,3.5C81,356.7,81.2,353.5,83.2,352.6 M117.7,355c2.1,0.1,3.3,3,0.9,3.5C115.9,359.1,115.9,356.1,117.7,355
		 M129.5,356.1c2.4,0.5,1.7,3.7-0.3,3C127.6,358.5,128.2,356.5,129.5,356.1 M71.3,352.1c1.2,0.2,2.8,1.3,1.3,2.5
		C70.8,356.3,69.9,353.6,71.3,352.1 M60.2,351.6c1,0.7,1.3,2.7-0.5,2.1C58.3,353.2,59.4,351.9,60.2,351.6 M141,357.3
		c0.8,0.1,1.8,0.6,1.3,1.7C141.4,360.5,139.2,358.8,141,357.3 M153,358.4C155.5,360.4,150.6,360,153,358.4 M48.4,351.2
		c0.9,0.5,1.1,0.8,0.2,1.4C47.6,352.5,47.4,351.4,48.4,351.2 M99.7,359.2c2.1,0,4.3,2.9,1.6,4.2c-1,0.5-2.3,0.2-3.1-0.6
		C97.9,360.9,98.4,360.3,99.7,359.2 M111.7,360.1c2,0.5,3.6,3.5,0.7,4.3C109.1,365.3,109.2,361.2,111.7,360.1 M88.2,358.5
		c1.2,0.2,2.3,0.3,2.5,1.8c0.2,0.9-0.3,1.8-1.2,2.2C86.7,363.7,85.5,359.6,88.2,358.5 M123.2,361.1c2.1,0.5,3,3.1,0.4,3.9
		C120.9,364.7,121.4,362.2,123.2,361.1 M76.7,358c1.9,0.3,3.4,3.1,0.7,3.6C74.9,362.1,75,359,76.7,358 M134.9,362.3
		c2.2,0.5,2,2.5,0,3.1C133.5,364.8,132.9,362.7,134.9,362.3 M65.1,357.5c1.7,0.3,2.3,1.1,1.2,2.7C64.1,360.6,63.6,359.1,65.1,357.5
		 M146.8,363.6c1.2,0.7,1.4,2.3-0.4,2.2C145.4,365,145.4,363.8,146.8,363.6 M53.6,357.1c1.1,0.1,1.5,0.9,0.9,1.9
		C53,359.2,52.4,358.2,53.6,357.1 M158.3,364.8c0.8,0.5,0.9,0.7,0.3,1.3C157.5,366.2,157.3,365.2,158.3,364.8 M93.8,364.4
		c2.5,0.2,4.1,3.8,1.2,4.8c-1.4,0.1-2.6,0.2-3.1-1.4C91.2,365.9,92.4,365.2,93.8,364.4 M105.3,365.2c2.8,0.1,4.1,4.1,1,4.9
		C102.7,370.9,102.6,366.5,105.3,365.2 M117.3,366.2c2.4,0.6,3.2,4.1,0.3,4.6C114.2,371.3,114.6,367.1,117.3,366.2 M82,363.8
		c2.1,0.1,4,2.6,1.7,4c-0.8,0.6-2,0.6-2.8-0.1C79.4,366.2,80.7,364.7,82,363.8 M128.6,367.3c1.7,0.4,3.4,2.8,0.9,3.7
		c-0.8,0.4-1.8,0.1-2.2-0.8c0,0,0-0.1,0-0.1C126.5,368.8,127.4,368,128.6,367.3 M70.5,363.4c2.1,0.4,3.3,3.5,0.4,3.6
		C68.4,367.1,69.1,364.3,70.5,363.4 M59.2,363c1.2,0.5,2.1,2.2,0.3,2.6C57.7,366,57.5,363.3,59.2,363 M140,368.7
		c2.3,0.5,2.5,2.5,0.1,2.9C138.6,370.7,139.1,369.8,140,368.7 M151.9,369.9c1,0.1,1.6,1.3,0.5,1.9
		C151.3,371.7,150.5,370.5,151.9,369.9 M47.3,362.7c0.6,0,1.4,0.2,1.1,1.1C47.5,365.2,46.4,363.9,47.3,362.7 M99.3,370.4
		c3.3,0.3,3.8,5,0.4,5.5C95.8,376.4,96.4,371.4,99.3,370.4 M87.8,369.7c1.4,0.4,2.3,0.7,2.6,2.3c0.1,1.2-0.6,2.3-1.7,2.7
		C85.3,376,84.5,370.9,87.8,369.7 M110.5,371.3c3,0.1,4.4,3.9,1.2,5C108,377.5,107.6,372.8,110.5,371.3 M122.5,372.4
		c2.6,0.7,3.2,5-0.1,4.6C119.1,376.6,120.5,373.3,122.5,372.4 M75.9,369.2c2.7,0.1,3.2,2.8,1.1,4.2c-1,0.5-1.9-0.2-2.7-0.8
		C74,370.9,74.4,370.1,75.9,369.2 M133.9,373.7c1.6,0.3,3.5,2.3,1.2,3.4C132.6,378.3,131.8,375,133.9,373.7 M64.1,368.9
		c1.3,0.2,3.4,1.5,1.7,2.9C63.8,373.6,62.1,370.5,64.1,368.9 M53,368.5c1,0.4,2,2.1,0.3,2.4C51.6,371.3,51.4,368.8,53,368.5
		 M145.4,375c1.4,0.3,2.7,2,0.7,2.5c-0.7,0.1-1.4-0.4-1.5-1.1C144.6,375.8,144.9,375.3,145.4,375 M157.3,376.3
		C160.4,376.8,155.2,379.3,157.3,376.3 M41.1,368.2C44,368.8,39.6,370.7,41.1,368.2 M93.1,375.6c3.4,0.3,3.9,5.1,0.8,5.6
		C89.6,382.1,89.7,376.9,93.1,375.6z M104.6,376.4c1.6,0,2.9,1.2,2.9,2.8c0,1.5-1.1,2.8-2.6,2.9C101.5,382.6,101,377.8,104.6,376.4z
		 M81.6,375.1c2.7,0.4,3.8,4.4,0.7,5C78.6,380.7,78.7,376.1,81.6,375.1 M115.9,377.5c4.7,0.1,3.3,6.4-0.9,4.9
		C112.9,380.8,114,378.5,115.9,377.5z M127.7,378.7c1.2,0.3,2.1,0.4,2.5,1.8c0.2,1.1-0.4,2.2-1.5,2.4c-0.2,0.1-0.5,0.1-0.7,0
		C125,382.8,125.8,379.7,127.7,378.7 M69.7,374.8c1.8,0.3,4,2.8,1.3,3.8c-1,0.4-2.1,0-2.8-0.8C67.9,376.5,68.5,375.2,69.7,374.8
		 M139.2,380.1c1.5,0.1,2.9,1.8,1.3,3C138.4,384.5,137.3,381.4,139.2,380.1 M58.2,374.5c1.7,0.4,2.3,1.2,1.2,2.8
		C57.3,377.8,56,375.8,58.2,374.5 M150.9,381.4c0.9,0,2,1.1,1,1.9c-0.7,0.6-1.2,0.2-1.8-0.3C150.1,382.2,150.4,382,150.9,381.4
		 M46.5,374.2c1.2,0.1,1.6,0.9,0.9,1.9C45.9,376.3,45.3,375.2,46.5,374.2 M162.9,382.6c0.6,0.3,1,0.7,0.4,1.2
		C162.3,384.6,161.9,382.9,162.9,382.6 M98.4,381.7c3.9,0.2,4,5.3,0.7,5.9C95.3,388.3,94.5,383.3,98.4,381.7L98.4,381.7z M86.9,381
		c3.6,0.3,3.8,5.1,0.5,5.6C83.8,387.2,83.3,382.5,86.9,381L86.9,381z M109.9,382.7c3.8,0.1,4,5.1,0.9,5.6
		C106.6,389.1,106.6,383.9,109.9,382.7L109.9,382.7z M75.4,380.6c3.3,0.3,3.1,4,0.3,4.8c-1.1,0.1-2.1-0.6-2.4-1.7
		C72.8,382,74,381.3,75.4,380.6 M121.2,383.8c2.9,0.1,4.5,4,1.1,4.8c-1,0.3-2.1-0.2-2.7-1.1C118.7,385.8,119.9,384.7,121.2,383.8
		 M133.4,385.1c2,0.5,2.8,3.4,0.4,3.9C131.1,389.7,130.7,385.7,133.4,385.1 M63.7,380.3c2.3,0.6,2.7,3.8-0.2,3.6
		C61,383.8,62.3,381,63.7,380.3 M144.6,386.5c1.8,0.4,2.4,1.5,0.8,2.8C143.6,389,143.1,387.8,144.6,386.5 M51.7,380.1
		c1.1,0,2.4,0.6,1.6,1.9C52.4,383.7,50.2,381.9,51.7,380.1 M40.6,379.7c1.2,0.4,1,1.1,0.1,1.7C39.6,380.9,39.6,380.4,40.6,379.7
		 M156.3,387.9c1.3,0.1,1.7,1.6,0.3,1.8C155.7,389.1,155.7,388.7,156.3,387.9 M92.2,387.1c3.7,0.1,4.5,5.5,0.6,5.7
		c-1.4,0.1-2.6-0.7-3-2C89.2,388.8,90.5,387.9,92.2,387.1 M103.7,387.9c1.6-0.1,3,1.1,3.2,2.8c0.1,1.5-1,2.9-2.5,3.1
		C100.3,394.4,100.4,389.2,103.7,387.9L103.7,387.9z M80.9,386.6c3.8,0.5,2.7,6.2-0.9,5C76.9,390.4,78.7,387.3,80.9,386.6 M115,389
		c2.5,0.1,5.1,4.1,1.8,5.1c-1.1,0.3-2.2,0-3.1-0.7C111.8,391.8,113.5,390,115,389 M127,390.2c1.2,0.3,2.2,0.6,2.4,2
		c0.1,1.2-0.7,2.2-1.9,2.4c-0.1,0-0.1,0-0.2,0C124,394.7,124.8,391.2,127,390.2 M69,386.3c2.4,0.2,3.5,3.9,0.7,4.2
		C66.8,390.8,66.5,387.2,69,386.3 M138.8,391.6c2,0.6,1.9,2.2,0.5,3.4C137,394.6,136.4,392.7,138.8,391.6 M57.5,386
		c2.3,0.5,2.1,2.7,0,3.3C55.8,388.6,55.8,386.5,57.5,386 M46,385.7c0.8,0.3,1.7,1.3,0.6,2C44.9,388.6,44.8,386.6,46,385.7 M150,393
		c1.6,0.3,2,0.9,0.9,2.3C149.2,395.2,148.9,394.2,150,393 M161.8,394.3C164.5,394.9,160.3,396.8,161.8,394.3 M97.4,393.4
		c2.6,0.1,4.5,3.2,2.2,5.1C96.2,401.1,93.1,395.4,97.4,393.4 M86.1,392.7c3.6,0.2,3.7,5,0.7,5.5C83.2,398.8,82.4,394.1,86.1,392.7
		L86.1,392.7z M108.8,394.3c3.3,0,5,4.9,1.2,5.6c-1.2,0.2-2.4-0.5-3-1.6C106.1,396.4,107.3,395.3,108.8,394.3 M121.2,395.4
		c2.5,0.9,3.1,4.3,0,4.9c-1.3,0.1-2.4-0.8-2.6-2.1C118.5,396.4,119.7,395.8,121.2,395.4 M74.6,392.3c2.9,0.3,3.3,4.3,0.2,4.6
		c-1.1,0.2-2.2-0.6-2.4-1.8c0,0,0,0,0,0C72.2,393.6,73.4,392.8,74.6,392.3 M132.6,396.7c2.8,0.8,2.2,4.1-0.7,3.9
		C129.9,399.4,130.6,397.4,132.6,396.7 M62.9,392c1,0.4,2.1,0.7,1.9,2c-0.2,1.1-0.8,1.8-1.9,1.6C60.6,395.2,61.1,392.6,62.9,392
		 M143.8,398.2c1.5,0.3,2.8,2.4,0.6,2.6C142.5,401.1,142.7,399.1,143.8,398.2 M51,391.8c1.7,0.1,2.1,1.4,0.9,2.5
		C50.5,394.2,49.3,392.5,51,391.8 M39.7,391.4C42.5,393.2,37.3,393,39.7,391.4 M155.5,399.5c0.9,0.1,1.9,0.6,0.9,1.6
		S154.9,400.3,155.5,399.5 M91.3,398.9c4,0.1,3.5,4.7,0.5,5.5C89.1,405.1,87.5,400.5,91.3,398.9L91.3,398.9z M102.7,399.7
		c3.9,0.1,4.1,5,0.9,5.5C99.7,405.9,99.9,401,102.7,399.7L102.7,399.7z M80,398.4c3.2,0.4,3.2,4.1,0.3,5
		C76.7,403.1,77.4,399.4,80,398.4 M114.2,400.8c1,0,2,0.4,2.8,1.1c0.4,1.5,0.4,3.3-1.5,3.8c-1.3,0.3-2.6-0.4-3-1.6
		C112.1,402.3,112.8,401.6,114.2,400.8 M126,402c1.2,0.3,2,0.3,2.3,1.7c0.3,1-0.2,2-1.2,2.3c-0.1,0-0.1,0-0.2,0
		c-1.4,0.4-1.8-0.4-2.5-1.3C124.5,403.1,124.6,402.8,126,402 M68.1,398c1,0.2,1.6,0.2,2.2,1.1c0.5,0.9,0.2,2-0.7,2.5
		c-0.3,0.1-0.6,0.2-0.9,0.2C66.1,401.8,66.2,399,68.1,398 M137.7,403.3c1,0.3,1.6,0.2,1.8,1.4c0.1,0.9-0.4,1.7-1.3,1.8
		c-0.1,0-0.3,0-0.4,0C135.6,406.3,136.6,404.1,137.7,403.3 M56.5,397.7c1.3,0.3,2.6,1.5,1.1,2.6C55.8,401.7,54.6,399,56.5,397.7
		 M149.4,404.7c1.3,0.3,1.7,1.7,0.2,2.2C148.6,406.4,148.1,405.2,149.4,404.7 M44.9,397.4C48.7,398.2,42.4,400.9,44.9,397.4
		 M96.6,405.2c2.8,0.1,4.5,3.9,1.2,4.8c-1.1,0.3-2.3,0-3-0.9C93.8,407.3,95.1,406,96.6,405.2 M85.1,404.6c3.6,0.2,3.4,5.3-0.2,4.9
		C82,409.2,83.3,405.4,85.1,404.6 M108.1,406.2c3.3,0.1,4,4.8,0.5,5C105.4,411.4,105.8,407.1,108.1,406.2 M120.1,407.3
		c2.4,0.4,3.2,3.8,0.5,4.3c-1.2,0.2-2.3-0.6-2.5-1.8C117.9,408.4,118.9,407.8,120.1,407.3 M73.5,404.1c1.8,0.1,3.6,2.1,1.8,3.6
		c-0.8,0.6-1.8,0.6-2.7,0.2C71.4,406.1,71.7,405.2,73.5,404.1 M131.4,408.6c2.5,0.2,2.4,2,0.9,3.4
		C130,411.7,129.5,410.1,131.4,408.6 M61.8,403.8c1.5,0.1,3.1,2,1.2,2.9C61,408.1,60.1,405.1,61.8,403.8 M143,409.9
		c1,0.1,2.1,0.7,1.5,1.8c-0.3,0.5-0.8,0.7-1.4,0.7C141.9,411.5,142.1,411.1,143,409.9 M50.2,403.5c1,0.1,2.1,0.7,1.2,1.8
		C50.4,406.6,48.9,404.9,50.2,403.5 M155.1,411.2c0.9,0.5,0.9,0.7,0.4,1.6C154.1,412.4,154,412,155.1,411.2 M90.5,410.9
		c2.8,0.1,3.7,3.9,0.8,4.6c-1.1,0.2-2.2-0.4-2.6-1.5C88.1,412.4,89.2,411.6,90.5,410.9 M102,411.7c1.3,0.2,2.2,0.4,2.7,1.8
		c0.3,1.3-0.5,2.5-1.8,2.8c-0.1,0-0.2,0-0.2,0c-1,0.1-2-0.6-2.4-1.5C99.7,413.3,100.8,412.4,102,411.7 M113.8,412.7
		c2.8,0.4,3,4.4-0.1,4.2C110.7,416.6,112,413.5,113.8,412.7 M78.7,410.4c2.8,0.1,3.3,2.8,1,4.1c-1,0.2-2-0.3-2.4-1.3
		C76.9,411.7,77.7,411,78.7,410.4 M125.4,413.9c1.4,0.4,2.9,2.4,0.9,3.3C123.9,418.5,122.8,414.8,125.4,413.9 M67.3,409.9
		c1.5,0.1,2.8,1.6,1.4,2.9C66.9,414.5,64.5,411.2,67.3,409.9 M136.8,415.2c1.1,0.1,2.5,1,1.4,2.2C136.6,419,135.3,416.6,136.8,415.2
		 M55.7,409.6c1.5,0.3,2.3,2.5,0.2,2.5C54.2,412,54.8,410.2,55.7,409.6 M148.7,416.5c1.1,0.6,1.2,0.9,0.5,1.9
		C148.2,418.1,147.3,417.1,148.7,416.5 M44.1,409.2c0.9,0.2,1.1,0.4,1.1,1.2C43.9,411.3,42.9,410.2,44.1,409.2 M96.3,417.3
		c2.2,0.8,2.9,4.1-0.1,4.3c-1,0.1-2.5-1.4-2-2.5C94.4,417.9,95.2,417.7,96.3,417.3 M107.6,418.2c2.6,0.3,2.9,4,0.2,4
		C104.9,422.3,105.7,419.1,107.6,418.2 M84.1,416.7c1.2,0.2,2.4,0.3,2.4,1.9c0,1-0.7,1.8-1.6,2C82.2,420.8,82.3,417.9,84.1,416.7
		 M119.2,419.3c1.9,0.5,2.8,3.5,0.1,3.6C116.9,423,117.8,420.1,119.2,419.3 M72.6,416.2c2,0.3,2.5,1.5,1.3,3.2
		C71.5,419.6,70.5,417.7,72.6,416.2 M131.1,420.5c2,0.7,1.5,2.5-0.5,2.8C129.3,422.6,129.3,420.8,131.1,420.5 M61.1,415.7
		c1.1,0.3,2.1,1,1.2,2.2C61.2,419.3,59,417.2,61.1,415.7 M49.6,415.3c0.6,0.2,1.2,0.6,1,1.2C49.6,417.9,48.2,416.5,49.6,415.3
		 M142.3,421.9c1.3,0.1,1.5,0.8,0.9,1.9C141.8,423.6,141,423.2,142.3,421.9 M89.6,423.1c2.6,0.2,2.7,3.4,0,3.5
		C87.3,426.1,88.4,424,89.6,423.1 M101.2,423.9c1.8,0.1,3.1,2.4,1.1,3.4C100.2,428.4,98.7,424.7,101.2,423.9 M113,424.9
		c2.3,0.2,2.3,2.7,0.3,3.4C110.8,428,111.4,425.8,113,424.9 M77.9,422.5c1.7,0.1,3.2,2.2,1.2,3C76.8,426.4,76.4,423.7,77.9,422.5
		 M124.8,426c1.1,0.3,1.8,2.1,0.5,2.7C123.5,429.6,123,426.8,124.8,426 M66.5,422c0.8,0.2,2.2,1,1.4,2
		C66.6,425.6,64.5,423.4,66.5,422 M136.4,427.2c1.1,0.6,1,2.5-0.2,2C135,428.7,135.2,427.4,136.4,427.2 M54.9,421.5
		c1.2,0.1,1.5,0.9,0.8,1.9C54,423.8,54.3,422.4,54.9,421.5 M95.1,429.6c1.9,0.2,2.5,2.8,0.4,3C93.3,432.9,93.8,430.5,95.1,429.6
		 M107,430.4c1.4,0.6,2.2,3,0,3C104.7,433.4,105.7,431.1,107,430.4 M83.4,428.9c1.4,0.3,2.8,1.8,0.9,2.7
		C82.5,432.5,81.8,429.7,83.4,428.9 M118.4,431.5c1.1,0.2,2.1,1,1.2,2.2C118.5,434.9,116.1,433.2,118.4,431.5 M71.6,428.3
		c1.3,0.2,2.2,0.6,1.5,2.1C71.3,431.3,70.4,429.8,71.6,428.3 M130.2,432.6c0.8,0.3,1.4,1.5,0.3,2
		C129.3,435.1,128.4,432.9,130.2,432.6 M60.3,427.8c1,0.3,1.4,0.6,1.1,1.6C60,429.8,59.1,428.8,60.3,427.8 M89.2,435.3
		c1.7,0.6,1.4,1.9-0.1,2.6C88.1,437.2,87.2,435.6,89.2,435.3 M100.8,436.1c1.6,0.6,1.3,1.6,0.2,2.6C99.4,438.2,99,436.5,100.8,436.1
		 M77.5,434.6c0.8,0.5,1.8,1.4,0.5,2.1C76.2,437.6,76.2,435.3,77.5,434.6 M112.1,437c1.4,0.4,1.7,1.1,0.8,2.3
		C111,439.5,110.9,438,112.1,437 M65.8,434c1,0.3,1.2,1.1,0.5,1.9C65.3,435.6,64.4,434.6,65.8,434 M123.7,438.1
		c0.9,0.1,1.8,1.1,0.7,1.7C123,440.7,123,438.7,123.7,438.1 M94.5,441.7c1.3,0.6,1,2.6-0.4,1.9C93.1,443,93.6,442.1,94.5,441.7
		 M82.7,441c0.9,0.2,2,1,0.7,1.7C82.1,443.5,81.8,441.8,82.7,441 M105.8,442.7c0.5,0.1,2.1,0.6,1.1,1.5
		C105.6,445.3,104.8,443.8,105.8,442.7 M71,440.3c0.9,0.2,1.1,0.4,1.1,1.2C71,442.5,69.9,441.3,71,440.3 M117.4,443.6
		C120.9,443.9,115.5,446.9,117.4,443.6 M88.3,447.4C91.1,449,85.6,449.2,88.3,447.4 M99.9,448.2C102.7,449.8,97.2,450.1,99.9,448.2"
		/>
	<path class="st1" d="M136.6,427.5c-0.5,0.1-13.2-16.2-19.5-15.4c-3.8,0.5-6.3,2.9-8.6,7.4c-1.7,3.8-3,7.7-4,11.8
		c-0.2,0.1-6.6-15.2-11.6-16.6c-4.8-1.2-15.5,18.4-16,18.3c0.1,0.1,0.5-17.7-3.6-21.3c-3.8-3.5-22.4,5.2-22.7,5.2
		c0.6,0.1,21-16.9,14.8-27.7c-5.7-10.8-18.1-13.4-18-13.4c0,0,19.6-0.1,21.6-5.5c2.3-5.4-10.3-19.7-10.7-19.6
		c0.3,0,15.4,11.1,21.1,8c7.9-4.2,2.3-29.3,1.9-29.1c0.8-0.3,10.4,32,15.2,26.8c5.3-5.4,9.5-19.7,9.5-19.6
		c-0.1-0.2-0.9,23.5,5.3,22.3c6-1.4,17.2-15.9,17.5-15.8c-0.5-0.1-11.4,21.1-5,22.1c5.9,0.9,16.5-8,16.6-8
		c-0.4,0-11.6,17.4-4.6,19.2c6.7,1.8,18.3,0.5,18.3,0.5c0,0-18.1,6.3-16.2,13.5c1.8,7.2,11.6,13,11.7,13c0,0-12.2-1.5-15,0.7
		C125.3,411.3,136.2,427.6,136.6,427.5z"/>
	<path class="st2" d="M137.8,390.5C135.9,383.3,154,377,154,377c0,0-11.6,1.3-18.3-0.5c-7-1.8,4.2-19.3,4.6-19.2
		c0,0-0.6,0.4-1.4,1.1c-4,8.2-9.5,15.6-16.2,21.8c-8.5,9.3-19.2,16.2-31.2,20c-10,5.3-21,8.1-32.3,8.4c-4.1,4.8-8.4,8.3-8.7,8.3
		c0.3,0,18.9-8.7,22.7-5.2c4.1,3.6,3.7,21.4,3.6,21.3c0.5,0.1,11.3-19.5,16-18.3c5,1.4,11.4,16.7,11.6,16.6c1-4,2.3-8,4-11.8
		c2.3-4.6,4.8-6.9,8.6-7.4c6.3-0.8,19,15.5,19.5,15.4c-0.4,0.1-11.4-16.2-2-23.4c2.8-2.2,15-0.7,15-0.7
		C149.4,403.5,139.6,397.7,137.8,390.5z"/>
	<path class="st3" d="M128.8,343.3L128.8,343.3L128.8,343.3z"/>
	<path class="st3" d="M128.8,343.3C128.9,343.3,128.9,343.3,128.8,343.3C128.9,343.3,128.9,343.3,128.8,343.3z"/>
	<path class="st3" d="M66.2,396.8c-2.4,9.7-15.1,20.1-15.6,20.1c0.1,0,2.7-1.2,6.2-2.5C61.3,409.6,66.3,402.8,66.2,396.8z"/>
	<path class="st3" d="M133.6,373.6c-0.8,3.1-0.6,5.7,1.9,6.4c3.4,0.7,6.8,1.1,10.2,0.9c2.7-1.5,5.5-2.8,8.5-3.8
		c0,0-11.6,1.3-18.3-0.5C134.6,376.2,133.6,375,133.6,373.6z"/>
	<path class="st3" d="M123.9,365.3c-1.4-0.2-2-1.4-2-3.1c-0.8,3.4-0.6,6.1,1.6,6.5c3.9,0.6,9.9-3.1,13.5-5.7c1-2,2.2-3.9,3.5-5.7
		C140.4,357.3,129.8,366.2,123.9,365.3z"/>
	<path class="st3" d="M138,390.6c-0.5,1-0.7,2.2-0.4,3.3c0.9,3.6,3.8,6.8,6.5,9.1c3,0.1,5.6,0.5,5.6,0.5
		C149.6,403.5,139.9,397.7,138,390.6z"/>
	<path class="st3" d="M96.2,359.8c5.3-5.4,9.5-19.7,9.5-19.6c-0.1-0.2-0.9,23.5,5.3,22.3c4-0.9,10.4-7.8,14.2-12.2
		c1-2.4,2.2-4.7,3.6-7c-1,0.9-11.6,14.4-17.4,15.8c-6.2,1.2-5.4-22.5-5.3-22.3c-0.1-0.1-4.2,14.2-9.5,19.6
		c-4.8,5.1-14.4-27.2-15.2-26.8c0.2-0.1,1,3.5,1.7,8.2C86.3,346.5,92.6,363.6,96.2,359.8z"/>
	<path class="st3" d="M130.9,412.5c-0.8,3.1-0.3,6.6,0.8,9.7c2.8,3,4.8,5.4,5,5.4C136.3,427.6,130.9,419.7,130.9,412.5z"/>
	<path class="st3" d="M68.6,373.6c0.3-0.9,0.4-1.9,0.1-2.8c-3,4.9-21.4,4.9-21.4,4.9c2.6,0.7,5,1.6,7.3,2.9
		C60.5,378.1,67.5,376.7,68.6,373.6z"/>
	<path class="st3" d="M64.5,358.1c4.9,2.8,11.3,5.8,14.6,4c2.7-1.5,3.8-5.4,4.1-9.9c-0.6,3-1.7,5.5-3.7,6.6c-5.7,3.1-20.8-8-21.1-8
		C60.6,352.9,62.7,355.4,64.5,358.1z"/>
	<path d="M47.8,417.8l0.8-0.6c0.5-0.4,1.2-1,2.1-1.7c2.2-1.9,4.3-3.9,6.3-6c2-2.1,3.9-4.3,5.6-6.6c0.7-0.9,1.2-1.6,1.6-2.2l0.6-0.8
		l-0.4,0.9c-0.2,0.6-0.6,1.4-1.2,2.4c-2.8,5.3-7,9.7-12.1,12.8c-1,0.6-1.8,1-2.4,1.3L47.8,417.8z"/>
	<path d="M77.2,434.7c0,0-0.4-2.8-1-7.2c-0.3-2.2-0.6-4.9-0.9-7.8c-0.1-1.5-0.3-3-0.6-4.5c-0.2-1.5-1-2.8-2.3-3.6
		c-1.4-0.7-2.9-0.8-4.3-0.4c-1.5,0.3-2.9,0.8-4.4,1.3c-2.8,1-5.3,1.8-7.5,2.5c-4.3,1.4-6.9,2.2-6.9,2.2s2.5-1.1,6.7-2.9
		c2.1-0.9,4.5-1.9,7.3-3c1.5-0.6,3-1.2,4.5-1.6c0.9-0.2,1.7-0.3,2.6-0.3c1,0,1.9,0.3,2.8,0.8c0.8,0.5,1.5,1.2,2,2.1
		c0.4,0.8,0.7,1.6,0.9,2.5c0.3,1.6,0.4,3.1,0.5,4.7c0.2,3,0.3,5.6,0.4,7.9C77.1,431.9,77.2,434.7,77.2,434.7z"/>
	<path d="M105.3,433.3l-0.9-1.7c-0.6-1.1-1.4-2.6-2.5-4.5s-2.5-4-4.2-6.4c-0.8-1.1-1.8-2.4-2.7-3.5c-1-1.1-2.2-2.1-3.5-1.8
		c-1.3,0.2-2.5,1.4-3.4,2.5c-0.9,1.2-1.8,2.5-2.6,3.6c-1.7,2.3-3.2,4.4-4.6,6.2c-2.6,3.5-4.3,5.6-4.3,5.6s1.4-2.3,3.7-6
		c1.2-1.8,2.6-4,4.1-6.5c0.8-1.2,1.6-2.5,2.5-3.8c0.5-0.7,1.1-1.3,1.7-1.9c0.7-0.6,1.6-1.1,2.5-1.2c1-0.1,2,0.1,2.8,0.6
		c0.7,0.5,1.4,1.1,1.9,1.8c1,1.3,1.9,2.5,2.7,3.7c1.4,2.2,2.7,4.4,3.8,6.7c1,2,1.6,3.6,2.1,4.8S105.3,433.3,105.3,433.3z"/>
	<path d="M137,427.9c0,0-2.2-1.9-5.6-4.9c-1.7-1.5-3.7-3.4-6-5.5c-1.1-1-2.3-2.2-3.5-3.2c-1.2-1.1-2.6-1.8-4.2-2.1
		c-0.7-0.1-1.5-0.1-2.2,0.2c-0.7,0.3-1.4,0.7-1.9,1.2c-1.2,1-2.1,2.1-2.9,3.4c-1.4,2.3-2.6,4.7-3.7,7.1c-0.9,2.1-1.5,3.9-1.9,5.1
		l-0.6,1.9l0.4-2c0.4-1.8,0.9-3.5,1.5-5.3c0.9-2.6,2-5.1,3.3-7.5c0.8-1.5,1.8-2.8,3.1-3.9c0.7-0.6,1.5-1.1,2.3-1.5
		c0.9-0.3,1.9-0.4,2.9-0.3c1.8,0.3,3.5,1.2,4.9,2.5c1.3,1.1,2.4,2.3,3.4,3.4c2.1,2.2,4,4.1,5.6,5.8C135.1,425.8,137,427.9,137,427.9
		z"/>
	<path d="M135.7,426.7l-0.7-1c-0.4-0.6-1-1.5-1.7-2.7c-0.8-1.4-1.5-2.8-2.1-4.3c-0.7-1.9-1.1-3.9-1.1-5.9c0-2.1,0.5-4.1,1.5-5.9
		c0.8-1.4,2-2.7,3.4-3.5c0.9-0.6,2-0.9,3.1-1.1c0.3,0,0.6,0,0.9,0l0.3,0l-0.3,0.1c-0.3,0-0.6,0.1-0.8,0.2c-1,0.3-1.9,0.8-2.7,1.4
		c-1.2,0.9-2.1,2.1-2.8,3.5c-0.8,1.7-1.1,3.5-1.1,5.3c0.1,3.4,0.9,6.8,2.4,9.9L135.7,426.7z"/>
	<path d="M143.6,398.8c-2-0.8-3.6-2.6-4.2-4.7C141.4,394.9,143,396.6,143.6,398.8z"/>
	<path d="M141.6,383.8c0,1.4-1.1,2.6-2.5,2.7C139.1,385.1,140.2,383.9,141.6,383.8z"/>
	<path d="M141.3,356.8l-1.1,1.6c-0.7,1-1.5,2.4-2.4,3.9c-0.9,1.5-1.8,2.9-1.8,3.9c0,0.4,0,0.9,0.2,1.3c0.1,0.2,0.2,0.3,0.3,0.4
		c-0.2-0.1-0.3-0.2-0.5-0.3c-0.4-0.4-0.7-0.8-0.8-1.3c-0.1-0.8-0.1-1.6,0.2-2.3c0.3-0.8,0.7-1.7,1.1-2.4c0.8-1.4,1.9-2.6,3.1-3.6
		C140.2,357.5,140.7,357.2,141.3,356.8z"/>
	<path d="M139.2,359.2l-1.2,0.8c-0.8,0.5-2,1.2-3.5,2c-1.8,1-3.6,1.8-5.5,2.6c-1.2,0.5-2.4,0.8-3.7,0.9c-0.8,0-1.5-0.2-2.2-0.6
		c-0.7-0.5-1.2-1.1-1.4-1.9c-0.3-1.4-0.3-2.8,0.1-4.1c0.2-1.2,0.5-2.4,0.9-3.5c0.6-1.9,1.3-3.8,2.2-5.7c0.6-1.2,1.2-2.4,1.9-3.6
		c0.5-0.8,0.8-1.3,0.8-1.3s-0.2,0.5-0.6,1.4s-0.9,2.2-1.5,3.8c-0.7,1.9-1.2,3.8-1.7,5.7c-0.2,1.1-0.5,2.2-0.7,3.4
		c-0.3,1.1-0.3,2.3-0.1,3.4c0.3,1,1.2,1.6,2.2,1.6c1.1,0,2.2-0.2,3.2-0.6c2.1-0.7,4-1.4,5.6-2.1
		C137.2,360.1,139.2,359.2,139.2,359.2z"/>
	<path d="M128.5,343.9c0,0-1.7,1.9-4.5,4.9c-1.4,1.5-3.1,3.3-5,5.2c-1,1-1.9,2-3.1,3c-0.6,0.5-1.3,1-2,1.4c-0.8,0.4-1.6,0.7-2.5,0.7
		c-0.9,0-1.8-0.2-2.6-0.7c-0.7-0.5-1.3-1.1-1.7-1.9c-0.7-1.3-1.1-2.9-1.1-4.4c-0.1-2.8-0.1-5.2-0.1-7.2c0-4.1,0-6.7,0-6.7
		s0.3,2.5,0.7,6.6c0.2,2,0.4,4.5,0.6,7.2c0.1,1.3,0.5,2.6,1.1,3.8c0.6,1.1,1.8,1.9,3.1,1.9c1.4-0.2,2.6-0.8,3.6-1.7
		c1.1-0.9,2.1-1.9,3.1-2.9c2-1.9,3.8-3.5,5.3-4.9C126.6,345.5,128.5,343.9,128.5,343.9z"/>
	<path d="M106.4,336.5c0,0-1.1,2.8-3,7.4c-0.9,2.3-2.1,5-3.4,8c-0.6,1.7-1.6,3.3-3,4.5c-0.9,0.7-2.1,0.9-3.2,0.6c-1-0.3-1.9-1-2.5-2
		c-0.5-0.8-1-1.7-1.3-2.6c-0.3-0.9-0.6-1.7-1-2.5l-1.9-4.7c-1.2-3-2.3-5.7-3.2-8c-1.8-4.6-2.7-7.5-2.7-7.5s1.2,2.8,3.3,7.2
		c1.1,2.2,2.3,4.9,3.7,7.8c0.7,1.5,1.4,3.1,2,4.7c0.3,0.8,0.7,1.7,1,2.5c0.3,0.8,0.7,1.6,1.2,2.3c0.4,0.7,1,1.2,1.7,1.4
		c0.7,0.2,1.4,0,2-0.4c0.6-0.5,1.1-1.1,1.5-1.7c0.4-0.7,0.8-1.4,1.1-2.1c1.4-2.9,2.7-5.6,3.8-7.8
		C104.9,339.2,106.4,336.5,106.4,336.5z"/>
	<path d="M81.6,329.2c0,0,0.2,0.7,0.6,2c0.5,1.8,0.9,3.7,1.2,5.5c0.4,2.8,0.7,5.6,0.7,8.4c0,1.6-0.1,3.2-0.2,5
		c-0.1,1.8-0.5,3.6-1.2,5.4c-0.4,0.9-0.9,1.7-1.6,2.4c-0.7,0.7-1.6,1.2-2.5,1.5c-1.7,0.4-3.5,0.4-5.2-0.2c-2.7-0.9-5.3-2-7.7-3.4
		c-1.6-0.9-3.2-2-4.7-3.2c-1-0.8-1.6-1.3-1.6-1.3s0.6,0.4,1.7,1.1c1.6,1,3.2,1.9,4.9,2.7c2.5,1.2,5,2.2,7.7,2.9
		c1.5,0.4,3,0.5,4.5,0.1c1.5-0.5,2.7-1.7,3.2-3.2c0.6-1.6,1-3.2,1.1-4.9c0.2-1.7,0.3-3.3,0.4-4.8c0.1-2.8,0.1-5.5-0.2-8.3
		c-0.2-2.4-0.5-4.2-0.7-5.6L81.6,329.2z"/>
	<path d="M58.6,350.4l1,1.1c0.6,0.7,1.5,1.8,2.5,3.1s2.2,3,3.4,4.9c0.6,1,1.2,2,1.8,3c0.7,1.1,1.2,2.3,1.7,3.5
		c0.6,1.3,0.6,2.9,0,4.2c-0.6,1.2-1.6,2.1-2.9,2.6c-1,0.4-2,0.8-3.1,1c-0.9,0.2-1.8,0.4-2.8,0.5c-1.3,0.2-2.7,0.2-4,0.1
		c-0.9,0-1.5-0.1-1.5-0.1s0.5,0,1.5-0.1c1.3-0.1,2.6-0.3,3.9-0.6c0.8-0.2,1.7-0.4,2.6-0.7c1-0.3,1.9-0.7,2.8-1.1
		c0.9-0.4,1.7-1.2,2.1-2.1c0.4-1,0.3-2.1-0.1-3.1c-0.5-1.1-1-2.2-1.6-3.3c-0.6-1.1-1.1-2.1-1.6-3.1c-1.1-2-2.1-3.7-2.9-5.1
		s-1.6-2.6-2.1-3.4L58.6,350.4z"/>
	<path class="st4" d="M133.8,337.8c-1.7-0.9-3.8-0.2-4.7,1.5c-0.2,0.4-0.3,0.7-0.4,1.1c-1.9-0.4-3.7,0.7-4.2,2.6
		c-0.4,1.6,0.4,3.1,1.8,3.9c0,0,0.1,0,0.1,0c-1.3,1.4-1.2,3.6,0.3,4.9c1.1,1,2.8,1.2,4.1,0.4c1.1,2,3.6,2.7,5.6,1.6
		c2-1.1,2.7-3.6,1.6-5.6c-0.1-0.1-0.2-0.3-0.3-0.4c2.1-1,3.1-3.6,2-5.7c-0.8-1.7-2.5-2.6-4.4-2.4
		C135.2,338.9,134.6,338.2,133.8,337.8z"/>
	<path class="st5" d="M132.5,339.8c-1.4-0.7-3-0.2-3.7,1.2c-0.1,0.3-0.2,0.6-0.3,0.9c-1.5-0.3-3,0.6-3.3,2.1
		c-0.3,1.2,0.3,2.5,1.4,3.1c0,0,0.1,0,0.1,0c-1,1.1-0.9,2.9,0.2,3.9c0.9,0.8,2.2,0.9,3.2,0.3c0.9,1.6,2.9,2.2,4.5,1.3
		c1.6-0.9,2.2-2.9,1.3-4.5c-0.1-0.1-0.1-0.2-0.2-0.4c1.7-0.8,2.4-2.9,1.6-4.6c-0.6-1.3-2-2.1-3.5-1.9
		C133.6,340.7,133.1,340.1,132.5,339.8z"/>
	<path d="M136.5,347.1l0.1,0.1l0.2,0.1l0.2,0.1c0.2,0.1,0.4,0.3,0.6,0.4c0.2,0.2,0.4,0.5,0.6,0.7c1,1.6,0.6,3.8-0.9,4.9
		c-0.8,0.6-1.8,1-2.8,1c-1.4,0-2.7-0.7-3.5-1.8c-0.1-0.1-0.2-0.2-0.2-0.4l-0.1-0.1l0.1,0.1c0.1,0.1,0.1,0.2,0.3,0.3
		c0.3,0.4,0.8,0.7,1.2,1c0.7,0.4,1.4,0.6,2.2,0.6c1,0,1.9-0.4,2.6-1c0.7-0.6,1.2-1.4,1.4-2.4c0.1-0.8-0.1-1.6-0.4-2.2
		c-0.1-0.3-0.3-0.5-0.5-0.7c-0.2-0.2-0.3-0.3-0.5-0.5l-0.2-0.1l-0.2-0.1L136.5,347.1z"/>
	<path d="M133.8,340.4l0.1-0.1c0.1-0.1,0.2-0.1,0.3-0.2c0.4-0.2,0.9-0.3,1.4-0.4c0.7-0.1,1.5,0.1,2.1,0.3c1.7,0.8,2.7,2.6,2.5,4.4
		c-0.1,0.7-0.4,1.4-0.8,2c-0.3,0.4-0.6,0.7-1.1,1c-0.1,0.1-0.2,0.1-0.3,0.2l-0.1,0.1l0.1-0.1c0.1-0.1,0.2-0.1,0.3-0.2
		c0.4-0.3,0.7-0.6,1-1c0.4-0.6,0.6-1.2,0.7-1.9c0.1-1.7-0.8-3.4-2.3-4.1c-1.1-0.5-2.3-0.6-3.4-0.2c-0.2,0.1-0.3,0.1-0.4,0.2
		L133.8,340.4z"/>
	<path d="M128.8,340.3L128.8,340.3c0-0.2,0-0.3,0-0.4c0-0.3,0.1-0.7,0.3-1c0.2-0.4,0.6-0.8,1-1.1c0.2-0.2,0.5-0.3,0.8-0.4
		c0.3-0.1,0.6-0.2,0.9-0.2c0.6-0.1,1.2,0.1,1.8,0.3c0.5,0.2,0.9,0.5,1.2,0.9c0.2,0.2,0.4,0.5,0.5,0.8c0.1,0.1,0.1,0.2,0.1,0.2l0,0.1
		l0-0.1c0-0.1-0.1-0.1-0.1-0.2c-0.2-0.3-0.4-0.5-0.6-0.7c-0.3-0.3-0.7-0.6-1.2-0.7c-0.5-0.2-1.1-0.3-1.7-0.2c-0.3,0-0.6,0.1-0.9,0.2
		c-0.3,0.1-0.5,0.2-0.7,0.3c-0.4,0.2-0.7,0.6-1,1c-0.2,0.3-0.3,0.6-0.4,0.9C128.9,340.1,128.9,340.2,128.8,340.3L128.8,340.3z"/>
	<path d="M129.6,340.5l-0.1,0c-0.1,0-0.2-0.1-0.3-0.1c-0.4-0.1-0.8-0.1-1.3,0c-0.6,0.1-1.2,0.3-1.7,0.7c-1.2,0.9-1.7,2.5-1.3,4
		c0.3,1,1.1,1.8,2,2.2c0.1,0,0.2,0.1,0.3,0.1l0.1,0l-0.1,0c-0.1,0-0.2-0.1-0.3-0.1c-0.4-0.1-0.8-0.4-1.1-0.6c-0.5-0.4-0.9-1-1.1-1.6
		c-0.6-1.6,0-3.3,1.4-4.3c0.5-0.4,1.2-0.6,1.8-0.6c0.4,0,0.9,0,1.3,0.1c0.1,0,0.2,0.1,0.3,0.1L129.6,340.5z"/>
	<path d="M131.9,351.4c0,0-0.1,0.1-0.3,0.3c-0.3,0.2-0.6,0.4-1,0.6c-0.5,0.3-1.1,0.4-1.7,0.5c-0.7,0-1.5-0.2-2.1-0.6
		c-0.3-0.2-0.6-0.5-0.7-0.9c-0.2-0.3-0.3-0.6-0.4-1c-0.1-0.3-0.1-0.6-0.1-1c0-0.3,0.1-0.6,0.2-0.8c0.2-0.5,0.4-0.8,0.5-1.1
		s0.2-0.4,0.2-0.4s0,0.1-0.1,0.4s-0.2,0.6-0.4,1.1c-0.1,0.3-0.1,0.5-0.1,0.8c0,0.3,0.1,0.6,0.1,0.9c0.1,0.3,0.2,0.6,0.4,0.9
		c0.2,0.3,0.4,0.6,0.7,0.8c0.6,0.4,1.2,0.6,1.9,0.6c0.6,0,1.1-0.1,1.6-0.4c0.4-0.1,0.7-0.3,1-0.5
		C131.8,351.5,131.9,351.4,131.9,351.4z"/>
	<path d="M123.7,364.9c0.5-2.8,1.9-5.2,4.1-7C127.3,360.6,125.9,363.1,123.7,364.9z"/>
	<path d="M128.2,352.4c-0.8,3.2-2.6,6.1-5.1,8.3C123.9,357.5,125.7,354.6,128.2,352.4z"/>
	<path class="st4" d="M73.1,340.5c1.7-0.9,3.8-0.2,4.7,1.5c0.2,0.4,0.3,0.7,0.4,1.1c1.9-0.4,3.7,0.7,4.2,2.6
		c0.4,1.6-0.4,3.2-1.8,3.9c0,0-0.1,0-0.1,0c0.2,0.2,0.4,0.5,0.5,0.7c0.9,1.7,0.2,3.8-1.5,4.7c-1,0.5-2.3,0.5-3.3-0.1
		c-1.1,2-3.6,2.7-5.6,1.6c-2-1.1-2.7-3.6-1.6-5.6c0.1-0.2,0.2-0.3,0.3-0.4c-2.1-1-3.1-3.6-2-5.7c0.8-1.7,2.5-2.6,4.4-2.4
		C71.7,341.7,72.3,341,73.1,340.5z"/>
	<path class="st5" d="M74.5,342.5c1.4-0.7,3-0.2,3.7,1.2c0.1,0.3,0.2,0.6,0.3,0.9c1.5-0.4,3,0.6,3.3,2.1c0.3,1.3-0.3,2.5-1.5,3.1
		c0,0-0.1,0-0.1,0c1,1.1,0.9,2.9-0.2,3.9c-0.9,0.8-2.2,0.9-3.2,0.3c-0.9,1.6-2.9,2.2-4.5,1.3c-1.6-0.9-2.2-2.9-1.3-4.5
		c0.1-0.1,0.1-0.2,0.2-0.4c-1.7-0.8-2.4-2.9-1.6-4.6c0.6-1.3,2-2.1,3.5-1.9C73.4,343.4,73.9,342.9,74.5,342.5z"/>
	<path d="M70.4,349.9l-0.1,0.1l-0.2,0.1l-0.2,0.1c-0.2,0.1-0.4,0.3-0.6,0.4c-0.2,0.2-0.4,0.5-0.6,0.7c-1,1.6-0.6,3.8,0.9,4.9
		c0.8,0.6,1.8,1,2.8,1c1.4,0,2.7-0.7,3.5-1.8c0.1-0.1,0.2-0.2,0.2-0.4l0.1-0.1l-0.1,0.1c-0.1,0.1-0.1,0.2-0.3,0.3
		c-0.3,0.4-0.8,0.7-1.2,1c-0.7,0.4-1.4,0.6-2.2,0.6c-1,0-1.9-0.4-2.6-1c-0.7-0.6-1.2-1.4-1.4-2.4c-0.1-0.8,0.1-1.6,0.4-2.2
		c0.1-0.3,0.3-0.5,0.5-0.7c0.2-0.2,0.3-0.3,0.5-0.5l0.2-0.1l0.2-0.1L70.4,349.9z"/>
	<path d="M73.1,343.1L73,343c-0.1-0.1-0.2-0.1-0.3-0.2c-0.4-0.2-0.9-0.3-1.4-0.4c-0.7-0.1-1.5,0.1-2.1,0.3c-1.7,0.8-2.7,2.6-2.5,4.4
		c0.1,0.7,0.4,1.4,0.8,2c0.3,0.4,0.6,0.7,1.1,1c0.1,0.1,0.2,0.1,0.3,0.2l0.1,0.1l-0.1-0.1c-0.1-0.1-0.2-0.1-0.3-0.2
		c-0.4-0.3-0.7-0.6-1-1c-0.4-0.6-0.6-1.2-0.7-1.9c-0.1-1.7,0.8-3.4,2.3-4.1c1.1-0.5,2.3-0.6,3.4-0.2c0.1,0,0.2,0.1,0.4,0.2
		L73.1,343.1z"/>
	<path d="M78.1,343.1L78.1,343.1c0-0.2,0-0.3,0-0.4c0-0.3-0.1-0.7-0.3-1c-0.2-0.4-0.6-0.8-1-1.1c-0.2-0.2-0.5-0.3-0.8-0.4
		c-0.3-0.1-0.6-0.2-0.9-0.2c-0.6-0.1-1.2,0.1-1.8,0.3c-0.5,0.2-0.9,0.5-1.2,0.9c-0.2,0.2-0.4,0.5-0.5,0.8c-0.1,0.1-0.1,0.2-0.1,0.2
		l0,0.1l0-0.1c0-0.1,0.1-0.1,0.1-0.2c0.2-0.3,0.4-0.5,0.6-0.7c0.3-0.3,0.7-0.6,1.2-0.7c0.5-0.2,1.1-0.3,1.7-0.2
		c0.3,0,0.6,0.1,0.9,0.2c0.3,0.1,0.5,0.2,0.7,0.3c0.4,0.2,0.7,0.6,1,1c0.2,0.3,0.3,0.6,0.4,0.9C78.1,342.8,78.1,342.9,78.1,343.1
		L78.1,343.1z"/>
	<path d="M77.4,343.3l0.1,0c0.1,0,0.2-0.1,0.3-0.1c0.4-0.1,0.8-0.1,1.3,0c0.6,0.1,1.2,0.3,1.7,0.7c1.2,0.9,1.7,2.5,1.3,4
		c-0.3,1-1.1,1.8-2,2.2c-0.1,0-0.2,0.1-0.3,0.1l-0.1,0l0.1,0c0.1,0,0.2-0.1,0.3-0.1c0.4-0.1,0.8-0.4,1.1-0.6c0.5-0.4,0.9-1,1.1-1.6
		c0.6-1.6,0-3.3-1.4-4.3c-0.5-0.4-1.2-0.6-1.8-0.6c-0.4,0-0.9,0-1.3,0.1c-0.1,0-0.2,0.1-0.3,0.1L77.4,343.3z"/>
	<path d="M75,354.2c0,0,0.1,0.1,0.3,0.3c0.3,0.2,0.6,0.4,1,0.6c0.5,0.3,1.1,0.4,1.7,0.5c0.7,0,1.5-0.2,2.1-0.6
		c0.3-0.2,0.6-0.5,0.7-0.9c0.2-0.3,0.3-0.6,0.4-1c0.1-0.3,0.1-0.6,0.1-0.9c0-0.3-0.1-0.6-0.2-0.8c-0.2-0.5-0.4-0.8-0.5-1.1
		s-0.2-0.4-0.2-0.4s0,0.1,0.1,0.4s0.2,0.6,0.4,1.1c0.1,0.3,0.1,0.5,0.1,0.8c0,0.3-0.1,0.6-0.1,0.9c-0.1,0.3-0.2,0.6-0.4,0.9
		c-0.2,0.3-0.4,0.6-0.7,0.8c-0.6,0.4-1.2,0.6-1.9,0.6c-0.6,0-1.1-0.1-1.6-0.4c-0.4-0.1-0.7-0.3-1-0.5C75.2,354.3,75,354.2,75,354.2z
		"/>
	<path d="M78.8,355.1c0.8,3.2,2.6,6.1,5.1,8.3C83.1,360.3,81.3,357.3,78.8,355.1z"/>
	<path d="M80.6,351.9c0.7,3.6,2.4,7,4.9,9.8C84.8,358,83.1,354.6,80.6,351.9z"/>
	<path class="st4" d="M61.4,426.9c-2-1.2-2.6-3.8-1.5-5.8c0.2-0.4,0.6-0.8,0.9-1.1c-1.6-1.6-1.6-4.3,0-6c1.4-1.4,3.5-1.6,5.1-0.6
		c0,0,0.1,0.1,0.1,0.1c0.7-2.2,3-3.5,5.2-2.9c1.7,0.5,3,2.1,3,3.9c2.8-0.2,5.1,1.9,5.3,4.7c0.2,2.8-1.9,5.1-4.7,5.3
		c-0.2,0-0.4,0-0.7,0c0.3,2.8-1.7,5.4-4.6,5.8c-2.2,0.3-4.3-0.9-5.3-2.9C63.4,427.6,62.3,427.4,61.4,426.9z"/>
	<path class="st5" d="M62.6,424.2c-1.6-1-2.1-3-1.2-4.6c0.2-0.3,0.5-0.6,0.8-0.9c-1.3-1.3-1.3-3.5,0-4.8c1.1-1.1,2.8-1.3,4.1-0.5
		c0,0,0.1,0,0.1,0.1c0.5-1.8,2.4-2.8,4.2-2.3c1.4,0.4,2.4,1.7,2.4,3.1c2.2-0.1,4.1,1.5,4.2,3.8s-1.5,4.1-3.8,4.2c-0.2,0-0.4,0-0.5,0
		c0.3,2.3-1.4,4.3-3.7,4.6c-1.8,0.2-3.5-0.7-4.2-2.3C64.2,424.8,63.3,424.6,62.6,424.2z"/>
	<path d="M72.7,423.7l0.2,0.1l0.2,0.1l0.3,0.1c0.3,0.1,0.5,0.2,0.8,0.3c0.4,0.1,0.7,0.1,1.1,0.1c1,0,2-0.3,2.8-0.9
		c1-0.8,1.6-1.9,1.7-3.1c0.2-1.2-0.1-2.5-0.8-3.5c-0.9-1.4-2.4-2.3-4.1-2.4c-0.2,0-0.4,0-0.5,0l-0.2,0l0.2,0c0.1,0,0.3,0,0.5,0.1
		c0.6,0.1,1.2,0.3,1.8,0.6c0.8,0.5,1.5,1.1,2,1.9c0.6,1,0.8,2.1,0.7,3.3c-0.1,1.1-0.7,2.2-1.6,2.9c-0.7,0.6-1.6,0.9-2.6,1
		c-0.4,0-0.7,0-1.1-0.1c-0.3-0.1-0.5-0.1-0.8-0.2l-0.3-0.1l-0.2-0.1L72.7,423.7z"/>
	<path d="M64,425.2v0.2c0,0.2,0,0.3,0,0.5c0.1,0.6,0.2,1.1,0.5,1.7c0.4,0.8,1,1.5,1.7,2c1.9,1.2,4.3,1.1,6.1-0.3
		c0.7-0.6,1.2-1.3,1.5-2.1c0.2-0.5,0.3-1.1,0.3-1.7c0-0.2,0-0.3,0-0.5l0-0.2v0.2c0,0.2,0,0.3,0,0.5c-0.2,1.4-0.9,2.7-2,3.6
		c-1.7,1.2-3.9,1.4-5.7,0.3c-1.2-0.8-2-2-2.3-3.4c0-0.2-0.1-0.3-0.1-0.5L64,425.2z"/>
	<path d="M60.8,420.1L60.8,420.1c-0.2,0.1-0.2,0.2-0.4,0.2c-0.3,0.2-0.6,0.5-0.8,0.9c-0.3,0.5-0.5,1.1-0.5,1.7c0,0.4,0,0.7,0.1,1.1
		c0.1,0.4,0.2,0.7,0.4,1.1c0.3,0.7,0.8,1.2,1.5,1.6c0.5,0.3,1.1,0.6,1.7,0.7c0.4,0.1,0.8,0.1,1.2,0c0.1,0,0.2,0,0.3-0.1l0.1,0
		l-0.1,0c-0.1,0-0.2,0-0.3,0c-0.4,0-0.8,0-1.2-0.2c-0.6-0.1-1.1-0.4-1.5-0.7c-0.6-0.4-1-0.9-1.3-1.5c-0.2-0.3-0.3-0.7-0.4-1
		c-0.1-0.3-0.1-0.7-0.1-1c0-0.6,0.1-1.1,0.4-1.6c0.2-0.3,0.4-0.7,0.7-0.9C60.6,420.3,60.7,420.3,60.8,420.1L60.8,420.1z"/>
	<path d="M61.5,420.8l-0.1-0.1c-0.1-0.1-0.2-0.2-0.3-0.3c-0.3-0.4-0.6-0.8-0.8-1.3c-0.3-0.7-0.4-1.4-0.4-2.2
		c0.2-1.8,1.5-3.4,3.3-3.9c1.2-0.3,2.5-0.1,3.6,0.6c0.1,0.1,0.2,0.2,0.3,0.2l0.1,0.1l-0.1-0.1c-0.1-0.1-0.2-0.2-0.3-0.3
		c-0.4-0.3-0.9-0.6-1.4-0.7c-0.7-0.2-1.5-0.3-2.3-0.1c-2,0.4-3.4,2.1-3.5,4.1c0,0.8,0.1,1.6,0.5,2.3c0.2,0.5,0.6,0.9,0.9,1.2
		c0.1,0.1,0.2,0.2,0.3,0.3L61.5,420.8z"/>
	<path d="M74.2,416.2c0,0,0-0.2,0.1-0.5c0-0.5,0-1,0-1.4c-0.1-0.7-0.3-1.4-0.6-2c-0.4-0.8-1.1-1.4-2-1.7c-0.4-0.2-0.9-0.2-1.4-0.2
		c-0.4,0-0.8,0.1-1.3,0.2c-0.4,0.1-0.7,0.3-1,0.5c-0.3,0.2-0.5,0.4-0.7,0.7c-0.4,0.5-0.6,0.9-0.8,1.2s-0.3,0.4-0.3,0.4
		s0.1-0.1,0.3-0.4s0.5-0.7,0.9-1.1c0.2-0.2,0.5-0.4,0.7-0.6c0.3-0.2,0.6-0.3,1-0.4c0.4-0.1,0.8-0.2,1.2-0.2c0.4,0,0.8,0,1.2,0.2
		c0.8,0.3,1.4,0.9,1.8,1.6c0.3,0.6,0.6,1.2,0.7,1.9c0.1,0.5,0.1,0.9,0.1,1.4C74.2,416,74.2,416.2,74.2,416.2z"/>
	<path d="M72.8,411.7c2.8-2.9,4.6-6.6,5.3-10.6C75.3,404,73.4,407.7,72.8,411.7z"/>
	<path d="M68.2,411.9c3.3-3.1,5.6-6.9,6.9-11.2C71.9,403.7,69.5,407.6,68.2,411.9z"/>
	<path class="st4" d="M129.2,429.5c2-1.2,2.7-3.8,1.5-5.8c-0.2-0.4-0.6-0.8-0.9-1.1c1.6-1.7,1.6-4.3,0-6c-1.4-1.4-3.5-1.6-5.1-0.6
		c0,0-0.1,0.1-0.1,0.1c-0.7-2.2-3-3.5-5.2-2.9c-1.7,0.5-3,2.1-3,3.9c-2.8-0.2-5.1,1.9-5.3,4.7c-0.2,2.8,1.9,5.1,4.7,5.3
		c0.2,0,0.5,0,0.7,0c-0.3,2.8,1.7,5.4,4.6,5.8c2.2,0.3,4.3-0.9,5.3-2.9C127.1,430.3,128.2,430.1,129.2,429.5z"/>
	<path class="st5" d="M128,426.8c1.6-1,2.1-3,1.2-4.6c-0.2-0.3-0.5-0.6-0.7-0.9c1.3-1.3,1.3-3.5,0-4.8c-1.1-1.1-2.8-1.3-4.1-0.5
		c0,0-0.1,0-0.1,0.1c-0.5-1.8-2.4-2.8-4.2-2.3c-1.4,0.4-2.4,1.7-2.4,3.1c-2.2-0.1-4.1,1.5-4.2,3.8c-0.1,2.2,1.5,4.1,3.8,4.2
		c0.2,0,0.4,0,0.5,0c-0.3,2.3,1.4,4.3,3.7,4.6c1.8,0.2,3.5-0.7,4.2-2.3C126.4,427.4,127.3,427.3,128,426.8z"/>
	<path d="M117.9,426.3l-0.2,0.1l-0.2,0.1l-0.3,0.1c-0.3,0.1-0.5,0.2-0.8,0.3c-0.4,0.1-0.7,0.1-1.1,0.1c-2.3,0-4.3-1.7-4.5-4
		c-0.2-1.2,0.1-2.5,0.8-3.5c0.9-1.4,2.4-2.3,4.1-2.4c0.2,0,0.4,0,0.5,0l0.2,0l-0.2,0c-0.2,0-0.4,0-0.5,0.1c-0.6,0.1-1.2,0.3-1.8,0.6
		c-0.8,0.5-1.5,1.1-2,1.9c-0.6,1-0.8,2.2-0.7,3.3c0.1,1.1,0.7,2.2,1.6,2.9c0.7,0.6,1.6,0.9,2.6,1c0.4,0,0.7,0,1.1-0.1
		c0.3-0.1,0.5-0.1,0.8-0.2l0.3-0.1l0.2-0.1L117.9,426.3z"/>
	<path d="M126.6,427.9v0.2c0,0.2,0,0.3,0,0.5c-0.1,0.6-0.2,1.1-0.5,1.7c-0.4,0.8-1,1.5-1.7,2c-1.9,1.2-4.3,1.1-6.1-0.3
		c-0.7-0.6-1.2-1.3-1.5-2.1c-0.2-0.5-0.3-1.1-0.3-1.7c0-0.2,0-0.3,0-0.5l0-0.2v0.2c0,0.2,0,0.3,0,0.5c0.2,1.4,0.9,2.7,2,3.6
		c1.7,1.2,3.9,1.4,5.7,0.3c0.7-0.5,1.3-1.1,1.7-1.8c0.3-0.5,0.5-1,0.6-1.6c0-0.2,0.1-0.3,0.1-0.5L126.6,427.9z"/>
	<path d="M129.8,422.8L129.8,422.8c0.2,0.1,0.2,0.2,0.4,0.2c0.3,0.2,0.6,0.5,0.8,0.9c0.3,0.5,0.5,1.1,0.5,1.7c0,0.4,0,0.7-0.1,1.1
		c-0.1,0.4-0.2,0.7-0.4,1.1c-0.3,0.7-0.8,1.2-1.5,1.6c-0.5,0.3-1.1,0.6-1.7,0.7c-0.4,0.1-0.8,0.1-1.2,0c-0.1,0-0.2,0-0.3-0.1l-0.1,0
		l0.1,0c0.1,0,0.2,0,0.3,0c0.4,0,0.8,0,1.2-0.2c0.5-0.1,1.1-0.4,1.5-0.7c0.6-0.4,1-0.9,1.3-1.5c0.2-0.3,0.3-0.7,0.4-1
		c0.1-0.3,0.1-0.7,0.1-1c0-0.6-0.1-1.1-0.4-1.6c-0.2-0.3-0.4-0.7-0.7-0.9C130,423,129.9,422.9,129.8,422.8L129.8,422.8z"/>
	<path d="M129.1,423.4l0.1-0.1c0.1-0.1,0.2-0.2,0.3-0.3c0.3-0.4,0.6-0.8,0.8-1.3c0.3-0.7,0.4-1.4,0.4-2.2c-0.2-1.8-1.5-3.4-3.3-3.9
		c-0.7-0.2-1.5-0.2-2.2,0c-0.5,0.1-1,0.3-1.4,0.6c-0.1,0.1-0.2,0.2-0.3,0.2l-0.1,0.1l0.1-0.1c0.1-0.1,0.2-0.2,0.3-0.3
		c0.4-0.3,0.9-0.6,1.4-0.7c0.7-0.2,1.5-0.3,2.3-0.1c2,0.4,3.4,2.1,3.5,4.1c0,0.8-0.1,1.6-0.5,2.3c-0.2,0.5-0.6,0.9-1,1.2
		c-0.1,0.1-0.2,0.2-0.3,0.3L129.1,423.4z"/>
	<path d="M116.4,418.8c0,0,0-0.2-0.1-0.5c0-0.5,0-1,0-1.4c0.1-0.7,0.3-1.4,0.6-2c0.4-0.8,1.1-1.4,2-1.7c0.4-0.2,0.9-0.2,1.4-0.2
		c0.4,0,0.8,0.1,1.3,0.2c0.4,0.1,0.7,0.3,1,0.5c0.3,0.2,0.5,0.4,0.7,0.7c0.4,0.5,0.6,0.9,0.8,1.2s0.3,0.4,0.3,0.4s-0.1-0.1-0.3-0.4
		s-0.5-0.7-0.9-1.1c-0.2-0.2-0.5-0.4-0.7-0.6c-0.3-0.2-0.6-0.3-1-0.4c-0.4-0.1-0.8-0.2-1.2-0.2c-0.4,0-0.8,0-1.2,0.2
		c-0.8,0.3-1.4,0.9-1.8,1.6c-0.3,0.6-0.6,1.2-0.7,1.9c-0.1,0.5-0.1,0.9-0.1,1.4C116.4,418.7,116.4,418.8,116.4,418.8z"/>
	<path d="M107.8,401.8c2.5,2.3,4.1,5.4,4.6,8.7C109.9,408.3,108.2,405.2,107.8,401.8z"/>
	<path d="M117.8,414.4c-2.8-2.9-4.6-6.6-5.3-10.6C115.3,406.7,117.2,410.4,117.8,414.4z"/>
	<path d="M132,351l-0.3,0.4c-0.3,0.3-0.6,0.6-0.9,0.9c-0.5,0.4-1.1,0.7-1.7,0.9c-0.9,0.2-1.8,0.1-2.6-0.3c-0.8-0.5-1.4-1.3-1.5-2.2
		c-0.1-0.7,0-1.4,0.2-2c0.1-0.4,0.3-0.8,0.5-1.1l0.2-0.4l0,0.5c0,0.3,0,0.7,0,1.2c0,1,0.3,2.3,1.2,2.8c1,0.4,2.2,0.4,3.3,0
		c0.5-0.2,0.9-0.3,1.1-0.4L132,351z"/>
	<path d="M136.4,346.7c0.2,0.1,0.4,0.1,0.6,0.2c0.5,0.3,0.9,0.6,1.3,1.1c1.3,1.6,1.2,4-0.3,5.5c-1.4,1.6-3.8,1.8-5.5,0.6
		c-0.5-0.3-0.9-0.7-1.2-1.2c-0.1-0.2-0.2-0.4-0.3-0.5c0.1,0.1,0.3,0.3,0.4,0.4c0.4,0.3,0.8,0.6,1.3,0.7c0.7,0.2,1.4,0.3,2.1,0.2
		c1.6-0.3,2.8-1.6,3.1-3.3c0.1-0.7,0-1.4-0.3-2c-0.2-0.5-0.5-0.9-0.8-1.3C136.6,347,136.5,346.8,136.4,346.7z"/>
	<path d="M133.5,340.5c0.1-0.1,0.3-0.3,0.4-0.4c0.4-0.3,0.9-0.6,1.4-0.7c0.8-0.2,1.6-0.2,2.4,0c2,0.6,3.3,2.6,3.1,4.7
		c-0.1,0.8-0.4,1.6-0.9,2.2c-0.3,0.4-0.7,0.7-1.2,1c-0.2,0.1-0.3,0.2-0.5,0.2c0.1-0.1,0.2-0.3,0.4-0.4c0.3-0.4,0.5-0.8,0.7-1.2
		c0.9-2.1-0.1-4.6-2.3-5.5c-0.5-0.2-1-0.3-1.6-0.3c-0.5,0-0.9,0.1-1.4,0.2C133.9,340.4,133.7,340.5,133.5,340.5z"/>
	<path d="M128.6,340.5c0-0.1,0-0.3,0-0.4c0-0.4,0.1-0.7,0.2-1.1c0.6-1.9,2.7-2.9,4.5-2.2c0.7,0.2,1.3,0.7,1.7,1.3
		c0.2,0.3,0.4,0.6,0.5,1c0,0.1,0.1,0.3,0.1,0.4l-0.3-0.3c-0.2-0.2-0.5-0.4-0.8-0.6c-1.7-1-3.8-0.7-5.1,0.8c-0.2,0.2-0.4,0.5-0.6,0.8
		L128.6,340.5z"/>
	<path d="M128.5,347.7c-0.2,0-0.4,0-0.5,0c-0.5,0-1-0.1-1.5-0.3c-0.7-0.3-1.4-0.8-1.8-1.4c-0.6-0.8-0.9-1.8-0.8-2.8
		c0.1-1,0.6-2,1.4-2.6c0.6-0.5,1.4-0.7,2.2-0.7c0.7,0,1.4,0.3,1.9,0.7c-0.2-0.1-0.3-0.1-0.5-0.1c-1.7-0.3-3.3,0.9-3.6,2.6
		c0,0.1,0,0.2,0,0.3c-0.1,1.3,0.5,2.6,1.5,3.4c0.4,0.3,0.7,0.5,1.2,0.7C128.2,347.6,128.4,347.6,128.5,347.7z"/>
	<path d="M80,349.6c0.1,0.1,0.3,0.2,0.4,0.3c0.3,0.3,0.6,0.6,0.8,1c0.3,0.6,0.5,1.3,0.5,1.9c0,0.9-0.3,1.7-0.9,2.4
		c-0.3,0.4-0.7,0.7-1.2,0.8c-0.4,0.1-0.9,0.2-1.3,0.2c-0.7-0.1-1.3-0.3-1.9-0.6c-0.4-0.2-0.7-0.5-1-0.8l-0.3-0.3l0.4,0.1
		c0.3,0.1,0.7,0.2,1.2,0.3c1,0.3,2.2,0.1,3-0.7c0.7-0.9,1-2,0.8-3.2c0-0.4-0.1-0.8-0.3-1.1C80.1,349.9,80.1,349.7,80,349.6z"/>
	<path d="M76.9,343.6c0.1-0.1,0.3-0.2,0.4-0.3c0.4-0.3,0.9-0.4,1.4-0.5c0.8-0.1,1.6,0,2.3,0.4c1.8,1,2.6,3.2,1.7,5.1
		c-0.3,0.7-0.9,1.3-1.6,1.6c-0.4,0.2-0.9,0.4-1.4,0.4c-0.2,0-0.3,0-0.5,0c0.2-0.1,0.3-0.1,0.5-0.2c0.4-0.2,0.7-0.5,1-0.8
		c0.4-0.4,0.7-0.9,0.9-1.5c0.3-1.3-0.1-2.7-1.2-3.6c-0.5-0.4-1-0.6-1.6-0.7c-0.4-0.1-0.9-0.1-1.3,0
		C77.3,343.5,77.1,343.5,76.9,343.6z"/>
	<path d="M71.4,342.4c0-0.1,0-0.3,0-0.4c0-0.4,0.1-0.7,0.3-1c0.8-1.7,2.9-2.4,4.6-1.5c0.7,0.3,1.3,0.9,1.6,1.6
		c0.2,0.3,0.2,0.7,0.3,1c0,0.1,0,0.3,0,0.4l-0.2-0.3c-0.2-0.3-0.4-0.5-0.6-0.7c-1.4-1.3-3.5-1.3-5-0.1c-0.2,0.2-0.5,0.4-0.7,0.7
		L71.4,342.4z"/>
	<path d="M69.7,350.7c-0.2,0-0.4,0-0.6-0.1c-0.5-0.1-1-0.3-1.5-0.6c-0.7-0.5-1.2-1.2-1.5-1.9c-0.8-2.1,0.1-4.4,2.1-5.5
		c0.8-0.4,1.6-0.5,2.5-0.4c0.5,0.1,1.1,0.3,1.5,0.5c0.2,0.1,0.3,0.2,0.5,0.3c-0.2-0.1-0.4-0.1-0.5-0.1c-0.5-0.1-1-0.1-1.4,0
		c-0.7,0.1-1.3,0.3-1.8,0.7c-1.3,0.9-1.9,2.5-1.6,4c0.1,0.6,0.4,1.3,0.9,1.8c0.3,0.4,0.7,0.7,1.1,1
		C69.4,350.6,69.5,350.6,69.7,350.7z"/>
	<path d="M75.7,355.1c-0.1,0.2-0.2,0.3-0.3,0.5c-0.3,0.4-0.7,0.8-1.1,1.1c-0.7,0.5-1.5,0.7-2.3,0.8c-1.1,0-2.1-0.4-2.9-1.1
		c-0.8-0.7-1.3-1.7-1.4-2.8c0-0.9,0.3-1.7,0.8-2.4c0.4-0.6,1.1-1,1.8-1.1c-0.2,0.1-0.3,0.2-0.4,0.4c-0.8,0.8-1.2,1.9-1,3
		c0.2,0.7,0.5,1.4,1.1,1.9c1.1,0.9,2.6,1.2,4,0.8c0.5-0.1,0.9-0.4,1.3-0.6C75.4,355.3,75.6,355.2,75.7,355.1z"/>
	<path d="M73,353.4l-0.1,0.2h0c-0.4,0-0.9-0.1-1.2-0.3c-1-0.4-1.9-1.2-2.4-2.1c-0.3-0.6-0.4-1.3-0.4-2c0.1-0.5,0.3-1.1,0.6-1.5
		c0.2-0.3,0.5-0.5,0.8-0.7c0.1-0.1,0.2-0.1,0.3-0.1c-0.1,0.1-0.1,0.2-0.2,0.3c-0.1,0.3-0.3,0.5-0.3,0.8c-0.2,0.9,0,1.7,0.4,2.5
		c0.4,0.8,0.9,1.5,1.6,2.2c0.3,0.3,0.6,0.6,0.8,1h0L73,353.4z"/>
	<path d="M73.5,417l0.2-0.1l0,0c0.2-0.6,0.2-1.2,0.2-1.9c-0.2-2.2-2-3.9-4.1-3.9c-0.6,0-1.3,0.2-1.9,0.5c-0.6,0.3-1.1,0.7-1.5,1.2
		c0-0.2,0.1-0.4,0.2-0.5c0.2-0.5,0.5-0.9,0.9-1.3c0.6-0.6,1.3-0.9,2.1-1.1c2.1-0.4,4.1,0.8,4.9,2.8c0.3,0.8,0.3,1.6,0.2,2.3
		c-0.1,0.5-0.3,1-0.6,1.4c-0.1,0.1-0.2,0.3-0.4,0.4l0,0L73.5,417z"/>
	<path d="M62.5,421c-0.2,0-0.4,0-0.6-0.1c-0.6-0.1-1.2-0.4-1.6-0.8c-2-1.6-2.4-4.5-0.8-6.5c1.2-1.6,3.3-2.2,5.2-1.6
		c0.6,0.2,1.1,0.5,1.6,0.9c0.2,0.1,0.3,0.3,0.4,0.5c-0.2-0.1-0.4-0.2-0.6-0.3c-0.5-0.2-1-0.4-1.6-0.4c-0.8-0.1-1.5,0.1-2.2,0.4
		c-1.6,0.8-2.6,2.6-2.3,4.4c0.1,0.8,0.4,1.5,0.9,2.1c0.3,0.4,0.8,0.8,1.2,1.1C62.2,420.8,62.3,420.9,62.5,421z"/>
	<path d="M71.5,423.1c0.2,0.1,0.4,0.2,0.6,0.3c0.6,0.2,1.2,0.3,1.8,0.3c0.9,0,1.7-0.3,2.4-0.7c1.7-1.1,2.5-3.2,1.9-5.2
		c-0.3-0.8-0.7-1.5-1.4-2.1c-0.5-0.4-1-0.7-1.5-1c-0.2-0.1-0.4-0.2-0.7-0.2l0.2,0c0.2,0,0.4,0,0.5,0c0.7,0.1,1.3,0.3,1.9,0.6
		c2.4,1.3,3.3,4.4,1.9,6.8c-1.1,1.9-3.2,2.9-5.4,2.5c-0.7-0.1-1.3-0.4-1.8-0.8c-0.1-0.1-0.3-0.2-0.4-0.3L71.5,423.1z"/>
	<path d="M72,418.1c0.1,0.1,0.2,0.1,0.3,0.2c0.3,0.2,0.6,0.5,0.8,0.9c0.3,0.5,0.5,1.1,0.5,1.7c0,0.7-0.2,1.4-0.5,2.1
		c-0.3,0.7-0.7,1.2-1.3,1.7c-0.5,0.4-1.1,0.7-1.7,0.7c-0.4,0-0.7-0.1-1.1-0.1l-0.4-0.1c0.1-0.1,0.2-0.1,0.4-0.2
		c0.2-0.1,0.6-0.2,1-0.4c0.4-0.2,0.7-0.5,1-0.8c0.3-0.5,0.6-1,0.8-1.5c0.5-0.9,0.7-1.9,0.7-3c0-0.3-0.1-0.7-0.3-1L72,418.1z"/>
	<path d="M74.2,423.2c0.1,0.2,0.2,0.4,0.3,0.7c0.2,0.7,0.3,1.3,0.2,2c-0.2,2.5-2.1,4.5-4.5,4.9c-1.3,0.3-2.7,0-3.9-0.6
		c-0.9-0.6-1.6-1.5-1.9-2.5c-0.2-0.6-0.3-1.3-0.4-2c0-0.2,0-0.5,0-0.7c0,0,0.1,0.3,0.2,0.7c0.2,0.6,0.5,1.2,0.8,1.7
		c0.4,0.8,1.1,1.4,1.8,1.8c1,0.4,2,0.5,3,0.3c1-0.2,2-0.7,2.7-1.4c0.6-0.6,1.1-1.4,1.4-2.2c0.2-0.6,0.3-1.2,0.3-1.9
		C74.2,423.6,74.2,423.4,74.2,423.2z"/>
	<path d="M64.6,427.1l-0.4,0.1c-0.4,0.1-0.8,0.1-1.1,0.1c-0.6,0-1.2-0.1-1.8-0.3c-1.5-0.6-2.5-2.1-2.5-3.7c0-0.6,0.2-1.2,0.5-1.8
		c0.2-0.3,0.5-0.6,0.8-0.9c0.1-0.1,0.2-0.2,0.4-0.2c0,0-0.1,0.1-0.2,0.4c-0.1,0.3-0.2,0.7-0.3,1c-0.2,1,0,2.1,0.6,2.9
		c0.6,0.9,1.5,1.5,2.5,1.8L64.6,427.1z"/>
	<path d="M124.4,416.1c0-0.1-0.1-0.2-0.1-0.3c-0.1-0.3-0.2-0.5-0.4-0.8c-0.5-0.9-1.5-1.4-2.5-1.5c-1.5-0.1-2.8,0.7-3.6,1.9
		c-0.3,0.4-0.5,0.8-0.9,1.2c-0.4,0.4-1,0.7-1.6,0.9c-0.9,0.2-1.8,0.5-2.5,1.1c-1.4,1.1-2,2.9-1.5,4.5c0.3,1.4,1.3,2.6,2.7,3.2
		c1,0.4,2,0.5,3.1,0.2c0.4-0.1,0.8-0.2,1.1-0.4l-0.3,0.2c-0.2,0.2-0.5,0.3-0.8,0.4c-1.1,0.4-2.2,0.5-3.3,0.2
		c-0.8-0.2-1.5-0.6-2.1-1.1c-0.7-0.6-1.2-1.5-1.5-2.4c-0.3-1-0.4-2.1-0.1-3.2c0.3-1.1,1-2.2,1.9-2.9c0.9-0.7,2-1.1,3.1-1.3
		c0.4,0,0.7-0.2,1-0.4c0.3-0.3,0.6-0.7,0.8-1c0.6-0.8,1.4-1.3,2.2-1.7c0.8-0.3,1.6-0.4,2.5-0.2c1.2,0.3,2.1,1.1,2.6,2.2
		c0.1,0.3,0.2,0.6,0.2,0.9C124.4,415.9,124.4,416,124.4,416.1z"/>
	<path d="M127.2,424.3l0.2-0.1c0.2,0,0.3-0.1,0.5-0.2c0.5-0.2,1-0.6,1.5-1c0.6-0.6,1-1.3,1.2-2.1c0.2-0.9,0-1.9-0.5-2.7
		c-0.5-0.8-1.2-1.5-2.1-1.8c-0.8-0.3-1.7-0.3-2.5-0.2c-0.6,0.1-1.2,0.2-1.8,0.3l-0.7,0.2c0,0,0.2-0.1,0.6-0.4
		c0.5-0.3,1.1-0.6,1.7-0.8c0.9-0.4,2-0.5,3-0.3c1.3,0.3,2.4,1.1,3.1,2.3c0.7,1.1,0.8,2.5,0.4,3.8c-0.4,1-1,1.8-1.9,2.3
		c-0.6,0.4-1.2,0.6-1.9,0.6c-0.2,0-0.3,0-0.5,0L127.2,424.3z"/>
	<path d="M126.4,425.4l0.1,0.2c0.1,0.2,0.2,0.3,0.2,0.5c0.3,0.7,0.4,1.4,0.4,2.1c-0.1,3.1-2.6,5.5-5.7,5.4c-2.1-0.1-4.1-1.4-4.9-3.3
		c-0.3-0.7-0.4-1.4-0.4-2.1c0-0.2,0-0.4,0-0.6l0-0.2c0,0.2,0.1,0.5,0.2,0.7c0.2,0.6,0.5,1.2,0.8,1.7c0.5,0.7,1.2,1.3,2.1,1.8
		c2,0.9,4.4,0.4,5.9-1.1c0.6-0.7,1.1-1.5,1.3-2.4c0.2-0.6,0.2-1.3,0.1-1.9C126.5,425.8,126.4,425.6,126.4,425.4z"/>
	<path d="M129.8,422.7c0.1,0,0.3,0,0.4,0.1c0.4,0.2,0.7,0.5,0.9,0.8c0.6,1.2,0.6,2.6,0.1,3.9c-0.5,1.2-1.6,2.1-2.9,2.5
		c-0.4,0.1-0.7,0.2-1.1,0.2c-0.1,0-0.3,0-0.4,0c1.4-0.7,2.5-1.9,3.1-3.3c0.4-0.9,0.6-2,0.6-3c0-0.3-0.1-0.6-0.3-0.9
		C130.1,422.8,130,422.7,129.8,422.7z"/>
	<path d="M122.2,426c-0.1,0.1-0.1,0.2-0.2,0.3c-0.2,0.3-0.4,0.5-0.7,0.7c-1.6,1.2-3.8,0.8-4.9-0.8c-0.3-0.4-0.5-0.8-0.6-1.3
		c-0.1-0.3-0.1-0.7-0.1-1c0-0.1,0-0.2,0.1-0.4c0.2,0.4,0.4,0.7,0.7,1c1.1,1.4,2.9,2,4.6,1.7C121.5,426.3,121.9,426.2,122.2,426z"/>
	<text transform="matrix(0.7961 0.6051 -0.6051 0.7961 107.2343 390.172)" class="st6 st7">G</text>
	<text transform="matrix(0.6141 -0.7892 0.7892 0.6141 50.7574 411.0209)" class="st6 st8">b</text>
	<text transform="matrix(1 0 0 1 58.093 398.5911)" class="st6 st9">an</text>
	<text transform="matrix(0.9803 0.1976 -0.1976 0.9803 136.6311 412.292)" class="st6 st10">!</text>
	<text transform="matrix(0.7961 0.6051 -0.6051 0.7961 107.9014 384.5061)" class="st11 st6 st7">G</text>
	<text transform="matrix(0.7961 0.6051 -0.6051 0.7961 107.9014 384.5061)" class="st12 st6 st7">G</text>
	<text transform="matrix(0.6141 -0.7892 0.7892 0.6141 51.4242 405.3539)" class="st11 st6 st8">b</text>
	<text transform="matrix(0.6141 -0.7892 0.7892 0.6141 51.4242 405.3539)" class="st13 st6 st8">b</text>
	<text transform="matrix(1 0 0 1 58.76 392.925)" class="st11 st6 st9">an</text>
	<text transform="matrix(1 0 0 1 58.76 392.925)" class="st14 st6 st9">an</text>
	<text transform="matrix(0.9803 0.1976 -0.1976 0.9803 137.2971 406.626)" class="st11 st6 st10">!</text>
	<text transform="matrix(0.9803 0.1976 -0.1976 0.9803 137.2971 406.626)" class="st14 st6 st10">!</text>
</g>
</svg>
