<?xml version="1.0" encoding="utf-8"?>
<!-- Generator: Adobe Illustrator 24.1.0, SVG Export Plug-In . SVG Version: 6.00 Build 0)  -->
<svg version="1.1" id="Laag_1" xmlns="http://www.w3.org/2000/svg" xmlns:xlink="http://www.w3.org/1999/xlink" x="0px" y="0px"
	 viewBox="0 0 18 17" style="enable-background:new 0 0 18 17;" xml:space="preserve">
<style type="text/css">
	.st0{fill:#C0392B;}
	.st1{fill:#E74C3C;}
</style>
<g transform="translate(-3 -1032.4)">
	<path class="st0" d="M8.5,1032.4c-3,0-5.5,2.5-5.5,5.5c0,1.5,0.6,2.9,1.6,3.9c0.1,0.2,0.3,0.3,0.4,0.5l7,7.1l7-7.1l0.3-0.4
		c2.2-2.1,2.2-5.7,0.1-7.8c-1-1-2.4-1.6-3.9-1.7c-1.3,0-2.5,0.4-3.5,1.2C11,1032.8,9.8,1032.4,8.5,1032.4z"/>
	<path class="st1" d="M8.9,1033.4c-2.7,0-4.9,2.2-4.9,4.8c0,1.3,0.5,2.5,1.4,3.5c0.1,0.2,0.2,0.3,0.4,0.4l6.2,6.3l6.2-6.3l0.3-0.3
		c1.9-1.9,2-5,0.1-6.9c-1.8-1.8-4.7-2-6.7-0.4C11.1,1033.8,10,1033.4,8.9,1033.4z"/>
</g>
</svg>
