<svg xmlns="http://www.w3.org/2000/svg" xmlns:xlink="http://www.w3.org/1999/xlink" viewBox="0 0 112.98 151.83"><defs><style>.cls-1{isolation:isolate;}.cls-2{fill:#efc7b0;}.cls-10,.cls-3{fill:#fbd4b8;}.cls-4,.cls-8{fill:#f9b38f;}.cls-4,.cls-5,.cls-7{opacity:0.4;}.cls-4,.cls-7{mix-blend-mode:multiply;}.cls-10,.cls-5,.cls-6{mix-blend-mode:screen;}.cls-5{fill:url(#linear-gradient);}.cls-6{fill:#ea9398;opacity:0.7;}.cls-9{fill:#e37e5a;}.cls-10{opacity:0.8;}</style><linearGradient id="linear-gradient" x1="51.1" y1="139.8" x2="74.99" y2="139.8" gradientUnits="userSpaceOnUse"><stop offset="0" stop-color="#ffc6a5"/><stop offset="1" stop-color="#f9b09b"/></linearGradient></defs><title>Paper</title><g class="cls-1"><g id="Laag_2" data-name="Laag 2"><g id="Layer_1" data-name="Layer 1"><path class="cls-2" d="M52.88,120.52,49.13,144s-.25,4.75,6,6.25,21.25,1.75,31-1.5c0,0,3-1.75,3-3.5,0,0-1.5-25.5-2.25-25.25S52.88,120.52,52.88,120.52Z"/><path class="cls-3" d="M52.88,120.52,49.13,144s-.25,4.75,6,6.25,21.25,1.75,31-1.5c0,0,3-1.75,3-3.5,0,0-1.5-25.5-2.25-25.25S52.88,120.52,52.88,120.52Z"/><path class="cls-4" d="M86.88,120c-.52.17-17,.35-26.85.44a12.4,12.4,0,0,0,5.7,7.05c3.6,2,7.61,2.22,11.55,3,6.88,1.43,5.63-18.7,5.92,15.08A6.22,6.22,0,0,1,81,150.08a40.9,40.9,0,0,0,5.16-1.31s3-1.75,3-3.5C89.13,145.27,87.63,119.77,86.88,120Z"/><path class="cls-5" d="M69.12,132.6c4,0,5.16,4.34,5.16,4.34s1.33-5.84.33,4.5-17.83,7.33-17.83,7.33c-6.17-1.17-5.67-6.67-5.67-6.67l2.5-6.83s-.08-5.17,2.59-4.83C58.68,130.75,69.12,132.6,69.12,132.6Z"/><path class="cls-6" d="M55,133.85S52.2,136.77,52,143.1C52,143.1,55.78,150,55,133.85Z"/><path class="cls-3" d="M44.18,22.68C41.37,8.18,33.76,5.54,29.81,9.82c-4.81,5.23,2.81,26.68,5,41.78,2.1,14.19,2.84,26.34,2.84,26.34l17.48-8.09S47.49,39.75,44.18,22.68Z"/><path class="cls-3" d="M73,71.06s-.84-13.65-1.45-27.95.24-39.49-4.66-41.93S56.6,2.61,56.63,14.91c0,15.34-.18,51.27-.18,51.27Z"/><path class="cls-3" d="M93.17,6.63c-4.46-3.2-10.36-.24-12.29,11.91-2.42,15.15-8.4,50.58-8.4,50.58l16.12,7.4S89.36,63,91.05,48.76,97.62,9.82,93.17,6.63Z"/><path class="cls-3" d="M111.3,24c-3.82-3.27-9.46-1-12.2,9.9C95.67,47.6,87.35,79.52,87.35,79.52l14.14,8.06S103.27,75.26,106,62.4,115.11,27.32,111.3,24Z"/><path class="cls-3" d="M100.93,72.18c-4.36-5.82-11.5-7.08-11.5-7.08-.38-2.72-3-4.61-7.58-5.48a11,11,0,0,0-7.92,1.57C70.6,64,69.8,53.88,65,53.68c-2.81-.12-6.09,3.76-8.34,7,0,.41,0,.82-.09,1.22-.27,1.82-.74,1.7-1.73,2.09-1.42.55-1.94-1.06-2.75-1.81a7.67,7.67,0,0,0-3.84-1.76c-3.72-.47-9.93,3-10.74,17.73s2.32,31.23,12.71,43,27.11,7.76,27.11,7.76c17.65-2.88,21.89-17.09,23.13-24.34S105.29,78,100.93,72.18Z"/><path class="cls-3" d="M54.53,89.09a11.84,11.84,0,0,0-1.17-1.66c-3.49-4.11-9.2-4.48-13.68-7-7.06-4-10.61-13.71-16.76-18.73C17.79,57.52,2.17,54.83.53,64.08c-.29,1.61,1.83,2.63,2.94,3.3C20.27,77.52,28.12,98,39.93,112.94c3.16,4,12,11.33,16,10.5,6-1.25.69-16.17.79-20.67S56.87,93.1,54.53,89.09Z"/><g class="cls-7"><path class="cls-8" d="M111.3,24c-3.82-3.27-9.46-1-12.2,9.9C97.16,41.66,93.67,55.18,91,65.5a15.14,15.14,0,0,0-1.56-.4,0,0,0,0,0,0,0c.4-4.73.93-10.46,1.63-16.31,1.69-14.21,6.57-38.94,2.12-42.13S82.81,6.39,80.88,18.54C79.18,29.22,75.7,50,73.8,61.28a1.42,1.42,0,0,1-1.37.33c-.28-5.1-.62-11.72-.91-18.5-.61-14.3.24-39.49-4.66-41.93S56.6,2.61,56.63,14.91s-.1,37.64-.15,47.35c-.29,1.43-.76,1.38-1.67,1.74a1.22,1.22,0,0,1-1.13-.06c-2.39-9.62-7.09-28.87-9.5-41.26C41.37,8.18,33.76,5.54,29.81,9.82c-4.81,5.23,2.81,26.68,5,41.78C36.53,63,37.34,73,37.59,76.56c0,.52-.08,1-.11,1.6,0,.25,0,.49,0,.74-5.65-4.55-9.07-12.73-14.53-17.19C17.79,57.52,2.17,54.83.53,64.08c-.29,1.61,1.83,2.63,2.94,3.3C20.27,77.52,28.12,98,39.93,112.94a41.69,41.69,0,0,0,11.23,9.27c10.42,10.51,26.14,6.73,26.14,6.73,17.65-2.88,21.89-17.09,23.13-24.34.93-5.4,3.18-17.53,2.45-25.77.77-4.56,1.83-10.44,3.08-16.43C108.65,49.54,115.11,27.32,111.3,24ZM77.88,49.85c.94-6.64,2.48-13.17,3.56-19.78.45-2.77.79-5.66,1.25-8.52.28-4.05.76-8.35,3.14-11.42,2.62-3.37,6-1.54,5.51,2.53C90.49,19.52,89,26.26,87.62,33S86.16,47,83.73,53.31c-.46,1.19-3.11,8.06-5.47,5.85C76.21,57.24,77.55,52.21,77.88,49.85ZM58,48.17c.38-9.56.17-19.13.37-28.68a69.38,69.38,0,0,1,.42-8.82c.08-3.31.88-6.87,4-7.51,3.5-.7,3.61,6,3.65,7.86.11,5.07.12,10.11.3,15.19.26,7.51.6,15.25-.21,22.74A27.51,27.51,0,0,1,64.44,58c-1,2.14-3.23,3.74-5.18,1.42C57,56.78,57.89,51.34,58,48.17ZM36.88,55.65c-.48-3.77-1.17-7.54-1.78-11.3-.93-5.73-2.4-11.3-3.57-17A28.44,28.44,0,0,1,30,18.93c0-2.06.05-5.88,2.13-7.11l.17-.08a.45.45,0,0,1,.23-.11c1.53-.65,2.93.16,4,1.37,1.85,2,2.43,5.33,2.92,7.9.63,3.35,1.43,6.59,2.3,9.88C43.43,36.93,45,43.1,46.48,49.3c1,4.23,4.26,16.09-2.39,17.63-3.76.87-5.71-1.63-6.41-5.09C37.26,59.79,37.14,57.72,36.88,55.65Zm59,35.88-.33,2.38c-.58,13.19-2.78,27.58-16.47,32.23-6.84,2.31-15.55,2.45-21.83-1.57-4.22-2.7-7.71-6.52-11.27-10q-1.49-1.44-2.88-3c-7.89-7.08-13-16.64-19.14-25.22C19.86,80.74,15.71,74.87,10,70.75c-.73-.54-1.58-1.14-2.41-1.82A11.64,11.64,0,0,1,5.1,67.24c-1.17-1.07-3-3.27-1.71-4.91C5.9,59.1,13,60.6,16,62.09c6.78,3.34,10.84,10,15.19,15.88C36.86,85.58,44.13,90.59,52,95.6l1.28.81c3.1,1.6,6.21,3.17,9.15,4.93,4,2.39,8.26,5.19,10.54,9.21A20.89,20.89,0,0,0,67.3,99c-4.62-4.72-10.48-7.69-15.82-11.47-4-2.8-7.13-6.2-6.43-11.4.6-4.45,4.3-7.53,8.4-8.75A50.94,50.94,0,0,1,74.12,66c5.54.68,11.48,1.65,16.47,4.38C97.17,74,96.3,88,95.83,91.53Zm6.8-39.12a57,57,0,0,1-3.4,9.48c-.52,1.09-1.58,3.36-3,3.57-4.47.63-1.64-6.36-1.19-8.11,1.71-6.6,3.48-13.18,5.19-19.77.12-.45.24-.92.35-1.4A62.4,62.4,0,0,1,102.36,29c.56-1.7,1.3-3.28,3.12-3.84a2.63,2.63,0,0,1,2.79.79c1.69,2.49-.28,6.74-1.16,9.19C105.07,40.72,104.18,46.66,102.63,52.41Z"/></g><g class="cls-7"><path class="cls-8" d="M111.3,24A5.4,5.4,0,0,0,108,22.67c3.49,1,3,6.35,2.22,9-1.91,7-3.88,13.89-5.66,20.88-.93,3.63-1.82,7.29-2.62,11-.53,2.41-.56,5.23-1.74,7.43a.51.51,0,0,1-.79.1c-2.65-2.24-5-4.61-8.35-5.76L91,65.5a15.14,15.14,0,0,0-1.56-.4,0,0,0,0,0,0,0c.4-4.73.93-10.46,1.63-16.31,1.69-14.21,6.57-38.94,2.12-42.13A5.51,5.51,0,0,0,85.93,7a5,5,0,0,1,5.19,0c3.78,2.37,2.25,9.24,1.58,12.7-1.27,6.48-2.18,13.08-2.91,19.64-.48,4.3-.63,8.62-1.11,12.91-.32,2.8-.7,6.15-2.53,8.42-2.54,3.14-6.63,1.45-10.11,1.63a3.5,3.5,0,0,1-2.77-.73,1.22,1.22,0,0,1-.84,0c-.28-5.1-.62-11.72-.91-18.5-.61-14.3.24-39.49-4.66-41.93a5.44,5.44,0,0,0-6,.48,4.09,4.09,0,0,1,4.86.54C68,4.43,68.16,8,68.26,11c.17,5.39.5,10.78.66,16.17.19,6.45.42,12.89.6,19.34A68.16,68.16,0,0,1,69.25,56c-.17,1.56-.52,3.4-1.8,4.47-2.28,1.92-6.22,2.69-9.13,3.11a3.5,3.5,0,0,1-2.22-.32c-.29.41-.7.48-1.29.71a1.22,1.22,0,0,1-1.13-.06c-2.39-9.62-7.09-28.87-9.5-41.26C41.37,8.18,33.76,5.54,29.81,9.82a5.44,5.44,0,0,0-1.16,2.33,5,5,0,0,1,3.56-3c6.71-1.06,7.93,9.27,9.16,13.6,3,10.55,5.14,21.27,7.74,31.92.62,2.53,1.35,5.06,1.83,7.63a3.87,3.87,0,0,1-.71,3.14,17.8,17.8,0,0,1-3.1,2.68c.9-.37,1.82-.71,2.7-1.05a47.09,47.09,0,0,1,16.49-3,88.93,88.93,0,0,1,17.59,1.82,26.88,26.88,0,0,1,4,1C99.83,70.22,99.72,85.35,99,95.48c-.48,7.13-1,14.51-3.71,21.2a19.89,19.89,0,0,1-2.3,4.19c4.91-5.35,6.68-12,7.41-16.27.93-5.4,3.18-17.53,2.45-25.77.77-4.56,1.83-10.44,3.08-16.43C108.65,49.54,115.11,27.32,111.3,24Z"/><path class="cls-8" d="M50,89.29c-4.24-2.82-8-6.46-10.11-11.2A63.21,63.21,0,0,1,36.8,67.4c.42,4.18.67,7.43.79,9.16,0,.52-.08,1-.11,1.6,0,.25,0,.49,0,.74-5.65-4.55-9.07-12.73-14.53-17.19C17.81,57.55,2.35,54.87.56,63.93a5.47,5.47,0,0,1,.91-1.71c2-2.55,5.89-3.42,8.94-3.34,10.23.3,17.19,10.61,22.69,18,3.84,5.17,7.8,10.73,13.29,14.3s12,5.52,17.5,9.27a33.79,33.79,0,0,1,6.77,5.94C66.77,98.47,57.17,94,50,89.29Z"/><path class="cls-8" d="M51.34,95.15l.7.45,1.28.81c3.1,1.6,6.21,3.17,9.15,4.93a49.48,49.48,0,0,1,5.89,4,35.09,35.09,0,0,0-7.87-5.76C57.53,97.92,54.39,96.63,51.34,95.15Z"/></g><path class="cls-9" d="M63.35,98.19c-3.92-2.52-8.22-4.66-12.37-6.78a29.45,29.45,0,0,1-5.91-3.92c-1.78-1.53-3.92-3.09-4.92-5.26,0,0-.11,0-.1.07,1.19,3.19,4.8,6.27,7.55,8.14,3.59,2.42,7.78,4.15,11.55,6.3,4.05,2.3,7.8,4.59,10.59,8.41,2.63,3.6,4.83,8.47,3.79,13,0,.07.13,0,.14-.07C75.92,110.38,69.36,102.07,63.35,98.19Z"/><path class="cls-10" d="M58.64,122.86c-11.42-6.64-19.73-17.47-26.84-28.38-1.81-2.79-3.54-5.62-5.55-8.27-1-1.27-1.69-2.72-2.62-4-1.05-1.47-2.35-2.8-3.44-4.24a42.63,42.63,0,0,0-6.58-6.78c-2.11-1.77-4.56-4-7.12-5,0,0-.13.07-.09.09,2.55,1.55,4.88,4.1,7.06,6.12a54.49,54.49,0,0,1,6.44,7.06C24,84.79,27.77,90.29,31.47,96c6.85,10.52,15.84,21,27,27C58.56,123,58.71,122.9,58.64,122.86Z"/><path class="cls-10" d="M37,45.92c-.58-3.68-1.31-7.34-2.13-11s-1.42-7-2.09-10.52A44.51,44.51,0,0,1,31.5,13.9s-.1,0-.11.06c-.94,6.84,1.15,13.92,2.51,20.59.73,3.62,1.54,7.23,2.29,10.84.37,1.75.78,3.48,1.1,5.23a36,36,0,0,0,1,4.61c0,.05.14,0,.13-.09C37.67,52.15,37.43,49,37,45.92Z"/><path class="cls-10" d="M61.38,4.72c-2,6-2,12.17-2.1,18.42-.08,7.14,0,14.35.45,21.48,0,.07.19,0,.19-.12,0-6.62,0-13.24.08-19.86s.07-13.46,1.52-20C61.53,4.58,61.39,4.68,61.38,4.72Z"/><path class="cls-10" d="M86,12c-1.68,4-2.1,8.18-2.83,12.42-.83,4.81-1.42,9.65-2.08,14.49,0,.1.19,0,.2-.09C82.09,34.16,83,29.58,83.8,25c.75-4.35.93-8.87,2.34-13.07C86.16,11.85,86,11.92,86,12Z"/><path class="cls-10" d="M105.54,25.92c-3.62,4.22-4.71,10.62-5.82,15.94,0,.11.19,0,.21-.1.76-2.72,1.61-5.32,2.59-8s1.45-5.48,3.1-7.85C105.68,25.86,105.57,25.89,105.54,25.92Z"/><path class="cls-10" d="M87,69.52c-8.38-2.93-17.89-2.88-26.63-2.25,0,0-.11.08-.06.08a145.86,145.86,0,0,1,26.38,2.5C86.79,69.87,87.13,69.58,87,69.52Z"/><path class="cls-9" d="M92.2,65.78a64.31,64.31,0,0,0-19.61-3.72A89.13,89.13,0,0,0,60,63c-3.18.41-6.09,1.33-9.17,2,0,0-.08.07,0,.06,3-.54,5.88-1.35,8.93-1.72a116,116,0,0,1,11.62-.84c7.55-.14,16,2.43,23.21,4.7C93.76,66.69,93,66.23,92.2,65.78Z"/><path class="cls-10" d="M93.13,107.39s-3.34,15.84-18,18.34C75.13,125.73,86.63,122.89,93.13,107.39Z"/><path class="cls-9" d="M67,151.83h0a56.48,56.48,0,0,1-12-1.08c-6.58-1.57-6.39-6.71-6.39-6.76l3.53-20.17c-.48-.42-.91-.81-1.3-1.2a42.5,42.5,0,0,1-11.32-9.37A178.54,178.54,0,0,1,28.75,97.36c-7-11.2-14.33-22.79-25.54-29.56l-.37-.22C1.59,66.86-.28,65.78,0,64c.74-4.21,4.47-6.63,10.21-6.63,4.71,0,10.17,1.67,13,4s5,5.44,7.2,8.53a47.41,47.41,0,0,0,6.55,8c0-.46.07-.91.1-1.35C36.83,72.86,36,63,34.36,51.68c-.69-4.68-1.92-10-3.1-15.2-2.73-11.93-5.31-23.2-1.82-27a5.9,5.9,0,0,1,4.38-2c3.83,0,8.69,4,10.85,15.13,2.36,12.12,6.9,30.78,9.44,41a.8.8,0,0,0,.52,0L55,63.4c.63-.22.8-.28,1-1.23,0-10.11.18-35.15.14-47.26,0-7.71,2-11.36,3.71-13.06A6,6,0,0,1,67.08.73c3.84,1.91,4.36,14.52,4.68,32.12.07,3.71.13,7.21.26,10.24.29,6.89.64,13.56.88,18.08a1.08,1.08,0,0,0,.44-.18c1.92-11.4,5.34-31.87,7-42.53C81.73,10,85.22,4.93,89.72,4.93a6.48,6.48,0,0,1,3.74,1.29c3.48,2.5,2,15-.53,32.44-.53,3.67-1,7.15-1.38,10.16C91,53.71,90.43,59.05,90,64.7l.68.18c2.61-10.08,6.07-23.46,8-31.06,1.83-7.3,5.28-11.66,9.22-11.66a5.84,5.84,0,0,1,3.79,1.5c3,2.58.62,13.93-3.08,29.67-.78,3.32-1.52,6.45-2.09,9.17-1,5-2.08,10.53-3.07,16.35.67,7.8-1.24,18.83-2.27,24.77l-.18,1.07c-1.65,9.6-6.16,16.86-13,21a191,191,0,0,0,1.73,19.56c0,2-2.91,3.75-3.24,3.94l-.1,0C79.54,151.49,71.31,151.83,67,151.83ZM10.25,58.36c-3.06,0-8.33.75-9.23,5.81-.19,1.09,1.26,1.93,2.32,2.55l.39.23C15.14,73.84,22.49,85.53,29.6,96.83a177.22,177.22,0,0,0,10.73,15.8,40.77,40.77,0,0,0,11.06,9.13l.12.1c.44.43.92.88,1.49,1.36a.51.51,0,0,1,.18.41l-3.55,20.42c0,.17-.12,4.35,5.62,5.73A55.69,55.69,0,0,0,67,150.83c4.23,0,12.3-.33,18.92-2.52.79-.47,2.7-1.87,2.7-3,0-.36-1-5.72-1.75-19.82a.52.52,0,0,1,.25-.46c6.76-4,11.19-11,12.81-20.47l.19-1.07c1-5.91,2.93-16.91,2.25-24.57a.57.57,0,0,1,0-.13c1-5.86,2-11.39,3.08-16.45.58-2.74,1.31-5.87,2.09-9.19,2.61-11.1,6.18-26.3,3.41-28.69a4.81,4.81,0,0,0-3.14-1.26c-3.45,0-6.54,4.08-8.25,10.91-1.94,7.73-5.48,21.43-8.1,31.56a.57.57,0,0,1-.24.31.48.48,0,0,1-.39,0,14,14,0,0,0-1.51-.39.48.48,0,0,1-.4-.41.43.43,0,0,1,0-.16c.48-5.81,1-11.3,1.62-16.32.36-3,.86-6.5,1.39-10.19,1.87-13,4.19-29.14.94-31.48a5.41,5.41,0,0,0-3.16-1.1c-3.06,0-6.86,3.33-8.35,12.68C79.66,29.34,76.2,50,74.3,61.37a.56.56,0,0,1-.19.31,1.94,1.94,0,0,1-1.84.41.5.5,0,0,1-.34-.45c-.25-4.52-.61-11.4-.91-18.51-.13-3-.19-6.55-.26-10.26-.24-13.13-.53-29.46-4.12-31.24a5,5,0,0,0-6.09.92c-2.22,2.23-3.43,6.61-3.42,12.35C57.17,27,57,52.06,57,62.27c-.3,1.53-.82,1.78-1.65,2.07l-.34.12a1.72,1.72,0,0,1-1.55-.08.49.49,0,0,1-.24-.32c-2.53-10.16-7.13-29-9.51-41.28-2-10.57-6.6-14.32-9.87-14.32a4.89,4.89,0,0,0-3.64,1.7c-3.14,3.41-.5,15,2,26.1,1.19,5.19,2.42,10.56,3.12,15.27,1.67,11.31,2.47,21.24,2.74,25,0,.59-.08,1.12-.11,1.67,0,.14,0,.27,0,.41v.32a.49.49,0,0,1-.81.37c-2.92-2.35-5.26-5.66-7.52-8.85-2.15-3-4.37-6.18-7-8.34S14.68,58.36,10.25,58.36Z"/></g></g></g></svg>