<?xml version="1.0" encoding="utf-8"?>
<!-- Generator: Adobe Illustrator 24.1.0, SVG Export Plug-In . SVG Version: 6.00 Build 0)  -->
<svg version="1.1" id="Laag_1" xmlns="http://www.w3.org/2000/svg" xmlns:xlink="http://www.w3.org/1999/xlink" x="0px" y="0px"
	 viewBox="0 0 167.3 138.5" style="enable-background:new 0 0 167.3 138.5;" xml:space="preserve">
<style type="text/css">
	.st0{fill-rule:evenodd;clip-rule:evenodd;fill:#0C0C0B;}
	.st1{fill:#F9D134;}
	.st2{fill:#DBAD1D;}
	.st3{fill:#F7DE72;}
	.st4{fill:#F70012;stroke:#050505;stroke-miterlimit:10;}
</style>
<g transform="translate(-177 -27.25)">
	<path class="st0" d="M245.4,40.1c0.6,0.3,0.9,0.6,0.4,1.1C245,42.2,244.1,40.4,245.4,40.1 M256.1,40.8
		C258.5,42,254.9,42.9,256.1,40.8 M267.2,41.7C269.4,43,265.2,43.4,267.2,41.7 M239.5,45.2C242.2,47.1,237,47,239.5,45.2 M250.1,46
		c1,0.1,1.9,1,0.6,1.7C249.4,48,249.6,46.6,250.1,46 M261,46.8C264.6,47.1,259,50,261,46.8 M272.1,47.6c0.3,0.1,1.1,0.3,1.1,0.7
		C272.4,50.1,271.2,49,272.1,47.6 M228.6,44.5c0.6,0.3,0.9,0.7,0.3,1.1C227.9,46.5,227.6,44.8,228.6,44.5 M283.3,48.5
		C285.9,50.4,280.8,49.6,283.3,48.5 M244.6,51c1.1,0.3,1.1,1.4,0.5,2.2C243.6,53.4,242.9,51.4,244.6,51 M255.2,51.8
		c1,0.1,2,0.9,1.2,1.9C255.1,55,253.9,53,255.2,51.8 M266.3,52.6c1.3,0.2,1.5,1.2,0.7,2.2C265.4,54.9,264.8,53.2,266.3,52.6
		 M233.6,50.3c0.8,0.3,1.6,2,0.2,1.9C232.6,52.1,232.6,50.8,233.6,50.3 M277.2,53.5c0.7,0.1,1.6,0.8,0.9,1.6
		C277,56.3,276.2,54.6,277.2,53.5 M288.4,54.5C290.9,56.2,286,56.1,288.4,54.5 M222.5,49.8C224.9,51,221.3,51.9,222.5,49.8
		 M249.4,56.8c1.4,0.3,2.7,2.5,0.6,2.7C248.1,59.8,248,57.4,249.4,56.8 M260.3,57.6c1.3,0.3,2.7,2.2,0.7,2.7
		C259.2,60.8,258.9,58.4,260.3,57.6 M238.5,56.2c1.8,0.4,1.8,2.2,0,2.5C237.3,57.9,237.5,57,238.5,56.2 M271.1,58.5
		c1.2,0.1,2.3,0.8,1.3,2.1C271.2,62.1,269.7,60,271.1,58.5 M282.5,59.5c1.2,0.4,1.1,1.3,0.3,2.2C281.5,61.6,280.8,59.8,282.5,59.5
		 M227.4,55.6c1,0,1.8,0.7,1,1.7C227.7,58.4,226.5,56.7,227.4,55.6 M293.4,60.6c1.1,0.6,0.9,0.9,0.1,1.7
		C292.2,62.1,292.7,61.1,293.4,60.6 M216.6,55.1C219.4,55.7,215.1,57.7,216.6,55.1 M243.9,61.9c1.7,0.6,2.1,3.3-0.1,3.2
		C241.4,65.1,242.6,62.5,243.9,61.9 M254.3,62.6c1.5,0.3,3.2,2,1.1,3.1S252.5,63.7,254.3,62.6 M265.5,63.5c1.6,0.5,2.8,3.1,0.2,3.2
		C263.4,66.8,264.2,64.3,265.5,63.5 M232.7,61.3c1.7,0.4,1.8,1.5,0.8,2.7c-0.8,0.2-1.5-0.2-1.8-1C231.5,62.3,231.9,61.5,232.7,61.3
		 M276.2,64.5c1.3,0,2.7,1.7,1,2.6C275.4,68.2,275,65.5,276.2,64.5 M222,60.8c0.6,0.1,1,0.6,0.9,1.2c0,0.2-0.2,0.5-0.3,0.6
		C221.3,63.6,220.5,61.7,222,60.8 M287.2,65.5c0.8,0.1,1.8,0.7,1.2,1.7C287.5,68.9,285.5,66.8,287.2,65.5 M298.5,66.6
		c1.1,0.6,0.9,0.9,0.1,1.7C297.3,68.2,297.8,67.2,298.5,66.6 M210.8,60.3c0.5,0,0.9,0.4,1,0.8C211,62.4,210.1,61.4,210.8,60.3
		 M248.6,67.7c2.1,0.2,3.2,3.4,0.8,3.8c-1.1,0.2-1.6-0.4-2.3-1.2C247.2,68.8,247.5,68.5,248.6,67.7 M259.4,68.5
		c2.2,0.1,3.4,3.4,0.8,3.7C257.5,72.5,257.6,69.7,259.4,68.5 M237.9,67c1.7,0.3,2.6,2.9,0.5,3.5C235.9,71,236,67.9,237.9,67
		 M270.4,69.4c2,0.1,3.2,3,0.9,3.4C268.7,73.4,268.7,70.5,270.4,69.4 M281.5,70.5c2.3,0.5,1.6,3.6-0.3,2.9
		C279.7,72.8,280.3,70.9,281.5,70.5 M226.7,66.6c1.1,0.2,2.7,1.2,1.3,2.5C226.2,70.6,225.4,68,226.7,66.6 M216.2,66.1
		c0.9,0.7,1.2,2.6-0.4,2C214.5,67.6,215.5,66.4,216.2,66.1 M292.3,71.6c0.8,0.1,1.7,0.6,1.2,1.6C292.7,74.8,290.7,73.1,292.3,71.6
		 M303.6,72.7C306,74.6,301.3,74.3,303.6,72.7 M205.1,65.6c0.8,0.5,1,0.8,0.1,1.4c-0.4,0-0.7-0.3-0.7-0.7
		C204.6,66,204.8,65.7,205.1,65.6 M253.5,73.5c2,0,4.1,2.9,1.5,4.1c-1,0.5-2.2,0.2-2.9-0.6C251.7,75.2,252.2,74.5,253.5,73.5
		 M264.8,74.3c1.9,0.5,3.4,3.4,0.7,4.2C262.3,79.4,262.4,75.4,264.8,74.3 M242.6,72.8c1.2,0.2,2.1,0.3,2.4,1.7
		c0.2,0.9-0.3,1.8-1.1,2.2C241.2,77.9,240.1,73.9,242.6,72.8 M275.6,75.3c2,0.5,2.8,3,0.4,3.8C273.4,78.8,273.8,76.4,275.6,75.3
		 M231.8,72.3c1.8,0.3,3.2,3.1,0.7,3.5C230.1,76.3,230.2,73.3,231.8,72.3 M286.6,76.5c2.1,0.5,1.9,2.5,0,3
		C285.3,78.9,284.8,76.9,286.6,76.5 M220.8,71.8c1.6,0.3,2.1,1.1,1.2,2.6C219.9,74.8,219.4,73.4,220.8,71.8 M297.8,77.7
		c1.2,0.7,1.3,2.2-0.4,2.1C296.5,79.1,296.5,78,297.8,77.7 M210,71.4c1,0.1,1.4,0.8,0.8,1.8C209.4,73.5,208.9,72.5,210,71.4
		 M308.7,78.9c0.8,0.5,0.8,0.7,0.3,1.3C307.9,80.3,307.7,79.3,308.7,78.9 M247.9,78.5c2.4,0.2,3.8,3.7,1.1,4.6
		c-1.3,0.1-2.4,0.2-2.9-1.3C245.4,80,246.6,79.3,247.9,78.5 M258.7,79.3c2.6,0.1,3.9,4,1,4.7C256.3,84.9,256.2,80.6,258.7,79.3
		 M270,80.3c2.2,0.6,3.1,4,0.3,4.5C267.1,85.2,267.5,81.2,270,80.3 M236.8,78c2,0.1,3.8,2.5,1.6,3.9c-0.8,0.6-1.9,0.5-2.6-0.1
		C234.4,80.3,235.6,78.8,236.8,78 M280.7,81.4c1.6,0.4,3.2,2.7,0.9,3.6c-0.8,0.4-1.7,0.1-2.1-0.7c0,0,0-0.1-0.1-0.1
		C278.7,82.8,279.6,82.1,280.7,81.4 M226,77.5c2,0.4,3.1,3.4,0.4,3.5C224,81.1,224.6,78.4,226,77.5 M215.4,77.1
		c1.1,0.5,2,2.1,0.3,2.5C213.9,80.1,213.7,77.4,215.4,77.1 M291.4,82.7c2.2,0.4,2.3,2.4,0.1,2.8C290.1,84.6,290.5,83.7,291.4,82.7
		 M302.6,83.9c1,0.1,1.6,1.3,0.5,1.8C302,85.6,301.3,84.5,302.6,83.9 M204.1,76.8c0.6,0,1.3,0.2,1,1.1
		C204.2,79.3,203.3,78.1,204.1,76.8 M253.1,84.3c3.1,0.3,3.6,4.9,0.4,5.4C249.8,90.2,250.4,85.4,253.1,84.3 M242.3,83.7
		c1.3,0.4,2.1,0.7,2.4,2.2c0.1,1.1-0.5,2.2-1.6,2.6C239.9,89.8,239.2,84.8,242.3,83.7 M263.7,85.2c2.8,0.1,4.1,3.8,1.1,4.9
		C261.3,91.3,260.9,86.7,263.7,85.2 M274.9,86.3c2.5,0.7,3,4.8-0.1,4.5C271.7,90.4,273,87.2,274.9,86.3 M231.1,83.2
		c2.6,0.1,3,2.7,1.1,4.1c-1,0.5-1.8-0.2-2.5-0.8C229.2,84.8,229.6,84.1,231.1,83.2 M285.6,87.6c1.5,0.3,3.3,2.2,1.1,3.3
		C284.5,92.1,283.7,88.8,285.6,87.6 M220,82.9c1.2,0.2,3.2,1.5,1.6,2.9C219.7,87.5,218.1,84.5,220,82.9 M209.5,82.5
		c1,0.4,1.9,2.1,0.2,2.4C208.1,85.2,208,82.8,209.5,82.5 M296.5,88.9c1.3,0.3,2.5,2,0.7,2.4C295.8,91.6,295.2,89.5,296.5,88.9
		 M307.7,90.1C310.7,90.7,305.7,93.1,307.7,90.1 M198.3,82.2C201,82.9,196.9,84.7,198.3,82.2 M247.3,89.5c3.2,0.3,3.7,4.9,0.7,5.5
		C244,95.8,244,90.7,247.3,89.5L247.3,89.5z M258.1,90.3c1.6,0,2.8,1.3,2.8,2.8c0,1.4-1,2.6-2.4,2.8
		C255.1,96.3,254.7,91.6,258.1,90.3L258.1,90.3z M236.4,89c2.6,0.4,3.6,4.3,0.6,4.9C233.6,94.5,233.6,90,236.4,89 M268.7,91.3
		c1.4-0.1,2.6,0.9,2.7,2.2c0.1,1.4-0.9,2.6-2.2,2.7c-0.4,0-0.9,0-1.3-0.2C265.9,94.5,266.9,92.3,268.7,91.3L268.7,91.3z M279.8,92.5
		c1.2,0.3,2,0.4,2.3,1.7c0.2,1-0.4,2.1-1.4,2.3c-0.2,0.1-0.4,0.1-0.7,0C277.3,96.5,278,93.4,279.8,92.5 M225.2,88.6
		c1.7,0.3,3.8,2.7,1.2,3.7c-1,0.3-2,0-2.6-0.8C223.5,90.4,224.1,89.1,225.2,88.6 M290.7,93.8c1.4,0.1,2.8,1.8,1.2,2.9
		C289.9,98.1,288.9,95.1,290.7,93.8 M214.3,88.4c1.6,0.4,2.2,1.2,1.2,2.7C213.5,91.6,212.3,89.6,214.3,88.4 M301.7,95.1
		c0.9,0,1.9,1.1,1,1.9c-0.7,0.6-1.1,0.2-1.7-0.3C300.9,95.9,301.2,95.7,301.7,95.1 M203.4,88.1c1.1,0.1,1.5,0.9,0.9,1.8
		C202.8,90.1,202.3,89.1,203.4,88.1 M313,96.3c0.6,0.3,0.9,0.7,0.3,1.1C312.4,98.2,312,96.6,313,96.3 M252.2,95.4
		c3.7,0.2,3.8,5.2,0.7,5.8C249.3,101.8,248.5,96.9,252.2,95.4L252.2,95.4z M241.4,94.8c3.4,0.3,3.5,5,0.5,5.5
		C238.5,100.7,238,96.1,241.4,94.8L241.4,94.8z M263,96.3c3.6,0.1,3.8,4.9,0.8,5.5C260,102.6,259.9,97.6,263,96.3L263,96.3z
		 M230.6,94.3c3.1,0.3,2.9,3.9,0.3,4.7c-1.1,0-2-0.6-2.3-1.7C228.1,95.7,229.2,95,230.6,94.3 M273.7,97.5c2.7,0.1,4.2,3.9,1,4.7
		c-1,0.2-2-0.2-2.5-1.1C271.4,99.4,272.5,98.3,273.7,97.5 M285.2,98.7c1.8,0.5,2.6,3.3,0.3,3.8C283,103.2,282.7,99.3,285.2,98.7
		 M219.6,94.1c2.2,0.6,2.6,3.7-0.2,3.6C217,97.5,218.2,94.7,219.6,94.1 M295.8,100.1c1.7,0.3,2.2,1.5,0.8,2.7
		C294.8,102.5,294.4,101.3,295.8,100.1 M208.2,93.9c1,0,2.2,0.6,1.5,1.9C208.9,97.4,206.9,95.6,208.2,93.9 M197.7,93.5
		c1.1,0.4,0.9,1.1,0.1,1.7C196.9,94.6,196.8,94.1,197.7,93.5 M306.8,101.4c1.3,0.1,1.6,1.6,0.2,1.8
		C306.2,102.7,306.2,102.2,306.8,101.4 M246.4,100.7c3.4,0.1,4.2,5.3,0.5,5.6c-1.3,0.1-2.5-0.7-2.9-1.9
		C243.6,102.3,244.8,101.4,246.4,100.7 M257.2,101.5c1.6-0.1,2.9,1.2,3,2.8c0,1.4-1,2.7-2.4,2.9C254,107.8,254.1,102.7,257.2,101.5
		L257.2,101.5z M235.8,100.2c3.6,0.5,2.6,6-0.8,4.8C232,103.9,233.6,100.8,235.8,100.2 M267.9,102.5c2.4,0.1,4.8,4,1.7,4.9
		c-1,0.2-2.1,0-2.9-0.7C264.8,105.3,266.5,103.5,267.9,102.5 M279.1,103.7c1.1,0.3,2.1,0.6,2.2,2c0.2,1.1-0.6,2.2-1.8,2.3
		c-0.1,0-0.1,0-0.2,0C276.4,108.1,277.1,104.7,279.1,103.7 M224.6,99.9c2.3,0.2,3.3,3.8,0.7,4.1C222.4,104.3,222.2,100.7,224.6,99.9
		 M290.3,105c1.9,0.6,1.8,2.2,0.5,3.3C288.5,108,288,106.1,290.3,105 M213.7,99.6c2.1,0.5,1.9,2.6,0,3.2c-0.9-0.2-1.4-1.1-1.2-2
		C212.7,100.2,213.1,99.7,213.7,99.6 M202.8,99.3c0.8,0.3,1.6,1.3,0.5,1.9C201.8,102.1,201.7,100.2,202.8,99.3 M300.8,106.4
		c1.5,0.3,1.8,0.9,0.8,2.2C300.1,108.5,299.8,107.6,300.8,106.4 M312,107.6C314.5,108.3,310.5,110.2,312,107.6 M251.3,106.8
		c2.4,0.1,4.2,3.1,2,4.9C250.1,114.4,247.2,108.8,251.3,106.8 M240.6,106.1c3.4,0.2,3.5,4.8,0.6,5.4
		C237.9,112.1,237.2,107.5,240.6,106.1L240.6,106.1z M262,107.7c3.1,0,4.7,4.8,1.1,5.4c-1.2,0.1-2.3-0.5-2.8-1.5
		C259.4,109.7,260.6,108.6,262,107.7 M273.7,108.8c2.3,0.9,3,4.2,0,4.8c-1.2,0.1-2.3-0.8-2.4-2C271.2,109.8,272.2,109.1,273.7,108.8
		 M229.8,105.7c2.7,0.3,3.1,4.2,0.2,4.4c-1.1,0.1-2.1-0.7-2.2-1.8c0,0,0,0,0,0C227.5,107,228.7,106.2,229.8,105.7 M284.4,110.1
		c2.6,0.8,2,4-0.6,3.8C281.9,112.7,282.6,110.7,284.4,110.1 M218.8,105.4c0.9,0.4,2,0.7,1.8,1.9c-0.2,1.1-0.7,1.8-1.8,1.6
		C216.6,108.5,217.1,106,218.8,105.4 M295,111.5c1.4,0.3,2.7,2.3,0.6,2.6C293.7,114.3,293.9,112.4,295,111.5 M207.6,105.2
		c1.6,0.1,2,1.4,0.8,2.5C207.1,107.6,206,105.9,207.6,105.2 M197,104.8C199.6,106.6,194.7,106.4,197,104.8 M306,112.8
		c0.8,0.1,1.8,0.6,0.8,1.5S305.5,113.5,306,112.8 M245.6,112.2c3.8,0.1,3.3,4.6,0.5,5.4C243.5,118.2,242,113.7,245.6,112.2
		L245.6,112.2z M256.3,112.9c3.7,0.1,3.8,4.8,0.9,5.4C253.4,119,253.7,114.3,256.3,112.9L256.3,112.9z M234.9,111.6
		c3,0.3,3,4,0.3,4.8C231.8,116.3,232.4,112.7,234.9,111.6 M267.1,114c1,0,1.9,0.4,2.6,1.1c0.3,1.5,0.4,3.2-1.4,3.7
		c-1.2,0.3-2.4-0.4-2.8-1.6C265.1,115.5,265.8,114.8,267.1,114 M278.2,115.2c1.1,0.3,1.9,0.3,2.2,1.7c0.3,0.9-0.2,1.9-1.2,2.2
		c0,0-0.1,0-0.1,0c-1.3,0.4-1.7-0.3-2.4-1.3C276.8,116.3,276.9,116,278.2,115.2 M223.7,111.3c0.9,0.2,1.5,0.2,2,1.1
		c0.5,0.9,0.2,2-0.7,2.5c-0.3,0.1-0.5,0.2-0.8,0.2C221.8,115,221.9,112.3,223.7,111.3 M289.3,116.5c0.9,0.3,1.5,0.2,1.7,1.3
		c0.2,0.8-0.4,1.6-1.2,1.8c-0.1,0-0.2,0-0.4,0C287.3,119.4,288.2,117.3,289.3,116.5 M212.8,111c1.2,0.3,2.5,1.4,1,2.6
		C212.2,114.9,211,112.3,212.8,111 M300.3,117.8c1.2,0.3,1.6,1.6,0.2,2.2C299.5,119.5,299.1,118.3,300.3,117.8 M201.8,110.7
		C205.5,111.5,199.5,114.1,201.8,110.7 M250.5,118.4c2.6,0.1,4.2,3.8,1.2,4.7c-1,0.3-2.2,0-2.8-0.9
		C247.9,120.4,249.1,119.1,250.5,118.4 M239.7,117.7c3.4,0.2,3.2,5.2-0.2,4.8C236.7,122.2,238,118.5,239.7,117.7 M261.3,119.3
		c3.1,0.1,3.8,4.7,0.5,4.9C258.8,124.3,259.2,120.2,261.3,119.3 M272.6,120.4c2.3,0.4,3,3.7,0.5,4.2c-1.1,0.2-2.2-0.6-2.3-1.7
		c0,0,0,0,0,0C270.6,121.4,271.5,120.9,272.6,120.4 M228.7,117.3c1.7,0.1,3.4,2,1.7,3.5c-0.7,0.6-1.7,0.6-2.5,0.2
		C226.8,119.2,227.1,118.3,228.7,117.3 M283.3,121.6c2.4,0.2,2.2,2,0.9,3.4C282,124.6,281.5,123.1,283.3,121.6 M217.8,117
		c1.4,0.1,2.9,1.9,1.1,2.9C217,121.2,216.2,118.2,217.8,117 M294.2,122.9c0.9,0.1,2,0.7,1.4,1.8c-0.3,0.5-0.8,0.7-1.3,0.6
		C293.2,124.4,293.4,124.1,294.2,122.9 M206.8,116.7c0.9,0.1,2,0.7,1.2,1.8C207,119.7,205.6,118,206.8,116.7 M305.6,124.2
		c0.8,0.5,0.9,0.7,0.4,1.5C304.7,125.3,304.5,124.9,305.6,124.2 M244.8,123.9c2.7,0.1,3.5,3.8,0.7,4.5c-1.1,0.2-2.1-0.4-2.5-1.4
		C242.6,125.3,243.6,124.6,244.8,123.9 M255.6,124.7c1.2,0.2,2.1,0.4,2.5,1.7c0.4,1.1-0.3,2.4-1.4,2.7c-1.1,0.4-2.4-0.3-2.7-1.4
		C253.4,126.2,254.5,125.3,255.6,124.7 M266.8,125.6c2.7,0.4,2.8,4.3-0.1,4C263.8,129.5,265,126.5,266.8,125.6 M233.7,123.3
		c2.6,0.1,3.1,2.7,0.9,4c-1,0.2-1.9-0.3-2.3-1.3C231.9,124.7,232.7,124,233.7,123.3 M277.7,126.8c1.3,0.4,2.7,2.3,0.9,3.3
		C276.3,131.3,275.2,127.7,277.7,126.8 M223,122.9c1.4,0.1,2.6,1.6,1.3,2.8C222.6,127.4,220.3,124.1,223,122.9 M288.4,128.1
		c1,0.1,2.4,1,1.3,2.1C288.2,131.8,287,129.4,288.4,128.1 M212,122.6c1.4,0.3,2.1,2.5,0.2,2.4C210.7,125,211.1,123.2,212,122.6
		 M299.6,129.3c1,0.6,1.2,0.9,0.5,1.8C299.1,130.9,298.3,129.9,299.6,129.3 M201.1,122.2c0.9,0.2,1.1,0.4,1,1.2
		C200.9,124.3,200,123.2,201.1,122.2 M250.2,130.1c2,0.8,2.7,4-0.1,4.2c-1,0.1-2.3-1.4-1.8-2.4C248.5,130.7,249.3,130.5,250.2,130.1
		 M260.9,131c2.4,0.2,2.8,3.9,0.2,3.9C258.4,135,259.1,131.9,260.9,131 M238.8,129.5c1.1,0.2,2.2,0.3,2.3,1.8c0,0.9-0.6,1.8-1.5,2
		C237,133.5,237.1,130.7,238.8,129.5 M271.8,132.1c1.8,0.5,2.6,3.4,0.1,3.5C269.6,135.6,270.5,132.8,271.8,132.1 M228,129
		c1.9,0.3,2.4,1.5,1.2,3.1C226.9,132.4,225.9,130.5,228,129 M283,133.3c1.9,0.7,1.4,2.5-0.4,2.8C281.3,135.3,281.4,133.5,283,133.3
		 M217.1,128.6c1.1,0.3,1.9,1,1.1,2.1C217.2,132.1,215.2,130,217.1,128.6 M206.3,128.2c0.5,0.1,1.1,0.6,0.9,1.2
		C206.2,130.7,204.9,129.4,206.3,128.2 M293.5,134.5c1.3,0.1,1.4,0.8,0.9,1.8C293.1,136.3,292.4,135.8,293.5,134.5 M244,135.7
		c2.5,0.2,2.6,3.3,0,3.4C241.8,138.7,242.8,136.7,244,135.7 M254.9,136.5c1.7,0.1,3,2.3,1.1,3.3C253.9,141,252.5,137.3,254.9,136.5
		 M266,137.5c2.1,0.2,2.2,2.6,0.3,3.3C264,140.5,264.5,138.4,266,137.5 M232.9,135.2c1.6,0.1,3,2.2,1.1,3
		C231.8,139,231.5,136.4,232.9,135.2 M277.1,138.5c1.1,0.3,1.7,2.1,0.5,2.7C275.8,142.1,275.4,139.4,277.1,138.5 M222.2,134.7
		c0.8,0.2,2.1,0.9,1.3,2C222.3,138.2,220.3,136.1,222.2,134.7 M288,139.7c1.1,0.6,1,2.5-0.2,2c-0.5-0.2-0.8-0.7-0.7-1.2
		C287.3,140,287.6,139.7,288,139.7 M211.2,134.2c1.1,0.1,1.4,0.9,0.7,1.8C210.4,136.5,210.7,135.1,211.2,134.2 M249.2,142.1
		c1.8,0.2,2.4,2.7,0.4,2.9C247.4,145.3,247.9,142.9,249.2,142.1 M260.3,142.9c1.3,0.5,2,2.9,0,2.9
		C258.1,145.9,259.1,143.5,260.3,142.9 M238.1,141.4c1.3,0.2,2.7,1.7,0.8,2.6C237.2,144.9,236.6,142.2,238.1,141.4 M271,143.9
		c1.1,0.2,2,1,1.1,2.1C271.2,147.2,268.9,145.6,271,143.9 M227,140.8c1.2,0.2,2,0.5,1.4,2C226.7,143.7,225.9,142.3,227,140.8
		 M282.2,145c0.8,0.3,1.4,1.5,0.3,2C281.4,147.5,280.5,145.3,282.2,145 M216.3,140.3c0.9,0.3,1.3,0.6,1,1.6
		C216.1,142.3,215.2,141.3,216.3,140.3 M243.5,147.6c1.6,0.6,1.3,1.8-0.1,2.5C242.5,149.5,241.6,148,243.5,147.6 M254.5,148.4
		c1.5,0.6,1.3,1.6,0.2,2.5C253.1,150.5,252.8,148.9,254.5,148.4 M232.6,146.9c0.7,0.4,1.7,1.4,0.4,2.1
		C231.3,149.9,231.4,147.7,232.6,146.9 M265.2,149.3c1.4,0.4,1.6,1.1,0.7,2.2C264.1,151.7,264,150.3,265.2,149.3 M221.5,146.4
		c1,0.3,1.1,1,0.5,1.8C221.1,147.9,220.2,147,221.5,146.4 M276.1,150.4c0.9,0.1,1.7,1,0.6,1.7C275.4,152.9,275.4,151,276.1,150.4
		 M248.6,153.9c1.2,0.6,0.9,2.5-0.4,1.9C247.2,155.2,247.7,154.3,248.6,153.9 M237.4,153.3c0.8,0.2,1.9,0.9,0.6,1.7
		C236.9,155.6,236.6,154,237.4,153.3 M259.2,154.8c0.5,0.1,2,0.6,1,1.5C259,157.5,258.3,155.9,259.2,154.8 M226.5,152.6
		c0.9,0.2,1.1,0.4,1,1.2C226.5,154.7,225.4,153.5,226.5,152.6 M270.1,155.8C273.4,156,268.3,158.9,270.1,155.8 M242.7,159.5
		C245.4,161,240.2,161.2,242.7,159.5 M253.7,160.3C256.3,161.8,251.1,162.1,253.7,160.3"/>
	<path class="st1" d="M334.3,125.7c0,0-18.2-2.1-22.8,0.9c-14.3,9.1-3.5,30.3-2.8,31.6c-0.8-1.3-14.6-22.1-24.3-20.9
		c-5.6,0.7-9.4,3.8-13,10s-6.1,16.2-6.1,16.2s-8.6-20.9-16.3-22.7s-19.6,25.1-19.6,25.1s-2.8-24.5-9.3-29.2
		c-5-3.6-20.7,2.4-27.9,5.4c-2.1,0.9-3.4,1.5-3.5,1.6c2.6-2.3,5-4.8,7.3-7.4c2.6-2.9,5-6.1,7-9.5c3.9-6.6,6.2-14,2.2-19.9
		C195.9,92.7,177,89.2,177,89.2s30.6-0.1,34.2-7.2c3.5-7-12.3-25.5-12.7-26c0.6,0.4,20.7,14.8,29.8,10.7c11.9-5.4,7.1-39.5,7.1-39.5
		s10.6,43.6,18.9,36.5c8.2-7.1,13.6-26.5,13.6-26.5s-0.6,31.8,8.8,30c9.3-1.7,23.1-20.6,23.6-21.2c-0.3,0.6-13.4,28.3-4.1,29.5
		c9.4,1.2,24.2-10.6,24.2-10.6s-14.1,21.1-5.9,24.9c0.4,0.2,0.8,0.3,1.2,0.4c10.6,2.4,28.7,0.6,28.7,0.6s-28.1,8.3-25.7,17.7
		S334.3,125.7,334.3,125.7z"/>
	<path class="st2" d="M334.3,126.8c0,0-18.3-2-22.9,0.8c-14.3,8.9-3.5,29.4-2.9,30.6c-0.8-1.2-14.6-21.4-24.3-20.3
		c-5.6,0.6-9.5,3.7-13,9.7s-6.1,15.7-6.1,15.7s-8.6-20.3-16.3-22s-19.7,24.3-19.7,24.3s-2.8-23.7-9.3-28.3c-5-3.5-20.8,2.4-27.9,5.3
		c0.9-1.3,2.3-3.4,3.7-5.7c2.9-4.4,6-9.2,6.4-9.2c0.2,0,0.4,0,0.6,0c8.7,0.5,17.5-0.9,26.1-2.4c17-2.9,34.1-6.1,50.1-12.2
		c13-4.9,25.4-11.8,35.4-21.1c0.4,0.2,0.8,0.3,1.2,0.4c10.6,2.3,28.7,0.6,28.7,0.6s-28.2,8-25.8,17.2S334.3,126.8,334.3,126.8z"/>
	<g transform="translate(177.001 27.251)">
		<path class="st3" d="M136.5,61.5c-0.5,3.3,0.3,6,3.5,6.8c4.2,0.8,8.6,1.2,12.9,1.2c4.6-2.2,9.3-4.1,14.2-5.6
			c0,0-17.5,1.7-27.8-0.6C138.2,63,137.2,62.4,136.5,61.5z"/>
		<path class="st3" d="M129.1,127.4c1.6,2.2,2.6,3.7,2.6,3.7c-1.6-3.3-2.9-6.7-3.7-10.3C128.2,123.1,128.5,125.3,129.1,127.4z"/>
		<path class="st3" d="M120.5,48.2c-1-0.1-2-0.7-2.5-1.6c-0.3,3.6,0.5,6.2,3.2,6.6c5.4,0.7,12.7-3.1,17.7-6.2c1.5-3.1,3.2-6.1,5.1-9
			C143.9,37.9,129.6,49.4,120.5,48.2z"/>
		<path class="st3" d="M143,84.2c-0.3,0.8-0.3,1.8-0.1,2.6c1.1,4.2,4.5,8.1,7.8,11.1c3.9,0.2,6.9,0.5,6.9,0.5S146.7,92.2,143,84.2z"
			/>
		<path class="st3" d="M100.7,43.8c5.5-1,12.6-8.2,17.4-13.8c1.4-4,3-7.9,4.8-11.8c0.1-0.1-13.6,18.8-22.9,20.6
			c-4,0.8-6.1-4.7-7.3-11C93.6,36,95.7,44.8,100.7,43.8z"/>
		<path class="st3" d="M29.4,88.8c-0.6,13-18,28.2-18,28.2s4-1.9,9.1-3.8C26.2,106.3,32.2,96.6,29.4,88.8z"/>
		<path class="st3" d="M33.9,60c0.8-1.6,0.5-3.8-0.3-6.3c-0.1,0.5-0.2,0.9-0.4,1.3C29.7,61.9,0,62,0,62c4.3,0.9,8.5,2.4,12.5,4.4
			C21.2,65.7,31.9,64,33.9,60z"/>
		<path class="st3" d="M50.4,43.3C62,38.1,57.3,5,57.3,5s10.3,42.3,18.3,35.4c6.5-5.5,11-18.9,12.6-23.8C88,12.6,88,9.7,88,9.7
			s-5.1,18.9-13.1,25.7S56.6,0,56.6,0s4.7,33.1-6.9,38.3c-9,4.1-29-10.3-29-10.3c2.4,2.8,4.6,5.8,6.7,8.8
			C34.1,40.7,44.6,45.9,50.4,43.3z"/>
	</g>
	<g transform="translate(213.813 82.553)">
		<path d="M0,18.2c4.6-2.4,9.4-4.3,14.4-5.6c5.4-1.2,8.3-0.4,8.6,2.2c0.8,5.2-4.5,11.3-13.4,17.8c0.2,1.7,1.3,1.4,1.6,3
			c0.2,1.1-0.5,4.1-0.2,5.1c-2.3,0.8-4.5,1.6-6.7,2.4c-0.1-0.5-0.5-2-1-4.5c-0.5-2.7-1-5.4-1.4-8.2C0.7,22.6,0.3,18.4,0,18.2z
			 M9.2,22c0,0.7-0.1,1.5-0.1,2.2c0,0.7,0,1.4,0.1,2.1c2.9-1.8,4.8-3.4,5.5-4.8c0.1-0.2,0.1-0.4,0.1-0.5c-0.1-0.4-0.6-0.6-1.6-0.4
			C11.8,20.9,10.5,21.4,9.2,22L9.2,22z"/>
		<path d="M38,7.4c4.3-0.5,7.5,1,9.1,4.6c0.9,1.9,1.3,4.1,1.1,6.2c-0.1,2.4-0.6,4.8-1.4,7.1c-1.4,4.2-3.6,8.1-6.4,11.5
			c-3.4,4.1-6.7,5.9-10.4,5.8c-3.2-0.1-5.8-1.7-8-4.6c-1.1-1.5-1.8-3.2-2.3-4.9c-0.5-2-0.6-4.1-0.3-6.1c0.6-4.2,2.3-8.1,5-11.3
			C28.2,10.9,32.9,8,38,7.4z M36.4,18.5c-2.1,0.2-4.1,1.7-5.9,4.4c-1.3,1.8-2.2,3.9-2.6,6.1c-0.2,0.9-0.2,1.8-0.1,2.7
			c0.1,1,0.6,2,1.4,2.7c0.9,0.8,2.1,1.2,3.3,1.2c1.9,0,3.7-1,4.7-2.5c1.1-1.4,2-3.1,2.4-4.9c0.6-2.2,0.7-4.4,0.2-6.6
			C39.4,19.4,38.2,18.4,36.4,18.5z"/>
		<path d="M88.5,9.5c-8.4,10.7-15.3,22.4-20.5,35c-3.5-0.2-7-0.3-10.4-0.3c0.3-1.3-1.2-4.2-0.9-5.5c1.1-4.6,4.1-7.7,5.3-12.4
			c-2.5,5.5-4.7,10.9-6.8,16.2c-3.3,0.1-6.6,0.2-9.8,0.5c0.2-1.2-1.8-4.1-1.4-5.5c2-9.5,8.9-22.4,12.1-31.2c1-2.8,4.3-1.1,4.3-3.3
			l-0.1,6c-1.7,7.2-3.2,14.3-4.6,21.3C58.8,22.5,69,8.1,73,0c2.1-0.2-0.3,6-0.3,6c-3.6,10.5-6.8,20.8-9.7,31
			c3.8-8.8,16.2-27.3,26.1-33.7C90.2,2.6,88.5,9.5,88.5,9.5z"/>
		<path d="M88,43.4c1.1,0.1,2,0.7,2.6,1.5c0.7,1,0.8,2.3,0.3,3.3c-0.8,1.8-2.3,3.2-4.1,3.9c-1.3,0.7-2.8,0.9-4.3,0.6
			c-1-0.1-1.8-0.6-2.5-1.4c-0.7-0.9-0.8-2.1-0.4-3.2c0.6-1.8,2-3.2,3.7-3.9C84.8,43.4,86.4,43.2,88,43.4z M108.3,10.4
			c2.8,1.1,9.4-1.7,12.1-0.5l-0.3,5.6c-4.7,3.5-9.2,7.3-13.5,11.3c-4,3.9-7.8,8.1-11.1,12.5c-2.2-0.9-4.4-1.7-6.7-2.4
			C94.7,28.1,101.2,19.3,108.3,10.4L108.3,10.4z"/>
	</g>
	<g transform="translate(213.387 82.887)">
		<path class="st4" d="M0,12.2c4.6-2.4,9.4-4.3,14.4-5.6c5.4-1.2,8.3-0.4,8.6,2.2c0.8,5.2-4.5,11.3-13.4,17.8
			c0.3,2.7,0.7,5.5,1.4,8.1c-2.3,0.8-4.5,1.6-6.7,2.4c-0.1-0.5-0.5-2-1-4.5c-0.5-2.7-1-5.4-1.4-8.2C0.7,16.6,0.3,12.4,0,12.2z
			 M9.2,16c0,0.7-0.1,1.5-0.1,2.2c0,0.7,0,1.4,0.1,2.1c2.9-1.8,4.8-3.4,5.5-4.8c0.1-0.2,0.1-0.4,0.1-0.5c-0.1-0.4-0.6-0.6-1.6-0.4
			C11.8,14.9,10.5,15.4,9.2,16L9.2,16z"/>
		<path class="st4" d="M38,1.4c4.3-0.5,7.5,1,9.1,4.6c0.9,1.9,1.3,4.1,1.1,6.2c-0.1,2.4-0.6,4.8-1.4,7.1c-1.4,4.2-3.6,8.1-6.4,11.5
			c-3.4,4.1-6.7,5.9-10.4,5.8c-3.2-0.1-5.8-1.7-8-4.6c-1.1-1.5-1.8-3.2-2.3-4.9c-0.5-2-0.6-4.1-0.3-6.1c0.6-4.2,2.3-8.1,5-11.3
			C28.2,4.9,32.9,2,38,1.4z M36.4,12.6c-2.1,0.2-4.1,1.7-5.9,4.4c-1.3,1.8-2.2,3.9-2.6,6.1c-0.2,0.9-0.2,1.8-0.1,2.7
			c0.1,1,0.6,2,1.4,2.7c0.9,0.8,2.1,1.2,3.3,1.2c1.9,0,3.7-1,4.7-2.5c1.1-1.4,2-3.1,2.4-4.9c0.6-2.2,0.7-4.4,0.2-6.6
			C39.4,13.4,38.2,12.4,36.4,12.6L36.4,12.6z"/>
		<path class="st4" d="M88.5,3.5c-8.4,10.7-15.3,22.4-20.5,35c-3.5-0.2-7-0.3-10.4-0.3c1.4-5.9,2.8-11.9,4.4-17.9
			c-2.5,5.5-4.7,10.9-6.8,16.2c-3.3,0.1-6.6,0.2-9.8,0.5c1.7-10.6,2.8-21.2,3.4-31.9c3.8-0.7,7.7-1.4,11.6-2
			c-1.7,7.2-3.2,14.3-4.6,21.3c3-7.7,6.5-15.5,10.5-23.6c2.1-0.2,4.3-0.4,6.5-0.6c-3.6,10.5-6.8,20.8-9.7,31
			c3.8-8.8,8.2-17.8,13.2-27.1C80.3,3.7,84.3,3.5,88.5,3.5z"/>
		<path class="st4" d="M88,37.4c1.1,0.1,2,0.7,2.6,1.5c0.7,1,0.8,2.3,0.3,3.3c-0.8,1.8-2.3,3.2-4.1,3.9c-1.3,0.7-2.8,0.9-4.3,0.6
			c-1-0.1-1.8-0.6-2.5-1.4c-0.7-0.9-0.8-2.1-0.4-3.2c0.6-1.8,2-3.2,3.7-3.9C84.8,37.5,86.4,37.2,88,37.4z M108.3,4.4
			c4,1.5,7.9,3.2,11.8,5c-4.7,3.5-9.2,7.3-13.5,11.3c-4,3.9-7.8,8.1-11.1,12.5c-2.2-0.9-4.4-1.7-6.7-2.4
			C94.7,22.1,101.2,13.3,108.3,4.4z"/>
	</g>
	<g transform="translate(268.271 37.325)">
		<path d="M31.6,8.2c0,0-0.4,0.8-1.4,2.1s-2.4,3.1-4.3,5.3c-1.9,2.2-4.1,4.8-6.8,7.6c-1.4,1.4-3,2.8-4.7,3.9
			c-0.9,0.6-1.9,1.2-2.9,1.6c-1.1,0.5-2.2,0.8-3.4,0.8c-1.3,0-2.5-0.4-3.5-1.3c-0.9-0.8-1.5-1.8-1.9-2.9c-0.3-1-0.6-2-0.9-3
			c-0.3-1-0.5-1.9-0.7-2.9c-0.7-3.3-1-6.7-1.1-10.2C0,6.5,0,4.1,0,2.5L0,0l0.8,9.3c0.3,3.3,0.8,6.7,1.5,9.9c0.2,0.9,0.5,1.8,0.8,2.8
			c0.3,0.9,0.6,1.9,1,2.9c0.3,0.9,0.8,1.7,1.5,2.4c0.7,0.6,1.6,0.9,2.5,0.9c1,0,2-0.3,2.9-0.7c0.9-0.4,1.8-0.9,2.6-1.5
			c1.6-1.1,3.2-2.3,4.6-3.7c2.8-2.5,5.1-5.1,7.1-7.1c2-2.1,3.6-3.8,4.7-5S31.6,8.2,31.6,8.2z"/>
	</g>
	<g transform="translate(293.395 45.542)">
		<path d="M27.5,18.3c-0.5,0.5-1.1,1.1-1.7,1.6c-1.6,1.3-3.2,2.6-5,3.7c-1.1,0.7-2.3,1.5-3.7,2.2c-0.7,0.4-1.4,0.8-2.1,1.1
			s-1.5,0.8-2.3,1.1c-0.8,0.4-1.7,0.7-2.5,0.9l-1.4,0.4c-0.5,0.1-1,0.2-1.4,0.3c-0.5,0.1-1,0.1-1.5,0.1c-0.5,0-1.1,0-1.6-0.1
			c-1.1-0.2-2.2-0.8-2.9-1.6c-0.7-0.9-1.2-1.9-1.3-3.1C0,24.6,0,24.4,0,24.1l0-0.8c0.1-0.5,0.1-1,0.2-1.5c0.4-1.8,0.9-3.6,1.4-5.3
			c1.1-3.3,2.2-6.2,3.1-8.7C6.7,2.9,8.1,0,8.1,0s-1,3.1-2.6,8.1c-0.8,2.5-1.7,5.5-2.6,8.8c-0.4,1.7-0.9,3.4-1.2,5.2
			c-0.1,0.4-0.1,0.9-0.2,1.3l0,0.6c0,0.2,0,0.5,0.1,0.7c0.1,0.8,0.4,1.7,0.9,2.3c1.1,1.3,3,1.4,4.7,1.2c0.4-0.1,0.9-0.1,1.3-0.2
			l1.3-0.3c0.9-0.2,1.7-0.6,2.5-0.8s1.6-0.7,2.3-1s1.5-0.6,2.1-1c1.4-0.7,2.7-1.3,3.8-2C22.9,21.6,25.3,20,27.5,18.3z"/>
	</g>
	<g transform="translate(312.227 65.169)">
		<path d="M8.7,0L7.2,3l-3.4,7.3c-1.2,2.4-2.2,4.8-3.1,7.4c-0.3,0.8-0.4,1.5-0.4,2.3c0,0.2,0,0.4,0.1,0.6l0.1,0.2l-0.1-0.2
			c-0.1-0.2-0.2-0.4-0.2-0.6c-0.2-0.8-0.2-1.7,0-2.5c0.4-2.7,1.3-5.3,2.5-7.8C3.7,7.3,5,4.9,6.6,2.7C7.2,1.7,7.9,0.8,8.7,0z"/>
	</g>
	<g transform="translate(304.727 125.628)">
		<path d="M28.9,1c0,0-0.8-0.1-2.2-0.1s-3.4-0.1-5.9-0.1c-2.9,0-5.8,0.3-8.6,0.9C10.6,2,9,2.5,7.5,3.2C6,4,4.7,5.2,3.7,6.7
			c-1,1.4-1.7,3.1-2.1,4.8c-0.1,0.4-0.1,0.8-0.2,1.2c0,0.4-0.1,0.9-0.1,1.3c0,0.9-0.1,1.7-0.1,2.5c0,1.5,0.1,3.1,0.3,4.6
			c0.2,1.4,0.6,2.7,0.9,3.9c1.2,4.8,2.1,7.8,2.1,7.8c-1.1-2.5-2-5-2.8-7.6c-0.5-1.3-0.8-2.6-1.2-4c-0.3-1.6-0.5-3.1-0.5-4.7
			c0-0.8,0-1.7,0-2.6c0-0.4,0-0.9,0-1.3c0-0.5,0.1-0.9,0.2-1.4c0.4-1.9,1.2-3.7,2.3-5.3c1.1-1.7,2.6-3,4.4-3.9
			c1.6-0.7,3.4-1.2,5.1-1.5c2.9-0.4,5.9-0.6,8.8-0.4c2.5,0.1,4.5,0.4,5.9,0.6S28.9,1,28.9,1z"/>
	</g>
	<g transform="translate(266.532 137.839)">
		<path d="M41.3,20.5l-1.5-2c-1-1.3-2.4-3.1-4.3-5.3c-2.2-2.6-4.5-5-7-7.3c-1.4-1.3-3-2.5-4.7-3.4c-1.8-0.9-3.9-1.2-5.9-1
			c-2,0.2-4,0.9-5.8,1.9c-1.7,1-3.1,2.3-4.4,3.7c-2.1,2.6-3.8,5.5-4.9,8.7c-1,2.7-1.6,5-2.1,6.5L0,24.8l0.4-2.5
			c0.4-2.3,0.9-4.5,1.6-6.7c1-3.3,2.5-6.5,4.6-9.2c1.3-1.6,2.9-3,4.6-4.2c1.9-1.2,4.1-1.9,6.4-2.2c2.3-0.2,4.6,0.2,6.7,1.2
			c1.8,1,3.5,2.2,4.9,3.7c2.4,2.4,4.7,5,6.8,7.7c1.8,2.3,3.1,4.3,3.9,5.7S41.3,20.5,41.3,20.5z"/>
	</g>
	<g transform="translate(230.21 140.584)">
		<path d="M34.5,22.8l-1.1-2c-0.7-1.3-1.8-3.2-3.2-5.4c-1.6-2.6-3.4-5.2-5.3-7.6c-1.1-1.4-2.3-2.8-3.6-4.1c-1.3-1.3-2.8-2.6-4.4-2.1
			c-0.8,0.3-1.6,0.8-2.2,1.4c-0.7,0.6-1.3,1.4-1.9,2.1c-1.2,1.4-2.4,2.9-3.4,4.3c-2.1,2.8-3.8,5.5-5.2,7.7s-2.4,4.1-3.2,5.4l-1.1,2
			c0,0,0.3-0.8,0.9-2.1s1.5-3.3,2.7-5.7c1.4-2.8,3.1-5.5,4.8-8.1c1-1.5,2.1-3,3.3-4.5c0.6-0.8,1.3-1.5,2-2.2
			c0.8-0.8,1.7-1.4,2.8-1.8C17.8-0.2,19,0,20,0.7c0.9,0.5,1.7,1.2,2.4,2C23.7,4,24.9,5.5,26,7c1.8,2.5,3.5,5.2,4.9,8
			c1.2,2.4,2.1,4.3,2.7,5.7S34.5,22.8,34.5,22.8z"/>
	</g>
	<g transform="translate(188.955 135.394)">
		<path d="M39.3,29.7c0,0-1.1-3.3-2.3-8.7c-0.6-2.7-1.4-6-2.3-9.5c-0.5-1.8-1.1-3.6-1.9-5.3c-0.4-0.9-0.9-1.7-1.4-2.5
			c-0.5-0.8-1.2-1.4-2-1.7c-0.9-0.3-1.9-0.4-2.9-0.4c-1,0-2,0-2.9,0.1c-0.2,0-0.5,0.1-0.7,0.1l-0.7,0.2l-1.4,0.3l-2.7,0.6
			c-3.6,0.9-6.7,1.8-9.4,2.6S3.7,7,2.3,7.6L0,8.4c0,0,0.8-0.4,2.2-1.1s3.5-1.6,6.1-2.7c3.1-1.2,6.2-2.3,9.3-3.1
			c0.9-0.3,1.8-0.5,2.8-0.7l1.4-0.4l0.7-0.2c0.3-0.1,0.5-0.1,0.8-0.1C24.3,0,25.4,0,26.5,0c1.1,0,2.2,0.2,3.3,0.5
			c1.1,0.5,2.1,1.3,2.7,2.3c0.6,0.9,1.1,1.8,1.5,2.8c0.8,1.8,1.4,3.7,1.8,5.6c0.9,3.6,1.4,6.9,1.9,9.7
			C38.5,26.4,39.3,29.7,39.3,29.7z"/>
	</g>
	<g transform="translate(177.962 90.307)">
		<path d="M11,52.4l0.6-0.4c0.6-0.4,1.1-0.9,1.6-1.4c1.9-1.8,3.5-3.8,5-6c2.2-3.2,4.2-6.5,6-9.9c1.1-2,2-4,2.8-6.2
			c0.8-2.2,0.8-4.6,0-6.8c-0.7-2.3-1.8-4.4-3.2-6.4c-1.3-1.9-2.7-3.5-4.4-5C18,9,16.3,7.8,14.6,6.7c-0.8-0.5-1.6-0.9-2.4-1.3
			c-0.8-0.4-1.6-0.8-2.3-1.1C7.5,3,5.1,1.9,2.7,0.9c-0.9-0.3-1.5-0.6-2-0.7L0,0l0.7,0.2c0.5,0.1,1.2,0.3,2.1,0.5
			c2.5,0.8,5,1.7,7.3,2.8l2.4,1c0.9,0.4,1.7,0.8,2.6,1.3c1.8,1,3.6,2.3,5.2,3.6c1.8,1.5,3.4,3.2,4.8,5.2c1.5,2.1,2.6,4.4,3.4,6.8
			c0.4,1.3,0.6,2.6,0.6,3.9c0,1.3-0.3,2.6-0.8,3.8c-0.9,2.2-1.9,4.3-3,6.3c-1.9,3.4-4.1,6.7-6.5,9.7c-1.6,2.1-3.4,4-5.4,5.7
			c-0.6,0.5-1.1,0.9-1.7,1.2L11,52.4z"/>
	</g>
	<g transform="translate(179.888 56.335)">
		<path d="M0,32.2c0,0,0.9,0,2.4-0.1s3.8-0.2,6.5-0.4c3.2-0.3,6.3-0.8,9.5-1.5c1.8-0.4,3.6-0.8,5.5-1.4c1.8-0.5,3.7-1.3,4.7-2.9
			c0.9-1.6,1.2-3.6,0.9-5.4c-0.3-1.8-0.8-3.6-1.4-5.3c-1.2-3-2.7-5.8-4.5-8.4c-1.2-1.8-2.5-3.5-4-5.1c-0.5-0.6-0.9-1-1.2-1.3L17.9,0
			l0.5,0.4c0.3,0.3,0.8,0.7,1.3,1.2c1.6,1.5,3.1,3.1,4.4,4.8c2,2.6,3.7,5.4,5,8.4c0.8,1.8,1.3,3.7,1.7,5.6c0.2,1.1,0.2,2.1,0.1,3.2
			c-0.1,1.2-0.5,2.3-1.1,3.2c-0.7,1-1.5,1.7-2.6,2.3c-0.9,0.5-1.9,0.9-3,1.1c-1.9,0.5-3.8,0.9-5.6,1.2c-3.2,0.6-6.4,0.9-9.7,1
			c-2.8,0.1-5,0-6.5-0.1S0,32.2,0,32.2z"/>
	</g>
	<g transform="translate(236.055 29.276)">
		<path d="M31.3,8.9c0,0-1.7,3.5-4,9.2c-1.2,2.9-2.6,6.3-4.3,10.1c-0.4,0.9-0.9,1.9-1.4,2.9c-0.5,1.1-1.2,2.1-2.2,2.9
			c-0.5,0.4-1.2,0.7-1.9,0.8c-0.7,0.1-1.4,0-2-0.3c-1.2-0.5-2.2-1.3-3.1-2.3c-1.5-1.8-2.9-3.8-4-5.8c-0.5-1-0.9-2.1-1.2-3.2
			c-0.4-1-0.7-2-1-3c-1.3-3.9-2.3-7.5-3.1-10.5C1.2,3.7,0,0,0,0s1.6,3.5,3.6,9.4c1,2.9,2.2,6.4,3.6,10.3c0.4,1,0.7,1.9,1.1,3
			c0.4,1,0.8,2,1.2,3c1.1,2,2.4,3.8,3.9,5.5c0.7,0.8,1.6,1.4,2.5,1.9c0.8,0.4,1.8,0.3,2.5-0.3c0.8-0.6,1.4-1.4,1.8-2.3
			c0.5-0.9,1-1.9,1.4-2.8c1.8-3.7,3.4-7,4.8-9.8C29.3,12.2,31.3,8.9,31.3,8.9z"/>
	</g>
	<g transform="translate(197.777 29.656)">
		<path d="M0,25.5L0.5,26c0.5,0.4,1.1,0.8,1.6,1.2c2.1,1.3,4.4,2.5,6.7,3.4l2.3,1c0.8,0.4,1.6,0.8,2.4,1.2c1.8,0.8,3.7,1.4,5.6,1.8
			l3.1,0.8c1,0.3,2.1,0.4,3.2,0.5c1.1,0.1,2.1-0.1,3.1-0.5c1-0.4,1.9-1,2.5-1.9c1.3-1.9,2.3-3.9,3.1-6.1c0.7-2,1.3-4.1,1.6-6.2
			c0.5-3.7,0.7-7.4,0.5-11c-0.1-3.2-0.1-5.8-0.1-7.5S36.2,0,36.2,0s0,1,0.2,2.8c0.1,1.8,0.4,4.3,0.6,7.5c0.4,3.7,0.4,7.5,0,11.2
			c-0.3,2.2-0.8,4.4-1.5,6.6c-0.8,2.3-1.9,4.5-3.2,6.5c-0.8,1.1-1.9,1.9-3.2,2.3c-1.2,0.4-2.5,0.6-3.7,0.5c-1.2-0.1-2.3-0.3-3.5-0.6
			l-3.1-0.9c-2-0.5-3.9-1.2-5.7-2.1c-0.9-0.5-1.6-0.9-2.4-1.3l-2.2-1.2c-2.3-1.1-4.4-2.4-6.5-3.9C1.5,27,1,26.5,0.5,26.1L0,25.5z"/>
	</g>
	<g transform="translate(286.328 72.064)">
		<path d="M20.4,18c0,0-0.2-0.4-0.4-1.1c-0.1-0.4-0.3-0.8-0.5-1.2c-0.2-0.5-0.5-1.1-0.8-1.6c-0.3-0.6-0.7-1.2-1.1-1.8
			c-0.4-0.6-0.9-1.2-1.4-1.9c-2.2-2.8-5-5.1-8-7C7.4,3,6.7,2.6,6,2.3C5.4,2,4.7,1.7,4.1,1.5C3.5,1.3,3,1.1,2.4,0.9
			C2,0.8,1.6,0.7,1.1,0.6L0,0.3l1.2-0.2C1.6,0,2.1,0,2.5,0c0.6,0,1.2,0,1.9,0.1c0.8,0.1,1.5,0.2,2.2,0.4c0.9,0.2,1.7,0.5,2.5,0.8
			c3.8,1.5,7,4.3,9,7.8c0.4,0.8,0.8,1.6,1.1,2.4c0.3,0.7,0.5,1.4,0.7,2.2c0.2,0.6,0.3,1.2,0.3,1.8c0.1,0.5,0.1,0.9,0.1,1.4
			C20.4,17.6,20.4,18,20.4,18z"/>
	</g>
	<g transform="translate(293.836 66.465)">
		<path d="M17.3,10.6L16.7,10c-0.4-0.4-1-0.9-1.7-1.5c-3.6-3-7.7-5.4-12.1-7C2.1,1.1,1.3,0.9,0.8,0.8L0,0.5c0,0,0.3-0.1,0.8-0.2
			C1.6,0.1,2.4,0,3.2,0c1.2,0,2.4,0.1,3.5,0.3c2.9,0.6,5.5,2.2,7.5,4.3c0.8,0.9,1.5,1.9,2,2.9c0.4,0.7,0.7,1.4,0.9,2.2
			C17.2,10.3,17.3,10.6,17.3,10.6z"/>
	</g>
	<g transform="translate(193.996 111.278)">
		<path d="M48.8,25.2l-2.3,0.5l-1.2,0.2c-0.4,0.1-0.9,0.1-1.5,0.2c-1.2,0.2-2.4,0.2-3.6,0.2h-2.1c-0.7,0-1.5-0.1-2.3-0.2
			c-1.7-0.1-3.4-0.4-5-0.7c-7.7-1.6-14.8-5.3-20.5-10.6c-1.2-1.2-2.4-2.4-3.5-3.7c-0.5-0.6-1-1.2-1.5-1.8S4.4,8.2,4.1,7.6
			c-0.7-1-1.3-2-1.9-3.1C1.9,4.1,1.6,3.7,1.4,3.3L0.9,2.1L0,0l1.3,1.9l0.7,1C2.3,3.3,2.6,3.6,2.9,4c0.7,0.8,1.4,1.8,2.3,2.7l1.4,1.5
			c0.5,0.5,1,1,1.6,1.5c1.1,1.1,2.4,2.1,3.7,3.2c5.8,4.6,12.4,8,19.5,10.1c1.6,0.4,3.2,0.9,4.7,1.1c0.7,0.1,1.5,0.3,2.2,0.4l2,0.3
			c1.3,0.2,2.5,0.2,3.5,0.3c0.5,0,1,0.1,1.5,0.1l1.2,0L48.8,25.2z"/>
	</g>
	<g transform="translate(192.36 124.052)">
		<path d="M25.9,15.9l-1.2,0c-1.1-0.1-2.3-0.2-3.4-0.4c-1.7-0.3-3.3-0.7-4.9-1.3c-3.9-1.4-7.5-3.6-10.5-6.5C4.6,6.6,3.5,5.3,2.5,3.9
			C1.8,3,1.1,2.1,0.6,1.1L0,0l0.9,0.8C1.5,1.3,2.4,2,3.5,2.9c5.6,4.4,11.7,8.2,18.2,11.2c1.3,0.6,2.3,1,3,1.3L25.9,15.9z"/>
	</g>
	<g transform="translate(312.175 85.469)">
		<path d="M6,4.9L5.7,4.9C5.4,5,5,5,4.7,5c-2.2-0.1-4-1.6-4.6-3.7C0.1,1,0,0.7,0,0.3V0l0.2,0.3C0.3,0.6,0.5,0.8,0.6,1
			c1.1,1.5,2.5,2.7,4.2,3.4c0.3,0.1,0.5,0.2,0.8,0.3L6,4.9z"/>
	</g>
	<g transform="translate(333.016 89.883)">
		<path d="M10.5,0L9,0.4C8,0.6,6.7,0.9,5.3,1.2C4.1,1.4,2.8,1.6,1.6,1.7c-1,0-1.6,0-1.6,0l1.5-0.4c0.9-0.2,2.2-0.5,3.7-0.8
			C6.4,0.2,7.7,0.1,8.9,0C9.9,0,10.5,0,10.5,0z"/>
	</g>
	<g transform="translate(333.448 89.978)">
		<path d="M10.8,0L9.2,0.8C8.2,1.3,6.8,2,5.3,2.9S2.5,4.5,1.6,5.1L0,6.1c0,0,0.5-0.5,1.3-1.3c2.2-2,4.9-3.4,7.7-4.3
			C10.1,0.1,10.8,0,10.8,0z"/>
	</g>
	<g transform="translate(319.927 110.93)">
		<path d="M13.5,13.9c-0.9-0.4-1.7-0.9-2.5-1.4c-4-2.4-7.4-5.9-9.7-9.9C0.8,1.8,0.4,0.9,0,0l1.9,2.2c1.2,1.3,2.8,3.1,4.7,5
			s3.6,3.6,4.9,4.8L13.5,13.9z"/>
	</g>
</g>
</svg>
