<svg xmlns="http://www.w3.org/2000/svg" xmlns:xlink="http://www.w3.org/1999/xlink" viewBox="0 0 69.28 99.94"><defs><style>.cls-1{isolation:isolate;}.cls-2{fill:#eec6af;}.cls-3,.cls-8,.cls-9{fill:#fbd4b9;}.cls-4{fill:#f7b391;mix-blend-mode:multiply;}.cls-4,.cls-5{opacity:0.4;}.cls-5,.cls-7,.cls-9{mix-blend-mode:screen;}.cls-5{fill:url(#linear-gradient);}.cls-6{fill:#e47f5a;}.cls-7,.cls-9{opacity:0.8;}.cls-8{mix-blend-mode:color-dodge;}</style><linearGradient id="linear-gradient" x1="15.17" y1="87.9" x2="39.05" y2="87.9" gradientUnits="userSpaceOnUse"><stop offset="0" stop-color="#fac5a5"/><stop offset="1" stop-color="#f6b09c"/></linearGradient></defs><title>Rock</title><g class="cls-1"><g id="Laag_2" data-name="Laag 2"><g id="Laag_1-2" data-name="Laag 1"><path class="cls-2" d="M17,68.63,13.2,92.12s-.25,4.75,6,6.25,21.25,1.75,31-1.5c0,0,3-1.75,3-3.5,0,0-1.5-25.49-2.25-25.24S17,68.63,17,68.63Z"/><path class="cls-3" d="M17,68.63,13.2,92.12s-.25,4.75,6,6.25,21.25,1.75,31-1.5c0,0,3-1.75,3-3.5,0,0-1.5-25.49-2.25-25.24S17,68.63,17,68.63Z"/><path class="cls-4" d="M51,68.13c-.52.17-17,.34-26.85.43a12.42,12.42,0,0,0,5.7,7.06c3.6,2,7.61,2.21,11.55,3C48.22,80.08,47,60,47.27,93.74A6.25,6.25,0,0,1,45,98.19a39.65,39.65,0,0,0,5.16-1.32s3-1.75,3-3.5C53.2,93.37,51.7,67.88,51,68.13Z"/><path class="cls-3" d="M36.08,77.75S19,79.38,10.33,66.25a61.46,61.46,0,0,1-8.75-44.5C4.45,7.25,14.2.5,18,.5a10.37,10.37,0,0,1,6.59,2.88S29.7.62,34.45,1.5,42,6.12,43,10a9.35,9.35,0,0,1,7.38-.25c4.37,1.5,6.87,7,6.87,9.75a10.4,10.4,0,0,1,10.25,5.38C71,31.25,66.78,48.54,63.62,56,60.76,62.82,54,77.38,36.08,77.75Z"/><path class="cls-4" d="M67.45,24.88A10.4,10.4,0,0,0,57.2,19.5c0-2.75-2.5-8.25-6.87-9.75A9.35,9.35,0,0,0,43,10c-1-3.88-3.75-7.62-8.5-8.5s-9.91,1.88-9.91,1.88A10.37,10.37,0,0,0,18,.5C14.2.5,4.45,7.25,1.58,21.75a61.46,61.46,0,0,0,8.75,44.5C19,79.38,36.08,77.75,36.08,77.75,54,77.38,60.76,62.82,63.62,56,66.78,48.54,71,31.25,67.45,24.88ZM26.18,5.93A3.23,3.23,0,0,1,28,4.13c2.63-1.94,7.22-1.77,8.28,1.93.85,2.92,1.43,9.3-1.6,11.19s-7.83.82-8.5-3.2C25.76,11.54,25.35,8.38,26.18,5.93ZM9.76,9.31A7.68,7.68,0,0,1,13.33,4l0,0c2.12-1.46,5.33-2.32,6.54.74a14.72,14.72,0,0,1,.53,4.09,25.48,25.48,0,0,1,.17,5.45A8.24,8.24,0,0,1,15.47,21c-2.6,1-3.94-.51-4.81-3.08l-.09-.28A12.92,12.92,0,0,1,9.76,9.31ZM30.43,30a45.46,45.46,0,0,0-6.73,3.27,12.89,12.89,0,0,0-4.58,5.79,9.46,9.46,0,0,0,1.47,7.3c1.2,1.63,2.81,2.64,4.28,4A14.87,14.87,0,0,1,29.5,59c.81,4.63,1.48,11.13-5.11,10.77-6.3-.35-11.14-4.21-14.63-9.27A37.14,37.14,0,0,1,4.24,48.79a.4.4,0,0,1-.12-.2C2.59,43.93,2.46,39.25,5.18,35A32.39,32.39,0,0,1,15.31,24.71c4.29-2.58,9.06-3.28,14-3.83,2.55-.29,5.05-.94,7.62-1.09,1.6-.09,4.47-.38,5.16,1.53.85,2.34-3.44,4.52-4.89,5.27C34.92,27.75,32.71,29,30.43,30Zm14.09,6.61a3.65,3.65,0,0,1-2.12-.89c-1.08-.67-1.62-1.89-.95-3.74.78-2.14,2.53-3.17,3.91-4.87s2.92-4.76,2.14-7A6.44,6.44,0,0,0,46.05,18a4.59,4.59,0,0,0-.7-.13,3.23,3.23,0,0,1-1.15-.23,1.4,1.4,0,0,1-.61-1.52c-.31-2.77,1.3-5.17,4.27-5.21s6.22,3.64,6.64,6.41a8.62,8.62,0,0,1-1,5.05C52.39,25,51.28,27.57,50,30.11,48.56,33.1,48.08,37.15,44.52,36.62Zm17.75-4.75a16.31,16.31,0,0,1-2.68,5.77,7.66,7.66,0,0,1-3.24,2.89.49.49,0,0,1-.47.16l-.13,0a2.75,2.75,0,0,1-1.28-.14A5,5,0,0,1,52,38.89a3.35,3.35,0,0,1-1-3.23,21.89,21.89,0,0,1,.82-2.84,16.4,16.4,0,0,1,.66-1.77c.27-.67.55-1.33.83-2a36.21,36.21,0,0,1,2.78-6c1.55-2.27,4.07-3.42,6-.78C64.29,25.25,63.53,28.69,62.27,31.87Z"/><path class="cls-5" d="M33.18,80.71c4,0,5.17,4.33,5.17,4.33s1.33-5.83.33,4.5-17.83,7.34-17.83,7.34c-6.17-1.17-5.67-6.67-5.67-6.67l2.5-6.83s-.08-5.17,2.59-4.84C22.75,78.85,33.18,80.71,33.18,80.71Z"/><path class="cls-4" d="M68.65,29.3a6.23,6.23,0,0,1-.15.62,7.84,7.84,0,0,1-4.19,5.19.5.5,0,0,1-.61-.35c-.09-.6-.15-1.21-.22-1.81A13.29,13.29,0,0,1,63,34.33a12.9,12.9,0,0,1-2.5,4C59.38,39.46,58,40.52,57.28,42c-.94,1.92-1.13,5.36-3.43,6.35-1.54.66-3,.48-3.81-1.21-2.81-6.22.49-12.71,2.88-18.47a33.49,33.49,0,0,1,3.6-7,8.92,8.92,0,0,1,2.14-2.15,8.86,8.86,0,0,0-1.46,0,8.43,8.43,0,0,0-.5-2.6,10.08,10.08,0,0,1-1.08,4.16c-1.67,3.66-3.69,7.2-5.54,10.78A23.54,23.54,0,0,0,47.37,39c-.17,1.15-.13,2.8-.82,3.81-1.58,2.32-4,.22-5.25-1.33a9.86,9.86,0,0,1-2-8c.68-2.91,3.44-4.35,5.44-6.32a9.93,9.93,0,0,0,2.59-3.53c0-.11.07-.22.1-.33A3.55,3.55,0,0,0,47.49,22a4.09,4.09,0,0,0-2.94-3.69,4,4,0,0,1-1.28-.3c-.79-.54-.72-1.63-.64-2.49.17-1.9.56-3.77.72-5.67L43,10a11.62,11.62,0,0,0-5.42-7.4,6.58,6.58,0,0,1,.9,1c1.66,2.38,1,5.11,1,7.84-.07,2.16.19,4.92-1.4,6.61-1.1,1.17-4,.65-5.38.66-1.62,0-4.61.27-5.86-1.08-1.61-1.74-1.12-5-1-7.26a16.67,16.67,0,0,1,0-1.87c-.09-2.21-.26-4.72,1.52-6.25a18.79,18.79,0,0,0-2.71,1.12A10.84,10.84,0,0,0,19,.59,5.27,5.27,0,0,1,22,3.41c1.32,2.57.83,5.7,1.12,8.47.26,2.56.59,5.28-1.83,6.93-1.68,1.14-3.51,2.08-5.15,3.28a6.16,6.16,0,0,1-2.64,1.49c-1.45.16-2.1-1.42-2.59-2.54a28.42,28.42,0,0,1-2-7.19l-.15-.95a29,29,0,0,0-.33,5.56.5.5,0,0,1-.85.35A20,20,0,0,1,5.9,16.93a16.26,16.26,0,0,0,.5,1.64c.8,2.2,2.76,4.55,1.54,7-1.5,3-3.65,5.24-4.76,8.5A22.52,22.52,0,0,0,1.91,44.22c.21-1.46.55-2.88.79-4A25.29,25.29,0,0,1,9.57,27.76c7.16-6.91,16.84-7.54,26.2-8.72,2.46-.32,5.3-1,7.79-.72a2.42,2.42,0,0,1,2.49,1.85c.87,3-3.41,6.89-5.67,8C36.06,30.3,31,30.65,26.76,32.86a10.08,10.08,0,0,0-3.64,3.32c-1.09,2.42-1.74,5.18-.34,7.25,1.29,1.9,3.4,2.86,4.88,4.57a29.83,29.83,0,0,1,6.39,12.29,63.21,63.21,0,0,1,1.05,6.37,31.25,31.25,0,0,0,.06-8.2A23.78,23.78,0,0,0,29.58,45a.51.51,0,0,1,.49-.84c2.79.82,7.51,4.29,9.13.1a.5.5,0,0,1,.91-.12c1.7,2.28,4.63,6.83,7.64,3.57a.49.49,0,0,1,.78.1,12.5,12.5,0,0,0,2.65,4c1.77,1.57,4.59,1.8,5.71-.79,1-2.31.57-5.88,2.6-7.61,1.25-1.06,2.27,2.44,2.38,3a17.07,17.07,0,0,1,.25,4.77c.37,5.68-1.65,10.77-4.47,15.61a47.9,47.9,0,0,0,6-10.7C66.21,49.9,69.47,37.21,68.65,29.3Zm-31.12,10c-.13,1.43-.7,2.83-2.36,3.25s-3.5-1.3-4.24-2.47A9.78,9.78,0,0,1,29.55,37a2.32,2.32,0,0,1-.24-2.46,5.43,5.43,0,0,1,4.46-2C37.07,32.85,37.74,36.92,37.53,39.34Z"/><path class="cls-6" d="M65.72,35.22A27.94,27.94,0,0,1,63,36.52a.91.91,0,0,0-.35.31h0a8.61,8.61,0,0,0,1.22-4.37c0-.26-.1-.51-.15-.76a2.07,2.07,0,0,0-.34-.44,14.12,14.12,0,0,1-1.53,5.94,10.93,10.93,0,0,1-1.69,2.26,10.2,10.2,0,0,0-2.66,3.59c-.72,2.22.3,7.26-2.76,8a4.86,4.86,0,0,1-3.06-.31c-1.91-1-2.73-5-3.1-6.67-1.17-5.18,2.15-10.29,4-14.91.82-2.06,1.87-4,2.85-6l.2-.42c.5-1.11,1-2.21,1.66-3.29a2.75,2.75,0,0,0-1.1,1.19,25.88,25.88,0,0,0-1.61,3.2s0,0,0,0c-1.32,2.57-2.42,5.22-3.68,7.81-2.14,4.39-3.84,8.94-2.78,13.6-.34.73-.79,1.62-1.54,1.71a3.6,3.6,0,0,1-1.95-.59,8.81,8.81,0,0,1-3.1-2.78A18.22,18.22,0,0,1,40,41.25l.1.08a8.16,8.16,0,0,1-1.21-4.46c-.16-2,.29-4.13.22-6.16a16.61,16.61,0,0,0,3.57-1.8,10.56,10.56,0,0,0,2.91-2.14c1.77-2.05,3.42-6,.75-8.24-1.07-.88-3.27-.22-4.45-.14l-.33,0c.09-1.09,1.39-6.73,1.4-8l-.36.57c-.2,1.07-1.52,5.58-1.63,6.79a5.12,5.12,0,0,0-.34.71c-.11.27-1.78.15-2,.16-1.32.06-2.64.19-4,.27l-3.74.22a3,3,0,0,1-1.12.09,7.22,7.22,0,0,1-1.31.09c-.71.06-1.41.14-2.12.21a25.24,25.24,0,0,0-.19-3.09l-.24-3.9c-.11-.7-.21-1.41-.29-2.12a42.59,42.59,0,0,0-.87-6.48q-.25,3.33-.19,6.68c.07.6.14,1.21.22,1.83.18,1.33.3,2.67.5,4a7.47,7.47,0,0,0,.17.76c.05.81.11,1.61.15,2.41a35.86,35.86,0,0,0-4.33.9,22,22,0,0,0-7.78,3.54c-.38.31-.75.62-1.14.91l-.15.12h0l-.1.09A59.41,59.41,0,0,1,8.94,14c-.26-.67-.55-1.34-.85-2,.11.55.24,1.08.31,1.48.28,1.65.49,3.32.82,5,.12.55.24,1.12.37,1.69a7.42,7.42,0,0,1-1.73-1.08c-.92-.76-1.35-1.93-2.26-2.71l0,.28a11,11,0,0,0,2,3.17,3.38,3.38,0,0,0,2.1,1.06,17.32,17.32,0,0,0,1.85,4.67l-.77.63c-.21.17-.41.35-.61.53-4.95,3.9-8.38,9.18-8.44,15.43,0,.16,0,.32,0,.49.3-.87.65-1.73,1-2.58a21.64,21.64,0,0,1,1.46-5.3C5.9,31,9.07,28.24,12.31,25.9a28,28,0,0,1,9-4.74,33,33,0,0,1,4.32-.86c0,.07.17,0,.31-.05l1.37-.17c3.14-.29,6.33-.38,9.5-.6,1.84-.12,3.67-.39,5.51-.53,2.31-.17,3.87-.4,4.45,2.31.49,2.27-1.48,5-3.26,6.43l-.34.26-.27.18a23.88,23.88,0,0,1-6.2,2.51c-1.74.52-3.31.67-4.81,1.14h-.09l-.09,0c-.05,0-.15,0-.19.12-.23.09-.46.18-.7.29a7.84,7.84,0,0,0-1.56.82,16.28,16.28,0,0,0-3.18,2.91,6.4,6.4,0,0,0-1.81,4.15A6,6,0,0,0,26,43.39,24.17,24.17,0,0,1,29,46.25a27.78,27.78,0,0,1,4.3,7.87A33.73,33.73,0,0,1,35.11,65c0,.68,0,1.37,0,2.06.13-.4.25-.81.37-1.22a29.54,29.54,0,0,0-2-13.54A30.51,30.51,0,0,0,30.74,47a19.64,19.64,0,0,0-1.83-2.34c-.28-.3-1.64-1.89-1.94-1.8a2.07,2.07,0,0,0,.73-.41,5.77,5.77,0,0,0,1.65-2.19c0,.09.07.17.1.26a5.53,5.53,0,0,0,.76,1.36,5,5,0,0,0,1.31,1.52c1.44,1.09,3.13,2.4,5.06,1.59a4.55,4.55,0,0,0,2.58-3.87,16.29,16.29,0,0,0,1,1.9A9.69,9.69,0,0,0,44,47c1.95,1,3.49.56,4.2-1.1a13.6,13.6,0,0,0,.74,2,9.84,9.84,0,0,0,1.71,2.57c1.55,1.94,3.93,1.44,5.44.28.69-.54.7-1.57,1-2.38a14,14,0,0,0,.7-3,13.44,13.44,0,0,1,.6-2.95,8.78,8.78,0,0,1,1.46-2.28c.56-.68,1.3-1.23,1.81-1.92.18-.23.36-.46.52-.7a3.62,3.62,0,0,1,.41-.27c.37-.21.81-.31,1.19-.48a10.51,10.51,0,0,0,1.77-1c.28-.2.7-.44.66-.84C66,35.05,65.87,35.14,65.72,35.22ZM28.94,39.83c0,1-1.17,2.59-2.18,2.69a.83.83,0,0,1-.22,0l-.23-.2a3.53,3.53,0,0,1-1.31-4c.05-.09.09-.18.15-.27A25.66,25.66,0,0,1,28,34.91a11.6,11.6,0,0,0,1.13,4.73A.31.31,0,0,0,28.94,39.83Zm5.59,4.66A5.59,5.59,0,0,1,32,43.08h.14c-.51,0-1.42-1.5-1.67-1.92a10.74,10.74,0,0,1-1.18-2.79,31,31,0,0,0-1.15-3.45s.11,0,.11-.08a1.36,1.36,0,0,1,0-.17l.44-.42c2.44-2.07,5.95-2.08,8.92-3,.45-.14.9-.3,1.35-.47a21.78,21.78,0,0,0-.69,3.84,35.36,35.36,0,0,0,.27,6.25C38.36,43.21,37.57,45.34,34.53,44.49Z"/><path class="cls-3" d="M59,52.89c-1.55,1-3,2.14-4.44,3.2a12.58,12.58,0,0,1-9,1.79c-2.05-.29-5.54-2.78-7.19-.47-1.53,2.13-.89,6.69-.25,8.8,1,3.32,4,4.92,7.58,4.62a15.29,15.29,0,0,0,12.08-8c1.34-2.66,1.92-4.3,2.69-6.13C60.83,55.56,61.52,51.26,59,52.89Z"/><g class="cls-7"><path class="cls-8" d="M11.59,13.46a22.51,22.51,0,0,0-1.08-3.9c0-.06-.17.07-.16.12A27.62,27.62,0,0,0,10.71,14a32.77,32.77,0,0,0,2,5.5c0,.07.2-.06.18-.12C12.38,17.44,12.15,15.43,11.59,13.46Z"/><path class="cls-8" d="M28.18,9.81a20.93,20.93,0,0,0-.11-4c0-.06-.17,0-.18.07a28.32,28.32,0,0,0-.69,4.3A32.54,32.54,0,0,0,27.86,16c0,.08.21,0,.21-.07C28,13.87,28.25,11.86,28.18,9.81Z"/><path class="cls-8" d="M6.22,11.14c-.63,1.7-1.64,3.23-2.27,4.95a51,51,0,0,0-1.66,5.4,38.8,38.8,0,0,0-.73,11c0,.09.24-.08.25-.16A64.1,64.1,0,0,1,3.32,21c.41-1.73.88-3.44,1.3-5.17s1.24-3.1,1.69-4.74C6.33,11.06,6.23,11.11,6.22,11.14Z"/><path class="cls-8" d="M6.24,34.85c0-.06-.1,0-.11,0a18.4,18.4,0,0,0-1.74,6,25.06,25.06,0,0,0,.81,8.4A35.65,35.65,0,0,0,13,63.52s.17-.07.14-.12C7.59,55.38,3.29,44.6,6.24,34.85Z"/><path class="cls-8" d="M47.53,11.67c-1.72,1-3.35,2.63-3.08,4.75,0,.13.26-.08.28-.12a14.74,14.74,0,0,1,2.84-4.58C47.62,11.67,47.58,11.64,47.53,11.67Z"/><path class="cls-8" d="M57.35,23.21a31.71,31.71,0,0,0-5.71,12.88c0,.16.25,0,.28-.11.93-2.22,1.9-4.44,2.85-6.66a48.74,48.74,0,0,1,2.71-6.13C57.53,23.1,57.38,23.18,57.35,23.21Z"/></g><path class="cls-9" d="M19,82s-2.76,2.91-2.92,9.25C16.1,91.21,19.85,98.13,19,82Z"/><path class="cls-6" d="M31.07,99.94h0a57,57,0,0,1-12-1.08c-6.58-1.58-6.39-6.71-6.39-6.76L16.16,73a24,24,0,0,1-6.25-6.46A61.67,61.67,0,0,1,1.09,21.65C3.9,7.44,13.56,0,18,0a10.59,10.59,0,0,1,6.67,2.77A19.63,19.63,0,0,1,32.49.83,11,11,0,0,1,43.27,9.3a9.28,9.28,0,0,1,3.53-.66,11.42,11.42,0,0,1,3.69.64c4.44,1.52,6.89,6.8,7.18,9.68l.55,0a10.81,10.81,0,0,1,9.67,5.69c3.59,6.54-.51,23.79-3.81,31.61-2.27,5.38-5.71,12.14-12.15,16.85C52.69,86.88,53.69,93,53.7,93.36c0,2-2.91,3.75-3.25,4l-.09,0C43.6,99.6,35.38,99.94,31.07,99.94ZM18,1C16.29,1,13,2.57,9.8,6A31.92,31.92,0,0,0,2.07,21.85,60.66,60.66,0,0,0,10.74,66,23.3,23.3,0,0,0,17,72.32a.51.51,0,0,1,.21.44L13.7,92.16c0,.17-.13,4.35,5.62,5.73a56.27,56.27,0,0,0,11.75,1c4.23,0,12.31-.33,18.92-2.52.8-.48,2.71-1.87,2.71-3,0-.37-1-7-1.79-20.5a.49.49,0,0,1,.21-.43c6.39-4.57,9.79-11.27,12-16.59C66.3,48.4,70.4,31.28,67,25.12a9.82,9.82,0,0,0-8.79-5.18,8.05,8.05,0,0,0-.95,0,.52.52,0,0,1-.4-.11.52.52,0,0,1-.17-.38c0-2.39-2.31-7.83-6.54-9.28a10.46,10.46,0,0,0-3.36-.58,7.84,7.84,0,0,0-3.6.79.49.49,0,0,1-.44,0,.48.48,0,0,1-.29-.34C41.34,5.76,38.31,2.72,34.36,2a10.25,10.25,0,0,0-1.87-.16,18.89,18.89,0,0,0-7.72,2,.52.52,0,0,1-.59-.09A9.91,9.91,0,0,0,18,1Z"/></g></g></g></svg>