<svg xmlns="http://www.w3.org/2000/svg" xmlns:xlink="http://www.w3.org/1999/xlink" viewBox="0 0 67.39 151.74"><defs><style>.cls-1{isolation:isolate;}.cls-2{fill:#efc7b0;}.cls-10,.cls-3{fill:#fbd4b8;}.cls-4{fill:#ecae9d;opacity:0.3;}.cls-4,.cls-8{mix-blend-mode:multiply;}.cls-5,.cls-8{opacity:0.4;}.cls-10,.cls-5,.cls-6{mix-blend-mode:screen;}.cls-5{fill:url(#linear-gradient);}.cls-6{fill:#ea9398;opacity:0.7;}.cls-7{fill:#e37e5a;}.cls-8{fill:#f9b38f;}.cls-9{fill:#e47f5a;}.cls-10{opacity:0.8;}</style><linearGradient id="linear-gradient" x1="13.14" y1="139.71" x2="37.03" y2="139.71" gradientUnits="userSpaceOnUse"><stop offset="0" stop-color="#ffc6a5"/><stop offset="1" stop-color="#f9b09b"/></linearGradient></defs><title>Scissors</title><g class="cls-1"><g id="Laag_2" data-name="Laag 2"><g id="Layer_1" data-name="Layer 1"><path class="cls-2" d="M14.92,120.43l-3.75,23.5s-.25,4.75,6,6.25,21.25,1.75,31-1.5c0,0,3-1.75,3-3.5,0,0-1.5-25.5-2.25-25.25S14.92,120.43,14.92,120.43Z"/><path class="cls-3" d="M14.92,120.43l-3.75,23.5s-.25,4.75,6,6.25,21.25,1.75,31-1.5c0,0,3-1.75,3-3.5,0,0-1.5-25.5-2.25-25.25S14.92,120.43,14.92,120.43Z"/><path class="cls-4" d="M48.92,119.93c-.52.17-17,.35-26.85.44a12.4,12.4,0,0,0,5.7,7c3.6,2,7.62,2.21,11.55,3,6.88,1.44,5.63-18.69,5.92,15.09A6.22,6.22,0,0,1,43,150a40.9,40.9,0,0,0,5.16-1.31s3-1.75,3-3.5C51.17,145.18,49.67,119.68,48.92,119.93Z"/><path class="cls-5" d="M31.16,132.51c4,0,5.16,4.33,5.16,4.33s1.33-5.83.33,4.5-17.83,7.34-17.83,7.34c-6.17-1.17-5.67-6.67-5.67-6.67l2.5-6.83s-.08-5.17,2.59-4.84C20.72,130.66,31.16,132.51,31.16,132.51Z"/><path class="cls-6" d="M17,133.76s-2.75,2.92-2.92,9.25C14.07,143,17.82,149.93,17,133.76Z"/><path class="cls-3" d="M41.91,1.59C37.39-1.51,30.43,1.83,28.74,14c-2.11,15.2-8.5,57-8.5,57l17.9.62S39.22,58,40.63,43.76,46.42,4.69,41.91,1.59Z"/><path class="cls-3" d="M65.66,76.68A10.4,10.4,0,0,0,55.41,71.3c0-2.75-2.5-8.25-6.87-9.75a9.35,9.35,0,0,0-7.38.25c-4.33.71-3.75-7.62-8.5-8.5-3-.55-6.9,3.91-9.42,7.3,0,.58-.09,1.16-.16,1.74-.14,1.15-.75,2.34-2,2.4-.78,0-1.27-.59-1.59-1.51-1-9.34-3.07-30.29-3.74-43.47C15,5,7.84,1.33,3.33,5-2.17,9.51,2.17,32.36,3,46.68a164.07,164.07,0,0,1-.46,24.56c-.19.77-.37,1.58-.54,2.44-2.88,14.5-2.09,31.25,6.54,44.37s25.75,11.5,25.75,11.5c17.87-.37,25.46-16,27.71-23S69.16,83.05,65.66,76.68Z"/><path class="cls-7" d="M29.05,151.74h0a56.48,56.48,0,0,1-12-1.08c-6.58-1.58-6.39-6.71-6.39-6.76l3.47-19.28a24.16,24.16,0,0,1-6-6.29C-2.23,102.58-.47,83.53,1.51,73.58c.17-.86.35-1.68.55-2.46A166.22,166.22,0,0,0,2.5,46.71c-.21-3.55-.62-7.58-1.06-11.83C.08,21.75-1.33,8.18,3,4.62A6.07,6.07,0,0,1,6.85,3.18c3.94,0,8.78,4.34,9.4,16.56C16.89,32.5,18.86,52.37,20,63.12a1.66,1.66,0,0,0,.79,1.08c1.77-11.6,5.87-38.68,7.47-50.26C29.67,3.65,34.65,0,38.49,0a6.52,6.52,0,0,1,3.7,1.18c3.53,2.42,2.28,15,.12,32.45-.46,3.68-.89,7.16-1.19,10.18-.51,5.17-1,10.95-1.59,17.17a2,2,0,0,0,1.47.34,9,9,0,0,1,4-.87,11.39,11.39,0,0,1,3.68.63c4.44,1.52,6.9,6.8,7.19,9.68h.54a10.79,10.79,0,0,1,9.67,5.69c2.55,4.64,1.33,14.81-3.63,30.22-1.14,3.57-4.66,12.44-12.57,18.22.76,13.78,1.76,19.9,1.77,20.28,0,2-2.91,3.75-3.24,4l-.1,0C41.58,151.4,33.35,151.74,29.05,151.74ZM6.85,4.18A5,5,0,0,0,3.65,5.4C-.28,8.61,1.16,22.51,2.43,34.77c.44,4.27.86,8.31,1.07,11.88A166.05,166.05,0,0,1,3,71.29c-.2.84-.38,1.64-.55,2.49-1.94,9.8-3.69,28.54,6.47,44A22.87,22.87,0,0,0,15,124a.51.51,0,0,1,.21.44L11.67,144c0,.17-.12,4.35,5.62,5.73a55.69,55.69,0,0,0,11.76,1.05c4.23,0,12.3-.33,18.92-2.52.79-.48,2.7-1.87,2.7-3,0-.38-1-7-1.79-20.51a.51.51,0,0,1,.21-.44c7.83-5.6,11.3-14.36,12.43-17.87,6.06-18.87,5.36-26.42,3.7-29.44a9.81,9.81,0,0,0-8.79-5.17,7.55,7.55,0,0,0-.94,0,.48.48,0,0,1-.4-.12.49.49,0,0,1-.18-.38c0-2.38-2.3-7.82-6.53-9.27A10.29,10.29,0,0,0,45,61.45a7.86,7.86,0,0,0-3.61.79.49.49,0,0,1-.17.06,3,3,0,0,1-2.55-.71.48.48,0,0,1-.17-.43c.55-6.32,1.09-12.2,1.61-17.45.3-3,.73-6.51,1.18-10.2,1.62-13,3.62-29.24.31-31.51a5.54,5.54,0,0,0-3.13-1c-3.43,0-7.92,3.43-9.26,13.08C27.6,25.81,23.42,53.46,21.69,64.8a.5.5,0,0,1-.45.42l-.13,0h0c-.71,0-1.56-.32-2.08-1.84a.53.53,0,0,1,0-.12c-1.12-10.74-3.09-30.69-3.74-43.49C14.7,9,10.63,4.18,6.85,4.18Z"/><path class="cls-8" d="M65.66,76.68A10.4,10.4,0,0,0,55.41,71.3c0-2.75-2.5-8.25-6.87-9.75a9.35,9.35,0,0,0-7.38.25A2.51,2.51,0,0,1,39,61.21c.43-4.94,1-11.14,1.62-17.45C42,29.51,46.42,4.69,41.91,1.59S30.43,1.83,28.74,14c-1.61,11.55-5.68,38.45-7.54,50.71l-.12,0c-.78,0-1.27-.59-1.59-1.51-1-9.34-3.07-30.29-3.74-43.47C15,5,7.84,1.33,3.33,5-2.17,9.51,2.17,32.36,3,46.68a164.07,164.07,0,0,1-.46,24.56c-.19.77-.37,1.58-.54,2.44-2.88,14.5-2.09,31.25,6.54,44.37s25.75,11.5,25.75,11.5c17.87-.37,25.46-16,27.71-23S69.16,83.05,65.66,76.68ZM39.39,64.42a.45.45,0,0,1,.4-.24c1.48-1.88,3.64-3.09,6.18-1.72C49,64.12,47.73,68,46,70.24,43.53,73.32,39.8,74,36.07,74,34.18,74,39,65.2,39.39,64.42ZM25,57.55c0-.87.11-1.7.15-2.41a.53.53,0,0,1,.14-.31c.32-2.51.81-5,1.24-7.49.51-3,.72-5.88,1-8.85a180.39,180.39,0,0,1,3-23.4c.36-1.72,1.11-6.16,2.77-8.93a9.2,9.2,0,0,1,1-1.53c2.26-2.71,6-1.85,6.4,1.85.8,7.22-.56,14.92-1.53,22.07-.84,6.14-1.6,12.35-3,18.4A69.57,69.57,0,0,1,33.7,58.44c-.68,2.41-1.39,4.92-4.21,5.49-1.92.39-3-.17-3.71-1.2a.81.81,0,0,1-.14-.12C24.6,61.54,24.82,59.05,25,57.55ZM3.06,80.08c.56-3,1.63-6,1.9-9,.11-1.21.17-2.43.23-3.65a4.6,4.6,0,0,1,0-.84c0-.61.06-1.22.09-1.83-.09-2.63,0-5.3-.06-7.93-.25-8.61-1-17.13-1.65-25.72-.35-4.55-.64-9.11-1-13.67a26.23,26.23,0,0,1,.06-7.19c.52-2.51,3.17-6.66,6-3.65,2.35,2.54,2.74,6.69,3.09,10,.52,5,1.06,10,1.64,15.06.92,7.8,1.11,15.68,2.13,23.47a42.5,42.5,0,0,1,.7,8.23,11.6,11.6,0,0,1-1.88,5.52A36.87,36.87,0,0,1,26,65.61c2.24-.29,4.89-.89,7.07,0,1.82.71,1,2.91-.08,3.93-2.67,2.5-6.3,1.91-9.58,2.82a28.76,28.76,0,0,0-6.31,2.61c-2.7,1.92-5.33,3.92-7.85,6.07-1.47,1.63-2.92,4.08-5,4.78C1.88,86.6,2.92,80.81,3.06,80.08Zm21.36,27.45c1,3.25,2.71,9,.89,12.29-3,5.43-10,2.16-12.65-.48C8.41,115.2,3.9,106.94,3.24,101c-.63-5.7,2.31-11.12,6.1-15.17A43.43,43.43,0,0,1,13,82.36a30.58,30.58,0,0,1,5.92-4c5.56-2.72,12.84-1.86,18.93-1.78,1.55,0,5-.32,5.75,1.42s-.52,2.71-2,4c-4.27,3.74-10.43,3.3-15.12,6.21C19,92.89,22.41,100.85,24.42,107.53ZM32,91.63a4.36,4.36,0,0,1,.63-1.38c.12-.25.23-.49.31-.7a.54.54,0,0,1,.69-.31,9.58,9.58,0,0,1,3.23-1.34c.95-.23,2.95-1,3.9-.4,1.25.8.68,1.91,0,3-1.47,2.56-4.54,6.05-8,5C31,94.85,31.35,93.18,32,91.63Zm17.26,29.46a24.63,24.63,0,0,1-5.11,3.82,14.61,14.61,0,0,1-5.64,2c-3.83.14-5.49-2.67-4.85-6.27.76-4.26,3.68-5.62,7.59-6.6a19.07,19.07,0,0,0,8-3.71c1.21-1,4.1-6.21,5.41-3C56.64,112.1,52.44,118,49.24,121.09Zm13-35.89a.51.51,0,0,1-.84-.22,14.88,14.88,0,0,1-.7-4C59.29,84,57,86.48,54.85,89c-1.49,1.75-4.18,5.32-6.93,4.72s-4-2.54-2.73-5a73.74,73.74,0,0,1,4.92-8.17C51,79,52,77.46,52.94,76c.62-.95,1.49-2.64,2.51-3.24,1.88-1.09,4,0,5.57,1.18C64,76.11,65.6,82.59,62.26,85.2Z"/><path class="cls-8" d="M17.45,79.16c.47-.28,1-.55,1.44-.79a20,20,0,0,1,6.84-1.78,15.61,15.61,0,0,0-6.85,1.66C18.39,78.54,17.91,78.84,17.45,79.16Z"/><path class="cls-8" d="M8.65,4.26c2.63,2.11,3.76,5.17,4.41,8.39.72,3.62,1.24,7.26,1.68,10.92C15.82,32.73,16.31,42,17.45,51.1c.65,5.17,2.09,11.18-.13,16.11a15.43,15.43,0,0,1,6.94-2.32,9,9,0,0,1-2.45-4.23c-.22,1.48-.43,2.85-.61,4.06l-.12,0c-.78,0-1.27-.59-1.59-1.51-1-9.34-3.07-30.29-3.74-43.47C15.23,9.57,11.65,4.67,8,3.82A6.2,6.2,0,0,1,8.65,4.26Z"/><path class="cls-8" d="M38.48,65.71a16.14,16.14,0,0,1,3-4l-.27.13A2.51,2.51,0,0,1,39,61.21c.43-4.94,1-11.14,1.62-17.45C42,29.51,46.42,4.69,41.91,1.59a6.07,6.07,0,0,0-2.59-1c2.43,1.14,3.21,3.56,3.26,6.15.08,4.24-.75,8.49-1,12.72-.7,10.6-2.45,21.08-3.63,31.63a64.4,64.4,0,0,0-.56,7.32c0,1,.19,2.68-.43,3.54a7.08,7.08,0,0,1-3.32,2.29,25.59,25.59,0,0,1,2.6.31.49.49,0,0,1,.35.61,17.19,17.19,0,0,1-3.32,5.74c-1.48,1.53-3.44,1.67-5.45,2-5.84,1-11.2,4.07-16,7.4a30.7,30.7,0,0,0-6.42,5.61c-.61.75-1.8,2.4-3,2.07a2.83,2.83,0,0,1-1.8-1.6,65.61,65.61,0,0,0,.72,12.2C2.9,92.25,7.69,86.49,12.14,82.28c3.45-3.26,7-6,11.84-6.53,3-.32,6-.34,9-.36.59-.28,1.2-.52,1.82-.75A40.59,40.59,0,0,1,38.48,65.71Z"/><path class="cls-8" d="M66.73,80.36c-.55,3.34-2.62,6.49-5.78,7.55a.51.51,0,0,1-.63-.48,10.91,10.91,0,0,1,0-1.4,13,13,0,0,1-4.58,4.91,26.1,26.1,0,0,0-5.49,4.42,14.72,14.72,0,0,1-4.33,3.56c-3,1.28-4.83-1-3.91-4a32.15,32.15,0,0,1,4.54-8.63c1.11-2,2.33-3.84,3.59-5.71C51,79,52,77.46,52.94,76a25.31,25.31,0,0,1,1.57-2.36,16.7,16.7,0,0,1,2-2.35,7.7,7.7,0,0,0-1.09,0,12.14,12.14,0,0,0-5.72-9.23,12.19,12.19,0,0,1,1,1.91,11.31,11.31,0,0,1,.48,8.6c-1.11,2.76-2.42,3-5.12,2.22a18.16,18.16,0,0,0-10.29.55c1.06,0,2.12,0,3.19-.1,2.43-.13,7.11-.45,7.06,3.09,0,3.17-4.15,5.77-6.64,6.8-5,2-10.87,2.67-13.63,7.92a17.79,17.79,0,0,0-1.59,4.41,5.77,5.77,0,0,0,0,.72c.19,2.32,1.31,3.76,2.58,5.58a23.31,23.31,0,0,1,3.56,8.43c.09.42.16.85.23,1.27a52.2,52.2,0,0,0-.55-5.21c-.64-4.23-2.48-8.44-.68-12.63.2-.48.92-.2.93.26,0,2.21.18,4.88,1.46,6.79,2,3,5.33,2.36,6.86-.67a.5.5,0,0,1,.91.12c.62,2.94,2.18,4.07,4,4.12,3.36-.35,6.78-5.35,8.78-7.36,1.8-1.82,6-5.27,6.84-.7a37.71,37.71,0,0,1-.66,14.62c-.21.94-.46,1.88-.74,2.82A40.91,40.91,0,0,0,62,106.51C63.89,100.61,67.68,88,66.73,80.36ZM38.11,97.63c-.87,1.65-2.46,3.93-4.68,3.21-1.79-.57-2.53-2.19-2.66-4.06a8.61,8.61,0,0,1,0-2.91c.22-1.31.37-3.32,1.3-4.37,1.09-1.22,3.1-1.33,4.57-1.84A26.67,26.67,0,0,1,43.07,86a.5.5,0,0,1,.43.75C41.42,90.28,40,94,38.11,97.63Z"/><path class="cls-9" d="M62.16,88.08a10.54,10.54,0,0,1-1.54.57c0-.06-.09,0-.12,0l0,0-1.2.32a.87.87,0,0,0-.38.27h0a8.58,8.58,0,0,0,1.74-4.2c0-.25,0-.51,0-.77a2.05,2.05,0,0,0-.29-.47A14.07,14.07,0,0,1,58,89.56a6.41,6.41,0,0,1-.39.52c-1.51,1.3-3.1,2.51-4.54,3.89-1.87,1.79-3.21,4.2-4.65,6.34-.35.51-.73,1-1.13,1.58a4.17,4.17,0,0,1-1.16,1.34,5,5,0,0,1-4.37,1.63c-2.5-.38-2.15-3.93-1.9-5.6.09-.56.21-1.11.34-1.65A24.09,24.09,0,0,1,43,91.13c1.57-2.41,3.23-4.76,4.82-7.17,1.46-2.2,2.83-4.47,4.2-6.73.31-.51.66-1,1-1.58.43-.78.89-1.54,1.37-2.29a6,6,0,0,1,1-1.43l.42-.55a.2.2,0,0,0-.15,0,2.62,2.62,0,0,0-1.29,1.08,24.42,24.42,0,0,0-2,3s0,0,0,0c-1.63,2.38-3,4.88-4.6,7.3-.44.68-.86,1.37-1.26,2.06a42.65,42.65,0,0,0-4.95,7.7.05.05,0,0,1,0,0v0a12.69,12.69,0,0,0-.83,1.8,40.15,40.15,0,0,0-1.65,4.52c-.66,2.22-2.71,7.42-6,4.15a9.51,9.51,0,0,1-2.15-4.37,13.94,13.94,0,0,1,.12-5.57c.07-.44.7-2.91,1-4.44a9.55,9.55,0,0,1,2.49-1c1.48-.34,3-.71,4.42-1.17,2-.63,4.36-1.41,5.71-3.14,1.6-2.05,4.17-5.29,1.76-7.78-1.23-1.25-3.59-.86-5.15-.76a44.64,44.64,0,0,1-6.54-.13h0C36,70.38,38.05,65.42,41.07,62l-.49.34a18.79,18.79,0,0,0-3,4.4c-1.24,2.36-2.94,5.27-3.32,8,0-.13-6.47,0-7.08,0a24.32,24.32,0,0,0-8.08,1.79c-3.56,1.6-6.41,4.58-9.2,7.22A35.89,35.89,0,0,0,5.5,89a45,45,0,0,1-3.61,5.1s0,.06,0,0a16.78,16.78,0,0,0,1.84-2.34C5,90.18,6.26,88.58,7.51,87c3-3.74,7.08-7.72,11.39-9.8,4.15-2,8.65-1.9,13.14-1.74,1,0,2,0,3,0l1.8.08c.92,0,1.84,0,2.75,0h0c.91,0,1.83,0,2.74,0,2.31.09,3.89,0,4.17,2.78.16,1.65-.93,3.39-2.27,4.69a18.9,18.9,0,0,1-4.94,2.69c-.76.21-1.53.38-2.3.54a15.11,15.11,0,0,1-1.49.46c-.89.24-1.83.4-2.71.71A11,11,0,0,0,28,91.06c-1.25,1.56-2.54,3.37-2.72,5.42a9.7,9.7,0,0,0,.41,3.75c.53,1.49,1.42,2.76,2.07,4.18a11.23,11.23,0,0,1,.38,1.06C30.46,111,30.61,117.1,30,123l.42-.9A30,30,0,0,0,30,107.72a31.39,31.39,0,0,0-2.17-5.51A16.21,16.21,0,0,1,26,98.48a6.39,6.39,0,0,1,.93-4.31c.31-.61.73-1.37,1.22-2.16a14.29,14.29,0,0,1,3.18-2.89c-1.14,3.38-1.67,7.45-.79,10.76.66,2.5,2.91,6.11,5.85,4.24a7.42,7.42,0,0,0,2.82-3.89c-.35,3,.75,5.92,4.35,5a7.25,7.25,0,0,0,3.55-2.48c.31-.45.64-.89,1-1.31.62-.87,1.18-1.75,1.68-2.49a36.34,36.34,0,0,1,3.56-4.71,19.42,19.42,0,0,1,2.55-2.16c.59-.55,1.22-1.05,1.85-1.54a5.87,5.87,0,0,1,1.64-1.07,18.28,18.28,0,0,0,2.52-.87,4,4,0,0,0,.7-.49,2.86,2.86,0,0,1,.07-.28Z"/><path class="cls-10" d="M5.53,34.92c-.3-4.93-.22-9.87-.72-14.79-.43-4.2-1.77-9.13.37-13,.05-.09-.1,0-.13,0C3,10.25,3,13.52,3.31,17.19,3.8,22.62,4.26,28,4.62,33.46,5.3,43.72,6.29,53.9,6.54,64.18c0,.06.15,0,.15-.09C6.79,54.38,6.1,44.61,5.53,34.92Z"/><path class="cls-10" d="M36.59,4.11c-5.41,4.63-5.2,13.78-6.18,20.21C29.05,33.17,27.84,42,27,50.94c0,.13.22,0,.23-.11,1.08-7.73,1.91-15.53,3.29-23.23.71-3.94,1.29-7.87,1.88-11.83S33.75,7,36.65,4.15C36.72,4.08,36.64,4.06,36.59,4.11Z"/><path class="cls-10" d="M21.16,78.49A26.71,26.71,0,0,0,8,89.7a25.24,25.24,0,0,0-3.49,9.4C4,102.59,5.57,105.84,7,108.91c0,0,.17-.07.15-.12A20.53,20.53,0,0,1,8,91.13c2.86-5.76,7.6-9.71,13.19-12.6C21.17,78.52,21.2,78.48,21.16,78.49Z"/><path class="cls-10" d="M43.36,62.54c-1.32,0-2.13,1-3,1.9-1.45,1.45-2,3.62-2.48,5.54,0,.12.19,0,.22-.08,1.23-2.66,2.2-6.08,5.21-7.26C43.33,62.63,43.43,62.54,43.36,62.54Z"/><path class="cls-10" d="M57.93,73.46c-2.29.37-3.63,2.28-5,4a64.89,64.89,0,0,0-5.39,8.66c-.06.11.14,0,.17,0,1.4-2,2.83-4,4.13-6,1.55-2.47,3.35-5.2,6-6.49C57.93,73.55,58,73.44,57.93,73.46Z"/><path class="cls-10" d="M52.29,115.6a28.18,28.18,0,0,1-14.14,10c-.08,0-.38.32-.19.31,5.52-.41,11.84-5.63,14.41-10.34C52.4,115.53,52.3,115.58,52.29,115.6Z"/></g></g></g></svg>