<?xml version="1.0" encoding="utf-8"?>
<!-- Generator: Adobe Illustrator 24.1.0, SVG Export Plug-In . SVG Version: 6.00 Build 0)  -->
<svg version="1.1" id="Laag_1" xmlns="http://www.w3.org/2000/svg" xmlns:xlink="http://www.w3.org/1999/xlink" x="0px" y="0px"
	 viewBox="0 0 152.8 117.3" style="enable-background:new 0 0 152.8 117.3;" xml:space="preserve">
<style type="text/css">
	.st0{fill-rule:evenodd;clip-rule:evenodd;fill:#0C0C0B;}
	.st1{fill:#01B7CF;}
	.st2{fill:#08A6B2;}
	.st3{fill:#97FDFF;}
	.st4{fill:none;}
	.st5{fill:#0C0C0B;}
	.st6{fill:#F4C807;}
	.st7{fill:#F7DE72;}
	.st8{fill:#FFFFFF;}
</style>
<g transform="translate(-22.628 -40.996)">
	<path class="st0" d="M90.7,41c0.6,0.3,0.9,0.6,0.4,1.1C90.4,43,89.5,41.3,90.7,41 M101.4,41.8C103.9,42.9,100.3,43.7,101.4,41.8
		 M112.6,42.5C114.7,43.8,110.6,44.2,112.6,42.5 M84.9,46C87.6,47.8,82.3,47.7,84.9,46 M95.4,46.7c1,0.1,1.9,1,0.6,1.6
		C94.8,48.7,94.9,47.3,95.4,46.7 M106.4,47.5C110,47.8,104.3,50.6,106.4,47.5 M117.4,48.3c0.3,0.1,1.1,0.3,1.1,0.7
		C117.7,50.7,116.5,49.6,117.4,48.3 M73.9,45.3c0.6,0.3,0.9,0.6,0.3,1.1C73.3,47.2,72.9,45.6,73.9,45.3 M128.6,49.2
		C131.2,51,126.2,50.2,128.6,49.2 M90,51.6c1.1,0.3,1.2,1.3,0.5,2.1C89,53.9,88.3,51.9,90,51.6 M100.5,52.3c1,0.1,2,0.9,1.2,1.8
		C100.5,55.5,99.3,53.4,100.5,52.3 M111.6,53.1c1.3,0.2,1.5,1.2,0.7,2.1C110.8,55.4,110.1,53.7,111.6,53.1 M78.9,50.9
		c0.8,0.3,1.6,1.9,0.2,1.8C77.9,52.6,77.9,51.3,78.9,50.9 M122.5,54c0.7,0.1,1.6,0.8,0.9,1.6C122.4,56.7,121.5,55.1,122.5,54
		 M133.7,54.9C136.3,56.6,131.3,56.5,133.7,54.9 M67.8,50.4C70.3,51.5,66.6,52.4,67.8,50.4 M94.7,57.2c1.4,0.3,2.7,2.4,0.5,2.6
		C93.4,60,93.3,57.8,94.7,57.2 M105.6,58c1.3,0.3,2.7,2.2,0.7,2.6C104.5,61,104.2,58.7,105.6,58 M83.9,56.5c1.8,0.4,1.8,2.1,0,2.4
		C82.6,58.3,82.9,57.3,83.9,56.5 M116.5,58.8c1.2,0.1,2.3,0.8,1.3,2C116.6,62.3,115,60.3,116.5,58.8 M127.9,59.8
		c1.2,0.4,1.1,1.3,0.3,2.1C126.8,61.8,126.2,60.1,127.9,59.8 M72.8,56c1,0,1.8,0.7,1,1.7C73,58.7,71.9,57.1,72.8,56 M138.8,60.8
		c1.1,0.6,0.9,0.8,0.1,1.6C137.6,62.3,138,61.3,138.8,60.8 M62,55.5C64.7,56.1,60.5,58,62,55.5 M89.2,62.1c1.7,0.6,2.1,3.2-0.1,3.1
		C86.7,65.1,87.9,62.7,89.2,62.1 M99.7,62.8c1.5,0.3,3.2,2,1.1,3S97.8,63.9,99.7,62.8 M110.9,63.6c1.6,0.4,2.8,3,0.2,3.1
		C108.8,66.8,109.6,64.4,110.9,63.6 M78,61.5c1.7,0.4,1.8,1.4,0.8,2.6c-0.7,0.2-1.5-0.2-1.7-0.9S77.3,61.7,78,61.5
		C78,61.5,78,61.5,78,61.5 M121.5,64.6c1.3,0,2.7,1.6,1,2.5C120.8,68.2,120.3,65.6,121.5,64.6 M67.3,61c0.6,0.1,0.9,0.6,0.9,1.1
		c0,0.2-0.2,0.5-0.3,0.6C66.6,63.8,65.9,61.9,67.3,61 M132.6,65.6c0.8,0.1,1.8,0.7,1.2,1.7C132.8,68.8,130.8,66.8,132.6,65.6
		 M143.9,66.6c1.1,0.6,0.9,0.8,0.1,1.6C142.7,68.1,143.1,67.2,143.9,66.6 M56.1,60.6c0.5,0,0.9,0.4,1,0.8
		C56.4,62.5,55.5,61.6,56.1,60.6 M94,67.7c2.1,0.2,3.2,3.2,0.8,3.6c-1.1,0.2-1.6-0.4-2.3-1.2C92.5,68.7,92.8,68.5,94,67.7
		 M104.8,68.4c2.2,0.1,3.3,3.3,0.8,3.6C102.9,72.3,103,69.6,104.8,68.4 M83.3,67c1.7,0.3,2.6,2.8,0.5,3.3
		C81.2,70.9,81.4,67.8,83.3,67 M115.7,69.3c2,0.1,3.2,2.9,0.9,3.3C114.1,73.1,114.1,70.4,115.7,69.3 M126.9,70.3
		c2.3,0.5,1.6,3.5-0.3,2.8C125.1,72.6,125.6,70.7,126.9,70.3 M72.1,66.6c1.1,0.2,2.7,1.2,1.3,2.4C71.6,70.5,70.7,67.9,72.1,66.6
		 M61.6,66.1c0.9,0.6,1.2,2.6-0.4,2C59.8,67.6,60.8,66.4,61.6,66.1 M137.7,71.5c0.8,0.1,1.7,0.6,1.2,1.6
		C138,74.5,136,72.9,137.7,71.5 M149,72.5C151.3,74.3,146.7,74,149,72.5 M50.5,65.7c0.8,0.5,1,0.8,0.1,1.4
		C49.7,67,49.6,65.9,50.5,65.7 M98.8,73.3c2,0,4.1,2.8,1.5,3.9c-1,0.4-2.1,0.2-2.9-0.6C97.1,74.9,97.5,74.3,98.8,73.3 M110.1,74.1
		c1.9,0.5,3.4,3.3,0.7,4.1C107.7,79,107.8,75.1,110.1,74.1 M88,72.6c1.2,0.2,2.1,0.3,2.4,1.7c0.1,0.9-0.3,1.7-1.1,2.1
		C86.6,77.5,85.5,73.7,88,72.6 M120.9,75.1c2,0.5,2.8,2.9,0.3,3.7C118.8,78.4,119.2,76.1,120.9,75.1 M77.2,72.1
		c1.8,0.3,3.2,3,0.7,3.4C75.4,76,75.6,73.1,77.2,72.1 M132,76.2c2.1,0.4,1.9,2.4,0,2.9C130.7,78.6,130.1,76.5,132,76.2 M66.2,71.7
		c1.6,0.3,2.1,1.1,1.2,2.5C65.3,74.5,64.8,73.1,66.2,71.7 M143.1,77.4c1.2,0.7,1.3,2.1-0.4,2.1C141.9,78.7,141.9,77.6,143.1,77.4
		 M55.4,71.3c1,0.1,1.4,0.8,0.8,1.8C54.8,73.3,54.2,72.3,55.4,71.3 M154,78.5c0.8,0.4,0.8,0.6,0.3,1.2
		C153.2,79.9,153.1,78.9,154,78.5 M93.2,78.1c2.4,0.2,3.8,3.5,1.1,4.5c-1.3,0.1-2.4,0.2-2.9-1.3C90.8,79.6,91.9,78.9,93.2,78.1
		 M104,78.9c2.6,0.1,3.9,3.9,0.9,4.6C101.7,84.3,101.6,80.1,104,78.9 M115.3,79.8c2.2,0.6,3.1,3.9,0.3,4.3
		C112.5,84.6,112.9,80.7,115.3,79.8 M82.2,77.6c2,0.1,3.8,2.4,1.6,3.7c-0.8,0.6-1.9,0.5-2.6-0.1C79.7,79.9,80.9,78.4,82.2,77.6
		 M126,80.9c1.6,0.4,3.2,2.6,0.9,3.5c-0.8,0.4-1.7,0.1-2.1-0.7c0,0,0,0,0-0.1C124,82.3,124.9,81.6,126,80.9 M71.3,77.2
		c2,0.4,3.1,3.3,0.4,3.4C69.4,80.7,70,78.1,71.3,77.2 M60.7,76.8c1.1,0.5,2,2,0.3,2.4C59.2,79.6,59.1,77.1,60.7,76.8 M136.8,82.2
		c2.2,0.4,2.3,2.4,0.1,2.7C135.5,84.1,135.9,83.2,136.8,82.2 M148,83.3c1,0.1,1.6,1.2,0.5,1.7C147.4,85,146.6,83.9,148,83.3
		 M49.5,76.5c0.6,0,1.3,0.2,1,1.1C49.6,78.9,48.7,77.7,49.5,76.5 M98.4,83.8c3.1,0.3,3.6,4.7,0.4,5.2C95.1,89.4,95.7,84.8,98.4,83.8
		 M87.6,83.1c1.3,0.4,2.1,0.7,2.4,2.1c0.1,1.1-0.5,2.1-1.6,2.5C85.2,89,84.5,84.2,87.6,83.1 M109,84.6c2.8,0.1,4.2,3.6,1.1,4.7
		C106.7,90.5,106.3,86,109,84.6 M120.3,85.7c2.5,0.7,3,4.7-0.1,4.3C117.1,89.6,118.3,86.5,120.3,85.7 M76.4,82.7
		c2.6,0.1,3,2.6,1.1,4c-1,0.5-1.8-0.2-2.5-0.8C74.6,84.2,75,83.5,76.4,82.7 M131,86.9c1.5,0.3,3.3,2.2,1.1,3.2
		C129.8,91.3,129,88.1,131,86.9 M65.3,82.4c1.2,0.2,3.2,1.4,1.6,2.8C65,86.8,63.4,83.9,65.3,82.4 M54.8,82c1,0.3,1.9,2,0.2,2.3
		C53.5,84.6,53.3,82.3,54.8,82 M141.9,88.2c1.3,0.3,2.5,1.9,0.7,2.3c-0.7,0.1-1.3-0.4-1.4-1C141.1,88.9,141.4,88.4,141.9,88.2
		 M153,89.3C156,89.9,151,92.2,153,89.3 M43.6,81.7C46.4,82.3,42.2,84.1,43.6,81.7 M92.6,88.7c3.2,0.3,3.7,4.8,0.7,5.3
		C89.3,94.8,89.4,89.9,92.6,88.7z M103.4,89.5c1.5,0,2.7,1.2,2.8,2.7c0,1.4-1,2.6-2.4,2.7C100.5,95.3,100,90.8,103.4,89.5
		L103.4,89.5z M81.8,88.2c2.6,0.4,3.6,4.2,0.6,4.7C79,93.5,79,89.2,81.8,88.2 M114.1,90.5c4.4,0.1,3.1,6.1-0.8,4.6
		C111.3,93.6,112.2,91.4,114.1,90.5z M125.1,91.6c1.2,0.3,2,0.3,2.3,1.7c0.2,1-0.4,2-1.4,2.3c-0.2,0-0.4,0.1-0.7,0
		C122.6,95.5,123.4,92.6,125.1,91.6 M70.6,87.9c1.7,0.3,3.8,2.6,1.2,3.6c-1,0.3-2,0-2.6-0.8C68.8,89.6,69.4,88.4,70.6,87.9
		 M136,92.9c1.4,0.1,2.8,1.7,1.2,2.8C135.3,97.1,134.2,94.2,136,92.9 M59.7,87.6c1.6,0.4,2.2,1.1,1.2,2.7
		C58.9,90.8,57.7,88.9,59.7,87.6 M147.1,94.2c0.9,0,1.9,1,1,1.8c-0.7,0.6-1.1,0.2-1.7-0.3C146.2,94.9,146.5,94.8,147.1,94.2
		 M48.7,87.3c1.1,0.1,1.5,0.9,0.9,1.8C48.2,89.3,47.6,88.4,48.7,87.3 M158.3,95.3c0.6,0.3,0.9,0.6,0.3,1.1
		C157.7,97.2,157.4,95.6,158.3,95.3 M97.6,94.5c3.7,0.2,3.8,5,0.7,5.6C94.7,100.7,93.9,95.9,97.6,94.5z M86.7,93.8
		c3.4,0.3,3.5,4.8,0.5,5.3C83.9,99.6,83.3,95.2,86.7,93.8z M108.4,95.4c3.6,0.1,3.8,4.8,0.8,5.3C105.3,101.4,105.3,96.6,108.4,95.4z
		 M75.9,93.4c3.1,0.3,2.9,3.8,0.3,4.5c-1,0.1-2-0.6-2.3-1.6C73.5,94.8,74.6,94,75.9,93.4 M119,96.5c2.7,0.1,4.2,3.8,1,4.5
		c-1,0.2-2-0.2-2.5-1.1C116.7,98.4,117.8,97.2,119,96.5 M130.6,97.6c1.8,0.5,2.6,3.2,0.3,3.7C128.3,101.9,128,98.2,130.6,97.6
		 M64.9,93.1c2.2,0.6,2.6,3.6-0.2,3.4C62.4,96.4,63.6,93.8,64.9,93.1 M141.1,99c1.7,0.3,2.2,1.4,0.8,2.6
		C140.2,101.3,139.7,100.2,141.1,99 M53.6,93c1,0,2.2,0.6,1.5,1.8C54.2,96.4,52.2,94.6,53.6,93 M43.1,92.6c1.1,0.4,0.9,1,0.1,1.6
		C42.2,93.7,42.2,93.2,43.1,92.6 M152.1,100.3c1.3,0.1,1.6,1.5,0.2,1.7C151.5,101.5,151.5,101.1,152.1,100.3 M91.7,99.6
		c3.4,0.1,4.2,5.1,0.5,5.4c-1.3,0.1-2.5-0.7-2.9-1.9C88.9,101.1,90.2,100.3,91.7,99.6 M102.5,100.3c1.5-0.1,2.9,1,3,2.6
		c0.1,1.5-0.9,2.8-2.4,3C99.4,106.4,99.5,101.5,102.5,100.3L102.5,100.3z M81.1,99.1c3.6,0.5,2.6,5.8-0.8,4.7
		C77.3,102.7,79,99.7,81.1,99.1 M113.2,101.3c2.4,0.1,4.8,3.9,1.7,4.8c-1,0.2-2.1,0-2.9-0.7C110.2,104,111.8,102.2,113.2,101.3
		 M124.5,102.5c1.1,0.3,2.1,0.5,2.2,1.9c0.1,1.1-0.7,2.1-1.8,2.2c-0.1,0-0.1,0-0.2,0C121.7,106.7,122.5,103.4,124.5,102.5
		 M69.9,98.8c2.3,0.2,3.3,3.7,0.7,4C67.8,103,67.5,99.6,69.9,98.8 M135.6,103.8c1.9,0.5,1.8,2.1,0.5,3.2
		C133.9,106.6,133.4,104.8,135.6,103.8 M59.1,98.5c2.1,0.4,1.9,2.5,0,3.1c-0.8-0.2-1.4-1-1.2-1.9C58,99.1,58.5,98.6,59.1,98.5
		 M48.2,98.2c0.8,0.3,1.6,1.2,0.5,1.8C47.2,101,47.1,99,48.2,98.2 M146.2,105.1c1.5,0.2,1.8,0.8,0.8,2.1
		C145.5,107.1,145.2,106.2,146.2,105.1 M157.3,106.3C159.9,106.9,155.9,108.7,157.3,106.3 M96.7,105.4c2.4,0.1,4.2,3,2,4.8
		C95.5,112.8,92.5,107.4,96.7,105.4 M86,104.8c3.4,0.2,3.5,4.7,0.6,5.2C83.2,110.6,82.5,106.1,86,104.8L86,104.8z M107.4,106.3
		c3.1,0,4.7,4.6,1.1,5.3c-1.2,0.2-2.3-0.5-2.8-1.5C104.8,108.2,105.9,107.2,107.4,106.3 M119,107.4c2.3,0.8,3,4.1,0,4.6
		c-1.2,0.1-2.3-0.8-2.4-1.9C116.5,108.3,117.6,107.7,119,107.4 M75.1,104.4c2.7,0.3,3.1,4,0.2,4.3c-1.1,0.1-2.1-0.6-2.2-1.7
		c0,0,0,0,0,0C72.9,105.6,74.1,104.9,75.1,104.4 M129.8,108.6c2.6,0.8,2,3.8-0.6,3.6C127.2,111.2,127.9,109.2,129.8,108.6
		 M64.2,104.1c0.9,0.4,2,0.6,1.8,1.8c-0.2,1-0.7,1.7-1.8,1.5C62,107.1,62.4,104.7,64.2,104.1 M140.3,110c1.4,0.3,2.7,2.2,0.6,2.5
		C139.1,112.7,139.3,110.8,140.3,110 M52.9,103.9c1.6,0.1,2,1.3,0.8,2.4C52.5,106.2,51.3,104.6,52.9,103.9 M42.3,103.5
		C45,105.3,40,105.1,42.3,103.5 M151.4,111.2c0.8,0.1,1.8,0.6,0.8,1.5S150.8,111.9,151.4,111.2 M90.9,110.6c3.8,0.1,3.3,4.4,0.5,5.2
		C88.8,116.5,87.3,112.1,90.9,110.6L90.9,110.6z M101.6,111.4c3.7,0.1,3.8,4.7,0.9,5.2C98.8,117.2,99,112.7,101.6,111.4L101.6,111.4
		z M80.2,110.1c3,0.3,3,3.8,0.3,4.7C77.1,114.6,77.8,111.1,80.2,110.1 M112.4,112.4c1,0,1.9,0.4,2.6,1c0.3,1.4,0.4,3.1-1.4,3.5
		c-1.2,0.3-2.4-0.3-2.8-1.5C110.5,113.9,111.2,113.2,112.4,112.4 M123.6,113.6c1.1,0.3,1.9,0.3,2.2,1.6c0.3,0.9-0.2,1.9-1.1,2.1
		c-0.1,0-0.1,0-0.2,0c-1.3,0.4-1.7-0.3-2.4-1.2C122.2,114.6,122.2,114.3,123.6,113.6 M69,109.8c0.9,0.2,1.5,0.2,2,1.1
		c0.5,0.8,0.2,1.9-0.7,2.4c-0.3,0.1-0.6,0.2-0.8,0.2C67.2,113.4,67.2,110.8,69,109.8 M134.6,114.8c0.9,0.3,1.5,0.2,1.7,1.3
		c0.1,0.8-0.4,1.6-1.2,1.7c-0.1,0-0.2,0-0.4,0C132.6,117.6,133.5,115.6,134.6,114.8 M58.1,109.6c1.2,0.3,2.5,1.4,1,2.5
		C57.5,113.3,56.3,110.7,58.1,109.6 M145.6,116.1c1.2,0.3,1.6,1.6,0.2,2.1C144.9,117.7,144.4,116.6,145.6,116.1 M47.2,109.3
		C50.8,110,44.8,112.5,47.2,109.3 M95.9,116.6c2.6,0.1,4.2,3.7,1.2,4.5c-1,0.3-2.1,0-2.8-0.9C93.2,118.6,94.5,117.4,95.9,116.6
		 M85.1,116c3.4,0.2,3.2,5-0.2,4.6C82.1,120.3,83.4,116.8,85.1,116 M106.7,117.5c3.1,0.1,3.8,4.5,0.5,4.7
		C104.1,122.4,104.5,118.4,106.7,117.5 M118,118.6c2.3,0.4,3,3.5,0.5,4.1c-1.1,0.2-2.2-0.6-2.4-1.7C116,119.6,116.9,119,118,118.6
		 M74.1,115.6c1.7,0.1,3.4,2,1.7,3.4c-0.7,0.5-1.7,0.6-2.5,0.2C72.2,117.5,72.5,116.6,74.1,115.6 M128.6,119.8
		c2.4,0.2,2.2,1.9,0.9,3.2C127.4,122.7,126.8,121.2,128.6,119.8 M63.1,115.3c1.4,0.1,2.9,1.8,1.1,2.8
		C62.3,119.3,61.5,116.5,63.1,115.3 M139.5,121c0.9,0.1,2,0.7,1.4,1.7c-0.3,0.5-0.8,0.7-1.3,0.6C138.5,122.5,138.7,122.1,139.5,121
		 M52.1,115c0.9,0.1,2,0.7,1.2,1.7C52.3,117.9,50.9,116.3,52.1,115 M150.9,122.2c0.8,0.5,0.9,0.7,0.4,1.5
		C150.1,123.3,149.9,122.9,150.9,122.2 M90.1,122c2.7,0.1,3.5,3.7,0.7,4.3c-1,0.2-2.1-0.4-2.5-1.4C87.9,123.4,88.9,122.6,90.1,122
		 M101,122.7c1.2,0.2,2.1,0.4,2.5,1.7c0.3,1.2-0.5,2.4-1.7,2.6c-0.1,0-0.1,0-0.2,0c-1,0.1-1.9-0.5-2.3-1.5
		C98.8,124.2,99.8,123.4,101,122.7 M112.1,123.6c2.7,0.4,2.8,4.1-0.1,3.9C109.2,127.4,110.4,124.4,112.1,123.6 M79.1,121.4
		c2.6,0.1,3.1,2.6,0.9,3.9c-1,0.2-1.9-0.3-2.3-1.2C77.3,122.7,78.1,122.1,79.1,121.4 M123,124.8c1.3,0.3,2.7,2.2,0.9,3.2
		C121.6,129.1,120.6,125.6,123,124.8 M68.3,121c1.4,0.1,2.6,1.5,1.3,2.7C68,125.4,65.6,122.2,68.3,121 M133.7,126
		c1,0.1,2.4,0.9,1.3,2C133.5,129.6,132.3,127.3,133.7,126 M57.4,120.8c1.4,0.3,2.1,2.4,0.2,2.3C56,123,56.5,121.3,57.4,120.8
		 M145,127.2c1,0.6,1.2,0.8,0.5,1.7C144.4,128.7,143.6,127.7,145,127.2 M46.4,120.4c0.9,0.1,1.1,0.4,1,1.2
		C46.3,122.3,45.3,121.3,46.4,120.4 M95.6,128c2,0.8,2.7,3.9-0.1,4c-1,0.1-2.3-1.3-1.8-2.3C93.9,128.5,94.6,128.3,95.6,128
		 M106.3,128.8c2.4,0.2,2.8,3.8,0.2,3.8C103.7,132.7,104.5,129.7,106.3,128.8 M84.1,127.4c1.1,0.2,2.2,0.3,2.3,1.8
		c0,0.9-0.6,1.7-1.5,1.9C82.3,131.3,82.4,128.5,84.1,127.4 M117.2,129.9c1.8,0.5,2.6,3.3,0.1,3.4C115,133.3,115.9,130.6,117.2,129.9
		 M73.3,126.9c1.9,0.3,2.4,1.5,1.3,3C72.2,130.2,71.3,128.3,73.3,126.9 M128.3,131c1.9,0.7,1.4,2.4-0.4,2.7
		C126.7,132.9,126.7,131.2,128.3,131 M62.5,126.5c1.1,0.3,1.9,1,1.1,2.1C62.6,129.8,60.5,127.9,62.5,126.5 M51.6,126.1
		c0.5,0.1,1.1,0.5,0.9,1.2C51.6,128.6,50.3,127.2,51.6,126.1 M138.9,132.3c1.3,0.1,1.4,0.8,0.9,1.8
		C138.4,133.9,137.7,133.5,138.9,132.3 M89.3,133.4c2.5,0.2,2.6,3.2,0,3.3C87.2,136.3,88.1,134.3,89.3,133.4 M100.3,134.2
		c1.7,0.1,3,2.2,1.1,3.2C99.3,138.5,97.8,134.9,100.3,134.2 M111.3,135.1c2.1,0.2,2.2,2.5,0.3,3.2
		C109.3,138,109.8,135.9,111.3,135.1 M78.2,132.9c1.6,0,3,2.1,1.1,2.9C77.2,136.6,76.9,134,78.2,132.9 M122.5,136.1
		c1.1,0.3,1.7,2,0.5,2.6C121.2,139.6,120.8,136.9,122.5,136.1 M67.5,132.4c0.8,0.2,2.1,0.9,1.3,1.9
		C67.6,135.8,65.6,133.8,67.5,132.4 M133.4,137.3c1.1,0.5,1,2.4-0.2,1.9C132.1,138.7,132.2,137.5,133.4,137.3 M56.6,132
		c1.1,0.1,1.4,0.8,0.7,1.8C55.8,134.1,56,132.7,56.6,132 M94.5,139.5c1.8,0.2,2.4,2.6,0.4,2.8C92.8,142.6,93.2,140.4,94.5,139.5
		 M105.7,140.3c1.3,0.5,2,2.8,0,2.8C103.5,143.2,104.4,140.9,105.7,140.3 M83.4,138.9c1.3,0.2,2.7,1.7,0.8,2.6
		C82.6,142.3,81.9,139.6,83.4,138.9 M116.4,141.3c1.1,0.1,2,0.9,1.1,2C116.5,144.5,114.2,142.9,116.4,141.3 M72.4,138.3
		c1.2,0.2,2,0.5,1.4,1.9C72,141.1,71.2,139.7,72.4,138.3 M127.5,142.3c0.8,0.3,1.4,1.4,0.3,1.9C126.7,144.7,125.9,142.6,127.5,142.3
		 M61.7,137.8c0.9,0.3,1.3,0.6,1,1.5C61.4,139.8,60.5,138.8,61.7,137.8 M88.9,144.9c1.6,0.6,1.3,1.7-0.1,2.4
		C87.9,146.7,87,145.2,88.9,144.9 M99.8,145.7c1.5,0.6,1.3,1.5,0.2,2.5C98.5,147.7,98.1,146.1,99.8,145.7 M77.9,144.2
		c0.7,0.4,1.7,1.4,0.4,2C76.7,147.1,76.7,145,77.9,144.2 M110.5,146.5c1.4,0.4,1.6,1.1,0.7,2.1C109.4,148.8,109.4,147.5,110.5,146.5
		 M66.9,143.7c1,0.3,1.1,1,0.5,1.7C66.4,145.2,65.5,144.2,66.9,143.7 M121.4,147.6c0.9,0.1,1.7,1,0.6,1.6
		C120.8,150,120.8,148.2,121.4,147.6 M93.9,151c1.2,0.6,0.9,2.4-0.4,1.8C92.6,152.2,93,151.3,93.9,151 M82.8,150.3
		c0.8,0.2,1.9,0.9,0.6,1.6C82.2,152.6,82,151,82.8,150.3 M104.5,151.9c0.5,0.1,2,0.6,1,1.4C104.4,154.4,103.6,152.9,104.5,151.9
		 M71.8,149.7c0.9,0.1,1.1,0.4,1,1.2C71.8,151.7,70.7,150.6,71.8,149.7 M115.4,152.8C118.8,153,113.6,155.8,115.4,152.8 M88.1,156.3
		C90.7,157.8,85.5,158,88.1,156.3 M99,157.1C101.7,158.6,96.4,158.8,99,157.1"/>
	<path class="st1" d="M48.8,98l-22.2,4.7l21.1,7.1l-5.2,23L61.9,122l1.2,23.3L86.5,127l5.5,11.8l6.8-8.6l7.4,11.4l4.2-15.1
		l18.7,15.1l0-22.1l17.5,9.1l-3.4-12.3l27.2,1.6l-11.7-16.4l13.1-10.2l-20.1-3.8l5.9-13.3l-22.9,9.1l3.1-23.9l-16.6,15.3l-1.7-16.2
		c0-0.2-0.2-0.3-0.4-0.3c-0.1,0-0.2,0.1-0.3,0.2l-9.6,14.1l-7.1-18L88,70.5l-15.1-9L70.7,78L55.4,68l2,14.1l-23.2-1L48.8,98z"/>
	<path class="st1" d="M170.4,117.9l-27.2-1.6l3.4,12.3l-17.5-9.1l0.1,22.1l-18.7-15.1l-4.2,15.1l-7.4-11.4l-6.8,8.6L86.5,127
		l-23.3,18.3L61.9,122l-19.4,10.8l3.1-13.8l2.1-9.3l-22.1-6l21.7-6.1L34.3,81.2l23.2,1l-2-14.1L73,75.4l-0.1-14l15.1,9l10.4-20.8
		l10.8,22.9l10.2-14.9l1.8,17.1l16.6-15.3l2.3,20.4l17.6-5.6l-5,11.3l-0.9,2l20.1,3.8l-13.1,10.2L170.4,117.9z"/>
	<path class="st2" d="M170.4,117.9l-27.2-1.6l3.4,12.3l-17.5-9.1l0.1,22.1l-18.7-15.1l-4.2,15.1l-7.4-11.4l-6.8,8.6L86.5,127
		l-23.3,18.3L61.9,122l-19.4,10.8l3.1-13.8c13.2-3.7,26.6-6.6,39.9-10.2c22.8-6.3,44.9-15,67.1-23.3l-0.9,2l20.1,3.8l-13.1,10.2
		L170.4,117.9z"/>
	<path class="st3" d="M138.1,82.7l18.3-5.5l1.3-2.9l-16.7,5.3L138.1,82.7z"/>
	<path class="st3" d="M119.6,78.6l18.5-16.2l-0.3-2.9L122.1,74L119.6,78.6z"/>
	<path class="st3" d="M108.9,76.4L119.7,61l-0.4-3.3l-10,14.7L108.9,76.4z"/>
	<path class="st3" d="M170.1,117.9l0.3,0l-10.3-14.4l-0.2,0.1L170.1,117.9z"/>
	<path class="st3" d="M151.7,87.6l18.2,5.3l3.4-2.9l-19.7-2L151.7,87.6z"/>
	<path class="st3" d="M87.7,129.1l-0.2,0.1l4.5,9.6l0.1-0.2L87.7,129.1z"/>
	<path class="st3" d="M63.1,124.1l-1.1,0.6l1.1,20.6l1-0.8L63.1,124.1z"/>
	<path class="st3" d="M50.3,98.2L47,97.8l-21.4,6L30,105L50.3,98.2z"/>
	<path class="st3" d="M48.9,111.9l-1.6-0.4l-4.8,21.4l1.9-1.1L48.9,111.9z"/>
	<path class="st3" d="M35.9,83.3l22.7,0.9l-2-14.1l17.6,7.4l-0.1-14l15.1,9L99.5,52l-1.1-2.3L88,70.5l-15.1-9l0.1,14L55.4,68l2,14.1
		l-23.2-1L35.9,83.3z"/>
	<path class="st4" d="M151.7,87.6L151.7,87.6c-3.9,3.4-8.6,7.4-13,10c-12.8,7.5-26.8,10.8-41.3,12.7c-16.8,2.2-33.3,1.6-50,1.2
		l-4.8,21.3L61.9,122l1.2,23.3L86.5,127l5.5,11.8l6.8-8.6l7.4,11.4l4.2-15.1l18.7,15.1l0-22.1l17.5,9.1l-3.4-12.3l27.2,1.6
		l-11.7-16.4l14-11L151.7,87.6z"/>
	<path class="st4" d="M151.7,87.6L151.7,87.6c-3.9,3.4-8.6,7.4-13,10c-12.8,7.5-26.8,10.8-41.3,12.7c-16.8,2.2-33.3,1.6-50,1.2
		l-4.8,21.3L61.9,122l1.2,23.3L86.5,127l5.5,11.8l6.8-8.6l7.4,11.4l4.2-15.1l18.7,15.1l0-22.1l17.5,9.1l-3.4-12.3l27.2,1.6
		l-11.7-16.4l14-11L151.7,87.6z"/>
	<path class="st5" d="M62.2,147.3L61,123.7l-19.9,11.1l5.4-23.9l-23.9-6.9l23.2-6.5L32.1,80.1l24.2,1l-2.1-14.7L72,73.9l-0.1-14.2
		l15.7,9.4l10.9-21.7l10.9,23.2L120,54.9l1.9,17.9l16.6-15.3l2.3,21.1l18.5-5.9l-6.1,13.6l22.1,3.5l-15.4,12l12.3,17.3l-27.9-1.7
		l3.6,13.2l-18-9.4l0,22.6l-19.2-15.4l-4.4,15.8l-7.9-12.1l-6.9,8.8l-5.7-12.1L62.2,147.3z M62.8,120.4l0.3,24.9l23.7-19.9l5.2,13.4
		l6.9-10.3l7.3,13.2l3.6-16.8l19.3,16.8l-1-23.8l18.5,10.8l-4.7-13.4l28.5,2.7l-13-16.6l15.3-10.8l-21-3l5-12.7l-17.6,6.3l-1.3-21.1
		l-17.4,16.8l-0.9-18.2L109,74.6L98.4,49.7l-10,22.2L72.9,61.5L74,76.9L55.4,68l3.2,15.2l-23.8-1.6l14,16.4l-22.2,5.8l22.4,5
		l-6.5,24.1L62.8,120.4z"/>
	<path d="M82.8,84.3c0.7,10.7,6.2,28.8,4.3,30.1l-7.9,5.3L74.3,105l3.3,9.7l-1,4.8l-7.5,5.2c-2.8-9.3-6.1-18.3-10.1-27.2l6.6-4.6
		l6,17.4l-3.4-20.8l3.6-2.3l8,24.8l-4.1-23.2L82.8,84.3z"/>
	<path d="M99.8,78.1c3.7,0.2,6.7,2,9,5.6c1.2,1.8,2.1,3.8,2.6,6c0.5,2.2,0.6,4.4,0.5,6.7c-0.3,4-1.7,7.8-4,11.1
		c-2.8,4.1-6.4,6-10.7,5.8c-3.7-0.2-6.7-2-9.1-5.6c-1.2-1.8-2-3.7-2.5-5.8c-1.3-6.2-0.1-12.6,3.5-17.8
		C91.9,79.9,95.5,77.9,99.8,78.1z M100.5,89c-1.9-0.1-3.5,1.1-4.9,3.7c-1,1.8-1.7,3.9-1.9,6c-0.1,1,0,1.9,0.2,2.8
		c0.2,1.2,0.9,2.2,1.7,3c1,0.9,2.3,1.4,3.6,1.4c1.9,0.1,3.6-0.8,4.6-2.3c1-1.4,1.5-3.1,1.6-4.8c0.1-2.2-0.2-4.5-1.1-6.5
		C103.4,90.2,102.2,89.1,100.5,89z"/>
	<path d="M145.4,92.3c-6.4,7.9-12.2,16.2-17.2,25.1l-9.4-1.5l-1.2-2.7l7.6-11.4l-8.2,12.3l-9-1.3c0.3-0.6-1.5-2-1.2-2.6
		c4.2-8.8,18.6-19.2,21.2-27l-0.9,3.9l-7.4,16.9l17.3-20.8l-1.4,3.9l-10.9,23.6L146.7,88L145.4,92.3z"/>
	<path class="st6" d="M81.9,79.4c0.6,10.1,2,20.2,4.3,30.1l-7.9,5.3l-4.9-14.7l2.3,14.6l-7.5,5.2c-2.8-9.3-6.1-18.3-10.1-27.1
		l6.6-4.6l6,17.4l-3.4-20.8l3.6-2.3l8,24.8L75,83.9L81.9,79.4z"/>
	<path d="M67.8,121.5l-0.4-1.3c-2.8-9.2-6.1-18.2-10-27L57,92.4l8.4-5.9l2.7,7.7l-1.6-10l5.3-3.4L75.6,93l-1.7-9.6l8.9-5.8l0.1,1.7
		c0.6,10.1,2,20.1,4.3,29.9l0.2,0.7l-9.6,6.4l-1.5-4.5l0.5,3.3L67.8,121.5z M59.5,93.1c3.6,8.2,6.8,16.6,9.4,25.2l5.8-4l-2.2-14
		l1.9-0.5l4.5,13.4l6.2-4.2c-2.1-9.2-3.5-18.5-4.1-27.9l-4.9,3.2l4,22.6l-1.9,0.5l-7.6-23.5l-2,1.3l3.3,20.1l-1.9,0.5l-5.6-16.1
		L59.5,93.1z"/>
	<path class="st6" d="M99.8,75.2c3.7,0.2,6.7,2,9,5.6c1.2,1.8,2.1,3.8,2.6,6c0.5,2.2,0.6,4.4,0.5,6.7c-0.3,4-1.7,7.8-4,11.1
		c-2.8,4.1-6.4,6-10.7,5.8c-3.7-0.2-6.7-2-9.1-5.6c-1.2-1.8-2-3.7-2.5-5.8c-1.3-6.2-0.1-12.6,3.5-17.8C91.9,76.9,95.5,75,99.8,75.2z
		 M100.5,86.1c-1.9-0.1-3.5,1.1-4.9,3.7c-1,1.8-1.7,3.9-1.9,6c-0.1,1,0,1.9,0.2,2.8c0.2,1.2,0.9,2.2,1.7,3c1,0.9,2.3,1.4,3.6,1.4
		c1.9,0.1,3.6-0.8,4.6-2.3c1-1.4,1.5-3.1,1.6-4.8c0.1-2.2-0.2-4.5-1.1-6.5C103.4,87.2,102.2,86.1,100.5,86.1L100.5,86.1z"/>
	<path d="M97.8,111.3c-0.2,0-0.4,0-0.7,0c-4-0.2-7.3-2.2-9.9-6c-1.2-1.9-2.1-3.9-2.6-6.1c-1.4-6.5-0.1-13.2,3.6-18.6
		c3-4.4,7-6.5,11.6-6.2l0,0c4,0.2,7.3,2.2,9.8,6c1.3,1.9,2.2,4.1,2.7,6.3c0.5,2.3,0.7,4.6,0.5,7c-0.3,4.2-1.8,8.2-4.2,11.6
		C105.8,109.2,102.1,111.3,97.8,111.3z M99.2,76.2c-3.7,0-6.8,1.8-9.3,5.4c-3.4,5-4.6,11.2-3.3,17.1c0.4,1.9,1.2,3.8,2.3,5.5
		c2.2,3.3,4.9,5,8.3,5.1c4,0.2,7.2-1.6,9.8-5.3c2.2-3.1,3.5-6.8,3.8-10.6c0.2-2.1,0-4.3-0.4-6.4c-0.5-2-1.3-3.9-2.4-5.6
		c-2.2-3.3-4.8-5-8.2-5.1l0,0C99.6,76.2,99.4,76.2,99.2,76.2z M99.6,104c-0.1,0-0.2,0-0.4,0c-1.6,0-3.1-0.7-4.2-1.7
		c-1-0.9-1.7-2.2-2-3.5c-0.2-1-0.3-2.1-0.2-3.1c0.2-2.2,0.9-4.4,2-6.4c1.5-2.9,3.5-4.3,5.8-4.2l0,0c2.1,0.1,3.7,1.4,4.7,3.9
		c0.9,2.2,1.3,4.6,1.2,7c-0.1,1.9-0.7,3.7-1.7,5.3C103.6,103,101.7,104.1,99.6,104L99.6,104z M100.3,87.1c-1.4,0-2.7,1-3.8,3.2
		c-1,1.7-1.6,3.6-1.8,5.6c-0.1,0.9,0,1.7,0.2,2.5c0.2,1,0.7,1.8,1.4,2.5c0.8,0.7,1.9,1.2,3,1.2c1.5,0.1,3-0.6,3.8-1.9
		c0.8-1.3,1.3-2.7,1.4-4.3c0.1-2.1-0.2-4.2-1-6.1c-0.7-1.8-1.7-2.6-3-2.7l0,0C100.4,87.1,100.4,87.1,100.3,87.1L100.3,87.1z"/>
	<path class="st6" d="M145.4,88.9c-6.4,7.9-12.2,16.2-17.2,25.1l-9.4-1.5l6.3-14.1l-8.2,12.3l-9-1.3c4.2-8.7,7.9-17.6,11-26.8l8,1.1
		l-7.4,16.9L131.2,83l4.3,0.8l-10.9,23.6l12.8-19.8L145.4,88.9z"/>
	<path class="st6" d="M81.9,79.4c0.6,10.1,2,20.2,4.3,30.1l-7.9,5.3l-4.9-14.7l2.3,14.6l-7.5,5.2c-2.8-9.3-6.1-18.3-10.1-27.1
		l6.6-4.6l6,17.4l-3.4-20.8l3.6-2.3l8,24.8L75,83.9L81.9,79.4z"/>
	<path class="st6" d="M99.8,75.2c3.7,0.2,6.7,2,9,5.6c1.2,1.8,2.1,3.8,2.6,6c0.5,2.2,0.6,4.4,0.5,6.7c-0.3,4-1.7,7.8-4,11.1
		c-2.8,4.1-6.4,6-10.7,5.8c-3.7-0.2-6.7-2-9.1-5.6c-1.2-1.8-2-3.7-2.5-5.8c-1.3-6.2-0.1-12.6,3.5-17.8C91.9,76.9,95.5,75,99.8,75.2z
		 M100.5,86.1c-1.9-0.1-3.5,1.1-4.9,3.7c-1,1.8-1.7,3.9-1.9,6c-0.1,1,0,1.9,0.2,2.8c0.2,1.2,0.9,2.2,1.7,3c1,0.9,2.3,1.4,3.6,1.4
		c1.9,0.1,3.6-0.8,4.6-2.3c1-1.4,1.5-3.1,1.6-4.8c0.1-2.2-0.2-4.5-1.1-6.5C103.4,87.2,102.2,86.1,100.5,86.1L100.5,86.1z"/>
	<path class="st7" d="M111.4,86.8c-0.5-2.1-1.4-4.2-2.6-6c-2.3-3.5-5.3-5.4-9-5.6c-4.1-0.2-7.4,1.5-10.2,5.1
		c2.3-2.7,5.7-4.1,9.2-3.9c3.7,0.2,6.6,2,9,5.6c1.2,1.8,2.1,3.8,2.6,6c0.5,2.2,0.6,4.4,0.5,6.7c-0.3,4-1.7,7.8-4,11.1
		c-0.2,0.2-0.3,0.4-0.5,0.6c0.5-0.6,1-1.2,1.5-1.8c2.3-3.3,3.7-7.1,4-11.1C112,91.2,111.9,88.9,111.4,86.8z"/>
	<path class="st7" d="M96.4,88.5c-0.7,0.7-1.3,1.5-1.7,2.4c-1,1.8-1.7,3.9-1.9,6c-0.1,1,0,1.9,0.2,2.8c0.3,1.2,0.9,2.2,1.7,3
		c1,0.9,2.3,1.4,3.6,1.4c1.9,0.1,3.6-0.8,4.6-2.3c0,0,0-0.1,0.1-0.1c-1,0.9-2.3,1.4-3.7,1.3c-1.3,0-2.6-0.5-3.6-1.4
		c-0.9-0.8-1.5-1.9-1.7-3c-0.2-0.9-0.3-1.9-0.2-2.8c0.2-2.1,0.8-4.1,1.9-6C95.9,89.3,96.1,88.9,96.4,88.5z"/>
	<path d="M128.7,115l-11.4-1.8l1.9-4.3l-1.9,2.8l-11-1.6l0.6-1.2c4.2-8.6,7.9-17.5,11-26.7l0.3-0.8l10.2,1.4l-3.3,7.5l5.6-8.5
		l6.2,1.1l-5.4,11.6l5.2-8.2l10.5,1.8l-1.1,1.3c-6.4,7.8-12.1,16.2-17.1,24.9L128.7,115z M120.2,111.7l7.4,1.2
		c4.7-8.2,10-15.9,15.9-23.3l-5.8-1l-12.4,19.3l-1.7-1L134,84.5l-2.3-0.4l-11.2,17l-1.8-0.9l6.8-15.7l-5.9-0.8
		c-2.9,8.5-6.3,16.8-10.2,24.9l7,1l7.9-11.7l1.7,1L120.2,111.7z"/>
	<path class="st6" d="M145.4,88.9c-6.4,7.9-12.2,16.2-17.2,25.1l-9.4-1.5l6.3-14.1l-8.2,12.3l-9-1.3c4.2-8.7,7.9-17.6,11-26.8l8,1.1
		l-7.4,16.9L131.2,83l4.3,0.8l-10.9,23.6l12.8-19.8L145.4,88.9z"/>
	<path class="st7" d="M115.7,110.5l1.2,0.2l3.6-5.4l2.7-5.9L115.7,110.5z"/>
	<path class="st7" d="M133.6,84.7l-10.9,23.6l5.3-8.3l7.5-16.2l-4.3-0.8l-0.8,1.1L133.6,84.7z"/>
	<path class="st7" d="M125.1,84.6l-7.4,16.9l4.4-6.7l4.8-11.1l-8-1.1c-0.1,0.4-0.3,0.8-0.4,1.1L125.1,84.6z"/>
	<path class="st7" d="M137.3,87.5l-0.7,1.1l6.9,1.2c-6.2,7.5-11.7,15.5-16.6,23.9l1.3,0.2c5-8.8,10.8-17.2,17.2-25.1L137.3,87.5z"/>
	<path class="st7" d="M64.2,89.6l6,17.4l-1-6.3l-4.4-12.6l-6.6,4.6c0.1,0.3,0.2,0.5,0.4,0.8L64.2,89.6z"/>
	<path class="st7" d="M70.5,83.9l8,24.8l-1.3-7.7l-6-18.6l-3.6,2.3l0.2,1L70.5,83.9z"/>
	<path class="st7" d="M72.8,101.7l2.2,13.6l0.8-0.5l-1.3-8.1L72.8,101.7z"/>
	<path class="st7" d="M75,83.9l0.2,1l6.1-4c0.6,9.8,2,19.6,4.1,29.2l0.8-0.6c-2.3-9.9-3.7-20-4.3-30.1L75,83.9z"/>
	<path class="st8" d="M86.5,54.9l-5.3-0.1L78,59l-1.4-5l-5-1.6l4.4-3l0.1-5.2l4.1,3.2l5.1-1.6l-1.9,4.9L86.5,54.9z"/>
	<path d="M77.8,60.1l-1.6-5.7l-5.7-1.8l5.1-3.4l0.1-5.9l4.7,3.6l5.8-1.8L84,50.7l3.4,4.8l-6-0.1L77.8,60.1z M72.7,52.3l4.3,1.4
		l1.2,4.3l2.7-3.6l4.5,0.1l-2.6-3.6l1.6-4.2L80.2,48l-3.6-2.7l-0.1,4.5L72.7,52.3z"/>
	<path class="st8" d="M154.5,60l-3.7-0.1l-2.2,2.9l-1-3.4l-3.5-1.1l3.1-2l0.1-3.6l2.9,2.2l3.5-1.1l-1.3,3.4L154.5,60z"/>
	<path d="M148.4,63.9l-1.2-4.2l-4.2-1.3l3.7-2.5l0.1-4.3l3.4,2.6l4.2-1.3L153,57l2.5,3.5l-4.4-0.1L148.4,63.9z M145.4,58.1l2.7,0.9
		l0.8,2.7l1.8-2.3l2.9,0.1l-1.7-2.3l1-2.7l-2.8,0.9l-2.3-1.7l-0.1,2.9L145.4,58.1z"/>
	<path class="st8" d="M104.3,124.4l-3.5-0.9l-2.8,2.3l-0.1-3.6l-3.1-1.9l3.4-1.3l0.9-3.5l2.3,2.8l3.7-0.3l-2,3L104.3,124.4z"/>
	<path d="M97.5,126.7l-0.2-4.3l-3.8-2.3l4.2-1.5l1.1-4.2l2.7,3.4l4.4-0.3l-2.5,3.6l1.6,4l-4.3-1.1L97.5,126.7z M95.9,120.4l2.4,1.5
		l0.1,2.8l2.2-1.8l2.8,0.7l-1.1-2.6l1.6-2.4l-2.9,0.2l-1.8-2.2l-0.7,2.8L95.9,120.4z"/>
	<path class="st8" d="M51.9,117.5l-5.3-1.4l-4.3,3.5l-0.2-5.4l-4.7-2.8l5.2-1.9l1.4-5.2l3.4,4.2L53,108l-3.1,4.5L51.9,117.5z"/>
	<path d="M41.9,120.5l-0.2-6.1l-5.3-3.2l5.9-2.2l1.6-5.9l3.9,4.8l6.3-0.5l-3.5,5.1l2.3,5.7l-6-1.6L41.9,120.5z M38.7,111.4l4,2.4
		l0.2,4.6l3.7-3l4.6,1.2l-1.8-4.3l2.6-3.9l-4.7,0.3l-3-3.6l-1.2,4.5L38.7,111.4z"/>
	<path class="st8" d="M151.1,117.9l-3.7-4l-5.4,0.7l2.7-4.6l-2.4-4.9l5.4,1.2l3.9-3.7l0.6,5.3l4.8,2.6l-5,2.2L151.1,117.9z"/>
	<path d="M151.5,119l-4.2-4.6l-6.2,0.8l3.1-5.3l-2.8-5.6l6.1,1.3l4.5-4.2l0.7,6.1l5.5,3l-5.7,2.5L151.5,119z M147.6,113.4l3.2,3.5
		l0.8-4.6l4.3-1.8l-4.2-2.2l-0.5-4.6l-3.4,3.2l-4.6-1l2.1,4.2l-2.3,4L147.6,113.4z"/>
</g>
</svg>
